<svg width="24" height="24" viewBox="0 0 24 24" fill="none" xmlns="http://www.w3.org/2000/svg">
<path fill-rule="evenodd" clip-rule="evenodd" d="M9.5 3.5H20.5V14.5H9.5V3.5ZM8 3.5C8 2.67157 8.67157 2 9.5 2H20.5C21.3284 2 22 2.67157 22 3.5V14.5C22 15.3284 21.3284 16 20.5 16H19V17.5C19 18.3284 18.3284 19 17.5 19H16V20.5C16 21.3284 15.3284 22 14.5 22H3.5C2.67157 22 2 21.3284 2 20.5V9.5C2 8.67157 2.67157 8 3.5 8H5V6.5C5 5.67157 5.67157 5 6.5 5H8V3.5ZM8 6.5H6.5V17.5H17.5V16H9.5C8.67157 16 8 15.3284 8 14.5V6.5ZM6.5 19H14.5V20.5H3.5L3.5 9.5H5V17.5C5 18.3284 5.67157 19 6.5 19Z" fill="#D9D9D9"/>
</svg>
