<svg width="24" height="24" viewBox="0 0 24 24" fill="none" xmlns="http://www.w3.org/2000/svg">
<path fill-rule="evenodd" clip-rule="evenodd" d="M3.5 9.5V3.5H9.5V9.5H3.5ZM2 3C2 2.44772 2.44772 2 3 2H10C10.5523 2 11 2.44772 11 3V10C11 10.5523 10.5523 11 10 11H3C2.44772 11 2 10.5523 2 10V3ZM3.5 20.5V14.5H9.5V20.5H3.5ZM2 14C2 13.4477 2.44772 13 3 13H10C10.5523 13 11 13.4477 11 14V21C11 21.5523 10.5523 22 10 22H3C2.44772 22 2 21.5523 2 21V14ZM14.5 3.5V9.5H20.5V3.5H14.5ZM14 2C13.4477 2 13 2.44772 13 3V10C13 10.5523 13.4477 11 14 11H21C21.5523 11 22 10.5523 22 10V3C22 2.44772 21.5523 2 21 2H14ZM14.5 20.5V14.5H20.5V20.5H14.5ZM13 14C13 13.4477 13.4477 13 14 13H21C21.5523 13 22 13.4477 22 14V21C22 21.5523 21.5523 22 21 22H14C13.4477 22 13 21.5523 13 21V14Z" fill="#1B1B1B"/>
</svg>
