<svg width="24" height="24" viewBox="0 0 24 24" fill="none" xmlns="http://www.w3.org/2000/svg">
<path fill-rule="evenodd" clip-rule="evenodd" d="M12 1C12.5922 1 13.129 1.34841 13.3701 1.8893L15.7804 7.29671L21.668 7.91812C22.2569 7.98027 22.7542 8.3831 22.9371 8.9463C23.1201 9.50951 22.9547 10.1277 22.5147 10.5241L18.1168 14.4875L19.3452 20.2789C19.4681 20.8582 19.2386 21.4556 18.7595 21.8037C18.2804 22.1518 17.6414 22.1854 17.1284 21.8895L12 18.9316L6.87158 21.8895C6.3586 22.1854 5.71956 22.1518 5.24047 21.8037C4.76138 21.4556 4.53192 20.8582 4.65479 20.2789L5.88317 14.4875L1.48526 10.5241C1.04534 10.1277 0.879854 9.50951 1.06285 8.9463C1.24585 8.3831 1.74307 7.98027 2.33199 7.91812L8.21959 7.29671L10.6299 1.8893C10.871 1.34841 11.4078 1 12 1ZM9.23741 8.69762L2.48944 9.40983L7.53004 13.9524L6.12215 20.5902L12 17.2L17.8779 20.5902L16.47 13.9524L21.5106 9.40983L14.7626 8.69762L12 2.5L9.23741 8.69762Z" fill="#1B1B1B"/>
</svg>
