<svg width="24" height="24" viewBox="0 0 24 24" fill="none" xmlns="http://www.w3.org/2000/svg">
<path d="M10.9824 12.9823L10.9126 16.9816L12.9123 17.0165L12.9821 13.0172L16.9816 13.087L17.0166 11.0873L13.017 11.0175L13.0868 7.01802L11.0872 6.98312L11.0173 10.9826L7.01807 10.9128L6.98317 12.9125L10.9824 12.9823Z" fill="#1B1B1B"/>
<path fill-rule="evenodd" clip-rule="evenodd" d="M18.6539 5.57442C15.1051 1.89958 9.24926 1.79736 5.57442 5.34612C1.89958 8.89487 1.79736 14.7508 5.34612 18.4256C8.89487 22.1004 14.7508 22.2027 18.4256 18.6539C22.1004 15.1051 22.2027 9.24926 18.6539 5.57442ZM4.53243 4.26711C8.8032 0.142878 15.6087 0.261668 19.7329 4.53243C23.8571 8.8032 23.7384 15.6087 19.4676 19.7329C15.1968 23.8571 8.39134 23.7384 4.26711 19.4676C0.142878 15.1968 0.261668 8.39134 4.53243 4.26711Z" fill="#1B1B1B"/>
</svg>
