<svg width="24" height="24" viewBox="0 0 24 24" fill="none" xmlns="http://www.w3.org/2000/svg">
<path d="M3.5 18C2.67157 18 2 17.3284 2 16.5V7.5C2 6.67157 2.67157 6 3.5 6H20.5C21.3284 6 22 6.67157 22 7.5V10H20.5V7.5H3.5V16.5H15V18H3.5Z" fill="#1B1B1B"/>
<path d="M14 12C14 13.1046 13.1046 14 12 14C10.8954 14 10 13.1046 10 12C10 10.8954 10.8954 10 12 10C13.1046 10 14 10.8954 14 12Z" fill="#1B1B1B"/>
<path d="M19 19H19.5C19.9596 19 20.4148 18.9095 20.8394 18.7336C21.264 18.5577 21.6499 18.2999 21.9749 17.9749C22.2999 17.6499 22.5577 17.264 22.7336 16.8394C22.9095 16.4148 23 15.9596 23 15.5H21.5C21.5 15.7626 21.4483 16.0227 21.3478 16.2654C21.2472 16.508 21.0999 16.7285 20.9142 16.9142C20.7285 17.0999 20.508 17.2472 20.2654 17.3478C20.0227 17.4483 19.7626 17.5 19.5 17.5H19V16.25L17 18.25L19 20.25V19Z" fill="#1F7560"/>
<path d="M20 12L19.5 12C19.0404 12 18.5852 12.0905 18.1606 12.2664C17.736 12.4423 17.3501 12.7001 17.0251 13.0251C16.7001 13.3501 16.4423 13.736 16.2664 14.1606C16.0905 14.5852 16 15.0404 16 15.5H17.5C17.5 15.2374 17.5517 14.9773 17.6522 14.7346C17.7528 14.492 17.9001 14.2715 18.0858 14.0858C18.2715 13.9001 18.492 13.7528 18.7346 13.6522C18.9773 13.5517 19.2374 13.5 19.5 13.5L20 13.5V14.75L22 12.75L20 10.75V12Z" fill="#1F7560"/>
</svg>
