<svg width="24" height="24" viewBox="0 0 24 24" fill="none" xmlns="http://www.w3.org/2000/svg">
<path d="M15 18V17.1294H9V18H15Z" fill="#1B1B1B"/>
<path d="M13.4509 13.3182L10.4384 8.62524H9.06141V15.3792H10.1344L10.1348 10.717C10.1341 10.3327 10.1237 10.0943 10.1034 9.8646H10.1244L10.1419 9.90733C10.2483 10.1622 10.3747 10.3918 10.5583 10.6859L13.5711 15.3792H14.9338V8.62524H13.875L13.8745 13.2456L13.8745 13.2873C13.8752 13.6717 13.8857 13.9101 13.9059 14.1398H13.885L13.8674 14.097C13.761 13.8421 13.6346 13.6124 13.4509 13.3182Z" fill="#1B1B1B"/>
<path d="M15 6.8751V6H9V6.8751H15Z" fill="#1B1B1B"/>
<path fill-rule="evenodd" clip-rule="evenodd" d="M3.54497 5.73005C3 6.79961 3 8.19974 3 11V13C3 15.8003 3 17.2004 3.54497 18.27C4.02433 19.2108 4.78924 19.9757 5.73005 20.455C6.79961 21 8.19974 21 11 21H13C15.8003 21 17.2004 21 18.27 20.455C19.2108 19.9757 19.9757 19.2108 20.455 18.27C21 17.2004 21 15.8003 21 13V11C21 8.19974 21 6.79961 20.455 5.73005C19.9757 4.78924 19.2108 4.02433 18.27 3.54497C17.2004 3 15.8003 3 13 3H11C8.19974 3 6.79961 3 5.73005 3.54497C4.78924 4.02433 4.02433 4.78924 3.54497 5.73005ZM13 4.5H11C9.57512 4.5 8.59667 4.50117 7.83816 4.56314C7.09716 4.62368 6.69911 4.73469 6.41103 4.88148C5.75247 5.21703 5.21703 5.75247 4.88148 6.41103C4.73469 6.69911 4.62368 7.09716 4.56314 7.83816C4.50117 8.59667 4.5 9.57512 4.5 11V13C4.5 14.4249 4.50117 15.4033 4.56314 16.1618C4.62368 16.9028 4.73469 17.3009 4.88148 17.589C5.21703 18.2475 5.75247 18.783 6.41103 19.1185C6.69911 19.2653 7.09716 19.3763 7.83816 19.4369C8.59667 19.4988 9.57512 19.5 11 19.5H13C14.4249 19.5 15.4033 19.4988 16.1618 19.4369C16.9028 19.3763 17.3009 19.2653 17.589 19.1185C18.2475 18.783 18.783 18.2475 19.1185 17.589C19.2653 17.3009 19.3763 16.9028 19.4369 16.1618C19.4988 15.4033 19.5 14.4249 19.5 13V11C19.5 9.57512 19.4988 8.59667 19.4369 7.83816C19.3763 7.09716 19.2653 6.69911 19.1185 6.41103C18.783 5.75247 18.2475 5.21703 17.589 4.88148C17.3009 4.73469 16.9028 4.62368 16.1618 4.56314C15.4033 4.50117 14.4249 4.5 13 4.5Z" fill="#1F7560"/>
</svg>
