<svg width="24" height="24" viewBox="0 0 24 24" fill="none" xmlns="http://www.w3.org/2000/svg">
<path fill-rule="evenodd" clip-rule="evenodd" d="M22 12C22 17.5228 17.5228 22 12 22C6.47715 22 2 17.5228 2 12C2 6.47715 6.47715 2 12 2C17.5228 2 22 6.47715 22 12ZM20.5 12C20.5 16.6944 16.6944 20.5 12 20.5C7.30558 20.5 3.5 16.6944 3.5 12C3.5 7.30558 7.30558 3.5 12 3.5C16.6944 3.5 20.5 7.30558 20.5 12Z" fill="#1B1B1B"/>
<path d="M15.4697 12.4697L12.75 15.1893V7H11.25V15.1893L8.53033 12.4697L7.46967 13.5303L11.4697 17.5303C11.7626 17.8232 12.2374 17.8232 12.5303 17.5303L16.5303 13.5303L15.4697 12.4697Z" fill="#1F7560"/>
</svg>
