<svg width="24" height="24" viewBox="0 0 24 24" fill="none" xmlns="http://www.w3.org/2000/svg">
<path d="M11.4697 1.53033L13.1893 3.25H12C10.2694 3.25 8.57769 3.76317 7.13876 4.72464C5.69983 5.6861 4.57832 7.05266 3.91606 8.65152C3.25379 10.2504 3.08051 12.0097 3.41813 13.707C3.75575 15.4044 4.58911 16.9635 5.81282 18.1872L6.87348 17.1265C5.85955 16.1126 5.16905 14.8208 4.88931 13.4144C4.60957 12.008 4.75314 10.5503 5.30188 9.22554C5.85061 7.90078 6.77986 6.76848 7.97212 5.97184C9.16438 5.1752 10.5661 4.75 12 4.75H13.1893L11.4697 6.46967L12.5303 7.53033L15.5303 4.53033C15.8232 4.23743 15.8232 3.76256 15.5303 3.46967L12.5303 0.469666L11.4697 1.53033Z" fill="#1B1B1B"/>
<path d="M8.46967 20.5303L11.4697 23.5303L12.5303 22.4697L10.8107 20.75H12C13.7306 20.75 15.4223 20.2368 16.8612 19.2753C18.3002 18.3139 19.4217 16.9473 20.0839 15.3485C20.7462 13.7496 20.9195 11.9903 20.5819 10.2929C20.2443 8.59561 19.4109 7.03651 18.1872 5.81281L17.1265 6.87347C18.1405 7.8874 18.831 9.17922 19.1107 10.5856C19.3904 11.9919 19.2469 13.4497 18.6981 14.7744C18.1494 16.0992 17.2201 17.2315 16.0279 18.0281C14.8356 18.8248 13.4339 19.25 12 19.25H10.8107L12.5303 17.5303L11.4697 16.4697L8.46967 19.4697C8.17678 19.7626 8.17678 20.2374 8.46967 20.5303Z" fill="#1F7560"/>
</svg>
