<svg width="24" height="24" viewBox="0 0 24 24" fill="none" xmlns="http://www.w3.org/2000/svg">
<g clip-path="url(#clip0_825_741)">
<path fill-rule="evenodd" clip-rule="evenodd" d="M12 7L7 9V10H8.25V14.5H7V16H17V14.5H15.75V10H17V9L12 7ZM9.75 14.5V10H11.25V14.5H9.75ZM12.75 14.5V10H14.25V14.5H12.75Z" fill="#1B1B1B"/>
<path fill-rule="evenodd" clip-rule="evenodd" d="M12 3C12.6904 3 13.25 2.44036 13.25 1.75C13.25 1.05964 12.6904 0.5 12 0.5C11.3096 0.5 10.75 1.05964 10.75 1.75C10.75 2.44036 11.3096 3 12 3ZM5.5 5.25C6.19036 5.25 6.75 4.69036 6.75 4C6.75 3.30964 6.19036 2.75 5.5 2.75C4.80964 2.75 4.25 3.30964 4.25 4C4.25 4.69036 4.80964 5.25 5.5 5.25ZM18.5 5.25C19.1904 5.25 19.75 4.69036 19.75 4C19.75 3.30964 19.1904 2.75 18.5 2.75C17.8096 2.75 17.25 3.30964 17.25 4C17.25 4.69036 17.8096 5.25 18.5 5.25ZM22 10.25C22.6904 10.25 23.25 9.69036 23.25 9C23.25 8.30964 22.6904 7.75 22 7.75C21.3096 7.75 20.75 8.30964 20.75 9C20.75 9.69036 21.3096 10.25 22 10.25ZM19.75 20C19.75 20.6904 19.1904 21.25 18.5 21.25C17.8096 21.25 17.25 20.6904 17.25 20C17.25 19.3096 17.8096 18.75 18.5 18.75C19.1904 18.75 19.75 19.3096 19.75 20ZM6.75 20C6.75 20.6904 6.19036 21.25 5.5 21.25C4.80964 21.25 4.25 20.6904 4.25 20C4.25 19.3096 4.80964 18.75 5.5 18.75C6.19036 18.75 6.75 19.3096 6.75 20ZM3.25 9C3.25 9.69036 2.69036 10.25 2 10.25C1.30964 10.25 0.75 9.69036 0.75 9C0.75 8.30964 1.30964 7.75 2 7.75C2.69036 7.75 3.25 8.30964 3.25 9ZM2 16.25C2.69036 16.25 3.25 15.6904 3.25 15C3.25 14.3096 2.69036 13.75 2 13.75C1.30964 13.75 0.75 14.3096 0.75 15C0.75 15.6904 1.30964 16.25 2 16.25ZM23.25 15C23.25 15.6904 22.6904 16.25 22 16.25C21.3096 16.25 20.75 15.6904 20.75 15C20.75 14.3096 21.3096 13.75 22 13.75C22.6904 13.75 23.25 14.3096 23.25 15ZM12 23.5C12.6904 23.5 13.25 22.9404 13.25 22.25C13.25 21.5596 12.6904 21 12 21C11.3096 21 10.75 21.5596 10.75 22.25C10.75 22.9404 11.3096 23.5 12 23.5Z" fill="#1F7560"/>
</g>
<defs>
<clipPath id="clip0_825_741">
<rect width="24" height="24" fill="white"/>
</clipPath>
</defs>
</svg>
