<svg width="24" height="24" viewBox="0 0 24 24" fill="none" xmlns="http://www.w3.org/2000/svg">
<path fill-rule="evenodd" clip-rule="evenodd" d="M5 5C5 3.34315 6.34315 2 8 2L16 2C17.6569 2 19 3.34315 19 5L19 19C19 20.6569 17.6569 22 16 22L8 22C6.34315 22 5 20.6569 5 19L5 5ZM15.75 3.5H16C16.8284 3.5 17.5 4.17157 17.5 5L17.5 19C17.5 19.8284 16.8284 20.5 16 20.5L8 20.5C7.17157 20.5 6.5 19.8284 6.5 19L6.5 5C6.5 4.17157 7.17157 3.5 8 3.5L8.25 3.5C8.66421 3.5 9 3.83579 9 4.25C9 4.66421 9.33579 5 9.75 5L14.25 5C14.6642 5 15 4.66421 15 4.25C15 3.83579 15.3358 3.5 15.75 3.5Z" fill="#1B1B1B"/>
<path fill-rule="evenodd" clip-rule="evenodd" d="M13.2347 20.5L11.4319 20.5L13.0986 18L11.388 15.4341L9.89999 13.45L11.1 12.55L11.906 13.6248L13.8444 10.1357L15.1556 10.8642L12.8777 14.9644L14.9014 18L13.2347 20.5Z" fill="#1F7560"/>
</svg>
