<svg width="24" height="24" viewBox="0 0 24 24" fill="none" xmlns="http://www.w3.org/2000/svg">
<path d="M12.125 14.9356L9.53033 17.5303L8.46967 16.4696L10.9393 13.9999L8.46967 11.5303L9.53033 10.4696L12.125 13.0643L14.7196 10.4696L15.7803 11.5303L13.3106 13.9999L15.7803 16.4696L14.7196 17.5303L12.125 14.9356Z" fill="#1F7560"/>
<path fill-rule="evenodd" clip-rule="evenodd" d="M7.74989 3.99988H16.2499V2.49988H17.7499V3.99988H19.4999C20.3283 3.99988 20.9999 4.67145 20.9999 5.49988V19.4999C20.9999 20.3283 20.3283 20.9999 19.4999 20.9999H4.49989C3.67146 20.9999 2.99989 20.3283 2.99989 19.4999V5.49988C2.99989 4.67145 3.67146 3.99988 4.49989 3.99988H6.24989V2.49988H7.74989V3.99988ZM4.49989 5.49988H19.4999V6.99988L4.49989 6.99988V5.49988ZM4.49989 8.49988L4.49989 19.4999H19.4999V8.49988L4.49989 8.49988Z" fill="#1B1B1B"/>
</svg>
