<svg width="24" height="24" viewBox="0 0 24 24" fill="none" xmlns="http://www.w3.org/2000/svg">
<path fill-rule="evenodd" clip-rule="evenodd" d="M12 8C11.4747 8 10.9546 8.10346 10.4693 8.30448C9.98396 8.5055 9.54301 8.80014 9.17157 9.17157C8.80014 9.54301 8.5055 9.98396 8.30448 10.4693C8.10346 10.9546 8 11.4747 8 12C8 12.5253 8.10346 13.0454 8.30448 13.5307C8.5055 14.016 8.80014 14.457 9.17157 14.8284C9.54301 15.1999 9.98396 15.4945 10.4693 15.6955C10.9546 15.8965 11.4747 16 12 16C12.5253 16 13.0454 15.8965 13.5307 15.6955C14.016 15.4945 14.457 15.1999 14.8284 14.8284C15.1999 14.457 15.4945 14.016 15.6955 13.5307C15.8965 13.0454 16 12.5253 16 12C16 11.4747 15.8965 10.9546 15.6955 10.4693C15.4945 9.98396 15.1999 9.54301 14.8284 9.17157C14.457 8.80014 14.016 8.5055 13.5307 8.30448C13.0454 8.10346 12.5253 8 12 8ZM11.0433 9.6903C11.3466 9.56466 11.6717 9.5 12 9.5C12.3283 9.5 12.6534 9.56466 12.9567 9.6903C13.26 9.81594 13.5356 10.0001 13.7678 10.2322C13.9999 10.4644 14.1841 10.74 14.3097 11.0433C14.4353 11.3466 14.5 11.6717 14.5 12C14.5 12.3283 14.4353 12.6534 14.3097 12.9567C14.1841 13.26 13.9999 13.5356 13.7678 13.7678C13.5356 13.9999 13.26 14.1841 12.9567 14.3097C12.6534 14.4353 12.3283 14.5 12 14.5C11.6717 14.5 11.3466 14.4353 11.0433 14.3097C10.74 14.1841 10.4644 13.9999 10.2322 13.7678C10.0001 13.5356 9.81594 13.26 9.6903 12.9567C9.56466 12.6534 9.5 12.3283 9.5 12C9.5 11.6717 9.56466 11.3466 9.6903 11.0433C9.81594 10.74 10.0001 10.4644 10.2322 10.2322C10.4644 10.0001 10.74 9.81594 11.0433 9.6903Z" fill="#1F7560"/>
<path d="M18.5 9.5C19.0523 9.5 19.5 9.05228 19.5 8.5C19.5 7.94772 19.0523 7.5 18.5 7.5C17.9477 7.5 17.5 7.94772 17.5 8.5C17.5 9.05228 17.9477 9.5 18.5 9.5Z" fill="#1F7560"/>
<path fill-rule="evenodd" clip-rule="evenodd" d="M4.5 3.5H8.5V5H20.5C21.3284 5 22 5.67157 22 6.5V17.5C22 18.3284 21.3284 19 20.5 19H3.5C2.67157 19 2 18.3284 2 17.5V6.5C2 5.67157 2.67157 5 3.5 5H4.5V3.5ZM3.5 6.5L3.5 17.5H20.5V6.5H3.5Z" fill="#1B1B1B"/>
</svg>
