<svg width="24" height="24" viewBox="0 0 24 24" fill="none" xmlns="http://www.w3.org/2000/svg">
<path d="M6 10H10V13H6V10Z" fill="#1F7560"/>
<path fill-rule="evenodd" clip-rule="evenodd" d="M16.5967 13.1843L15.529 12.8261C15.1601 13.2363 14.8749 13.7231 14.7 14.2598L15.5445 15.0058C15.5179 15.1666 15.504 15.3317 15.504 15.5C15.504 15.6683 15.5179 15.8334 15.5445 15.9942L14.7 16.7402C14.8749 17.2769 15.1601 17.7637 15.529 18.1739L16.5967 17.8157C16.8503 18.0249 17.1389 18.1932 17.4524 18.3105L17.676 19.4142C17.9432 19.4704 18.2201 19.5 18.504 19.5C18.7879 19.5 19.0648 19.4704 19.332 19.4142L19.5557 18.3105C19.8691 18.1932 20.1577 18.0249 20.4113 17.8157L21.479 18.1739C21.8479 17.7637 22.1331 17.2769 22.308 16.7402L21.4635 15.9942C21.4901 15.8334 21.504 15.6683 21.504 15.5C21.504 15.3317 21.4901 15.1666 21.4635 15.0058L22.308 14.2598C22.1331 13.7231 21.8479 13.2363 21.479 12.8261L20.4113 13.1843C20.1577 12.9751 19.8691 12.8068 19.5557 12.6895L19.332 11.5858C19.0648 11.5296 18.7879 11.5 18.504 11.5C18.2201 11.5 17.9432 11.5296 17.676 11.5858L17.4524 12.6895C17.1389 12.8068 16.8503 12.9751 16.5967 13.1843ZM20 15.5C20 16.3284 19.3284 17 18.5 17C17.6716 17 17 16.3284 17 15.5C17 14.6716 17.6716 14 18.5 14C19.3284 14 20 14.6716 20 15.5Z" fill="#1F7560"/>
<path d="M3.5 6.5H20.5V10H22V6.5C22 5.67157 21.3284 5 20.5 5H3.5C2.67157 5 2 5.67157 2 6.5V17.5C2 18.3284 2.67157 19 3.5 19H13V17.5H3.5L3.5 6.5Z" fill="#1B1B1B"/>
</svg>
