<svg width="24" height="24" viewBox="0 0 24 24" fill="none" xmlns="http://www.w3.org/2000/svg">
<path d="M10 10H6V13H10V10Z" fill="#1F7560"/>
<path fill-rule="evenodd" clip-rule="evenodd" d="M21.7981 14.2019L19.5 11.9038L17.2019 14.2019C15.9327 15.4711 15.9327 17.5289 17.2019 18.7981C17.8364 19.4326 18.6694 19.75 19.5 19.75C20.3306 19.75 21.1636 19.4326 21.7981 18.7981C23.0673 17.5289 23.0673 15.4711 21.7981 14.2019ZM19.5 14.0251L18.2626 15.2626C17.5791 15.946 17.5791 17.054 18.2626 17.7374C18.6044 18.0793 19.051 18.25 19.5 18.25V14.0251Z" fill="#1F7560"/>
<path d="M20.5 6.5H3.5L3.5 17.5H15V19H3.5C2.67157 19 2 18.3284 2 17.5V6.5C2 5.67157 2.67157 5 3.5 5H20.5C21.3284 5 22 5.67157 22 6.5V11H20.5V6.5Z" fill="#1B1B1B"/>
</svg>
