<svg width="24" height="24" viewBox="0 0 24 24" fill="none" xmlns="http://www.w3.org/2000/svg">
<path d="M6 10H10V13H6V10Z" fill="#1F7560"/>
<path d="M19.5 12.5V15H16C15.4477 15 15 15.4477 15 16V19C15 19.5523 15.4477 20 16 20H21C21.5523 20 22 19.5523 22 19V16C22 15.4477 21.5523 15 21 15V12.5C21 11.1193 19.8807 10 18.5 10C17.1193 10 16 11.1193 16 12.5V13H17.5V12.5C17.5 11.9477 17.9477 11.5 18.5 11.5C19.0523 11.5 19.5 11.9477 19.5 12.5Z" fill="#1F7560"/>
<path d="M3.5 6.5H20.5V9H22V6.5C22 5.67157 21.3284 5 20.5 5H3.5C2.67157 5 2 5.67157 2 6.5V17.5C2 18.3284 2.67157 19 3.5 19H13.5V17.5H3.5V6.5Z" fill="#1B1B1B"/>
</svg>
