<svg width="24" height="24" viewBox="0 0 24 24" fill="none" xmlns="http://www.w3.org/2000/svg">
<path d="M6 10H10V13H6V10Z" fill="#1F7560"/>
<path fill-rule="evenodd" clip-rule="evenodd" d="M22 15C22 14.4477 21.5523 14 21 14V13.5C21 12.1193 19.8807 11 18.5 11C17.1193 11 16 12.1193 16 13.5V14C15.4477 14 15 14.4477 15 15V18C15 18.5523 15.4477 19 16 19H21C21.5523 19 22 18.5523 22 18V15ZM19.5 13.5V14H17.5V13.5C17.5 12.9477 17.9477 12.5 18.5 12.5C19.0523 12.5 19.5 12.9477 19.5 13.5Z" fill="#1F7560"/>
<path d="M3.5 6.5H20.5V10H22V6.5C22 5.67157 21.3284 5 20.5 5H3.5C2.67157 5 2 5.67157 2 6.5V17.5C2 18.3284 2.67157 19 3.5 19H13.5V17.5H3.5V6.5Z" fill="#1B1B1B"/>
</svg>
