<svg width="24" height="24" viewBox="0 0 24 24" fill="none" xmlns="http://www.w3.org/2000/svg">
<path fill-rule="evenodd" clip-rule="evenodd" d="M6 16V18.5C6 19.3284 6.67157 20 7.5 20H20.5C21.3284 20 22 19.3284 22 18.5V9.5C22 8.67157 21.3284 8 20.5 8H18V9.5H20.5V18.5H7.5V16H6Z" fill="#1F7560"/>
<path fill-rule="evenodd" clip-rule="evenodd" d="M3.5 5.5H16.5V14.5H3.5V5.5ZM2 5.5C2 4.67157 2.67157 4 3.5 4H16.5C17.3284 4 18 4.67157 18 5.5V14.5C18 15.3284 17.3284 16 16.5 16H3.5C2.67157 16 2 15.3284 2 14.5V5.5ZM9 8H6V10H9V8Z" fill="#1B1B1B"/>
</svg>
