<svg width="24" height="24" viewBox="0 0 24 24" fill="none" xmlns="http://www.w3.org/2000/svg">
<path d="M10 10H6V13H10V10Z" fill="#1F7560"/>
<path d="M19.8889 13.4213C19.4778 13.1466 18.9945 13 18.5 13V14.5L16.25 12.25L18.5 10V11.5C19.2911 11.5 20.0645 11.7346 20.7223 12.1741C21.3801 12.6136 21.8928 13.2384 22.1955 13.9693C22.4983 14.7002 22.5775 15.5044 22.4231 16.2804C22.2688 17.0563 21.8878 17.769 21.3284 18.3284C20.769 18.8878 20.0563 19.2688 19.2804 19.4231C18.5044 19.5775 17.7002 19.4983 16.9693 19.1955C16.2384 18.8928 15.6136 18.3801 15.1741 17.7223C14.7346 17.0645 14.5 16.2911 14.5 15.5H16C16 15.9945 16.1466 16.4778 16.4213 16.8889C16.696 17.3 17.0865 17.6205 17.5433 17.8097C18.0001 17.9989 18.5028 18.0484 18.9877 17.952C19.4727 17.8555 19.9181 17.6174 20.2678 17.2678C20.6174 16.9181 20.8555 16.4727 20.952 15.9877C21.0484 15.5028 20.9989 15.0001 20.8097 14.5433C20.6205 14.0865 20.3 13.696 19.8889 13.4213Z" fill="#1F7560"/>
<path d="M20.5 6.5H3.5L3.5 17.5H13V19H3.5C2.67157 19 2 18.3284 2 17.5V6.5C2 5.67157 2.67157 5 3.5 5H20.5C21.3284 5 22 5.67157 22 6.5V10H20.5V6.5Z" fill="#1B1B1B"/>
</svg>
