<svg width="24" height="24" viewBox="0 0 24 24" fill="none" xmlns="http://www.w3.org/2000/svg">
<path d="M6 10H10V13H6V10Z" fill="#1F7560"/>
<path d="M21.0156 16.955L18.8943 14.8336L17.8336 15.8943L19.955 18.0156L21.0156 16.955Z" fill="#1F7560"/>
<path d="M20.6019 11.7512L23.3736 12.8993L22.7995 14.2851L20.0279 13.1371L20.6019 11.7512Z" fill="#1F7560"/>
<path d="M17.2851 19.7995L16.1371 17.0279L14.7512 17.6019L15.8993 20.3736L17.2851 19.7995Z" fill="#1F7560"/>
<path fill-rule="evenodd" clip-rule="evenodd" d="M22 9L12 19H3.5C2.67157 19 2 18.3284 2 17.5V6.5C2 5.67157 2.67157 5 3.5 5H20.5C21.3284 5 22 5.67157 22 6.5V9ZM3.5 6.5V17.5H11.3787L20.5 8.37868V6.5L3.5 6.5Z" fill="#1B1B1B"/>
</svg>
