<svg width="24" height="24" viewBox="0 0 24 24" fill="none" xmlns="http://www.w3.org/2000/svg">
<path fill-rule="evenodd" clip-rule="evenodd" d="M6 10H10V13H6V10ZM20.5 10.5H22V16.5H20.5V10.5ZM22.25 18C22.25 18.5523 21.8023 19 21.25 19C20.6977 19 20.25 18.5523 20.25 18C20.25 17.4477 20.6977 17 21.25 17C21.8023 17 22.25 17.4477 22.25 18ZM17.5 12.5H19V17.5H17.5V12.5ZM18.25 20C18.8023 20 19.25 19.5523 19.25 19C19.25 18.4477 18.8023 18 18.25 18C17.6977 18 17.25 18.4477 17.25 19C17.25 19.5523 17.6977 20 18.25 20Z" fill="#1F7560"/>
<path d="M20.5 6.5H3.5L3.5 17.5H16V19H3.5C2.67157 19 2 18.3284 2 17.5V6.5C2 5.67157 2.67157 5 3.5 5H20.5C21.3284 5 22 5.67157 22 6.5V9H20.5V6.5Z" fill="#1B1B1B"/>
</svg>
