<svg width="24" height="24" viewBox="0 0 24 24" fill="none" xmlns="http://www.w3.org/2000/svg">
<path d="M12 7.75006C10.5655 7.75006 9.38752 8.84844 9.26121 10.2501H8.5V11.7501H9.25V12.2501H8.5V13.7501H9.26121C9.38752 15.1517 10.5655 16.2501 12 16.2501C13.5188 16.2501 14.75 15.0188 14.75 13.5001H13.25C13.25 14.1904 12.6904 14.7501 12 14.7501C11.3953 14.7501 10.8908 14.3206 10.775 13.7501H12.5V12.2501H10.75V11.7501H12.5V10.2501H10.775C10.8908 9.6795 11.3953 9.25006 12 9.25006C12.6904 9.25006 13.25 9.80971 13.25 10.5001H14.75C14.75 8.98128 13.5188 7.75006 12 7.75006Z" fill="#1F7560"/>
<path d="M13.1893 3.25006L12.4697 2.53039L13.5303 1.46973L15.5303 3.46973C15.8232 3.76262 15.8232 4.23749 15.5303 4.53039L13.5303 6.53039L12.4697 5.46973L13.1893 4.75006L12 4.75006C10.5661 4.75006 9.16438 5.17526 7.97212 5.9719C6.77986 6.76854 5.85061 7.90084 5.30188 9.2256C4.75314 10.5504 4.60957 12.0081 4.88931 13.4145C5.16905 14.8208 5.85955 16.1126 6.87348 17.1266L5.81282 18.1872C4.58911 16.9635 3.75575 15.4044 3.41813 13.7071C3.08051 12.0098 3.25379 10.2504 3.91606 8.65158C4.57832 7.05272 5.69983 5.68616 7.13876 4.7247C8.57769 3.76324 10.2694 3.25006 12 3.25006L13.1893 3.25006Z" fill="#1B1B1B"/>
<path d="M10.4697 22.5304L8.46967 20.5304C8.17678 20.2375 8.17678 19.7626 8.46967 19.4697L10.4697 17.4697L11.5303 18.5304L10.8107 19.2501H12C13.4339 19.2501 14.8356 18.8249 16.0279 18.0282C17.2201 17.2316 18.1494 16.0993 18.6981 14.7745C19.2469 13.4497 19.3904 11.992 19.1107 10.5857C18.831 9.17929 18.1405 7.88746 17.1265 6.87353L18.1872 5.81287C19.4109 7.03658 20.2443 8.59568 20.5819 10.293C20.9195 11.9903 20.7462 13.7497 20.084 15.3485C19.4217 16.9474 18.3002 18.314 16.8612 19.2754C15.4223 20.2369 13.7306 20.7501 12 20.7501H10.8107L11.5303 21.4697L10.4697 22.5304Z" fill="#1B1B1B"/>
</svg>
