<svg width="24" height="24" viewBox="0 0 24 24" fill="none" xmlns="http://www.w3.org/2000/svg">
<path fill-rule="evenodd" clip-rule="evenodd" d="M12.75 7.76373V7H11.25V7.76879C10.1218 7.9136 9.25 8.87753 9.25 10.0451C9.25 10.9144 9.74115 11.7091 10.5187 12.0979L11.25 12.4635V14.7073C10.9587 14.6044 10.75 14.3266 10.75 14H9.25C9.25 15.1581 10.125 16.1119 11.25 16.2363V17H12.75V16.2312C13.8782 16.0864 14.75 15.1225 14.75 13.9549C14.75 13.0856 14.2588 12.2909 13.4813 11.9021L12.75 11.5365V9.29268C13.0413 9.39564 13.25 9.67345 13.25 10H14.75C14.75 8.84186 13.875 7.88809 12.75 7.76373ZM11.25 9.30656C10.957 9.42374 10.75 9.71024 10.75 10.0451C10.75 10.3462 10.9201 10.6216 11.1895 10.7562L11.25 10.7865V9.30656ZM12.75 13.2135V14.6934C13.043 14.5763 13.25 14.2898 13.25 13.9549C13.25 13.6538 13.0799 13.3785 12.8105 13.2438L12.75 13.2135Z" fill="#1F7560"/>
<path d="M12.4697 2.53033L13.1893 3.25L12 3.25C10.2694 3.25 8.57769 3.76317 7.13876 4.72464C5.69983 5.6861 4.57832 7.05266 3.91606 8.65152C3.25379 10.2504 3.08051 12.0097 3.41813 13.707C3.75575 15.4044 4.58911 16.9635 5.81282 18.1872L6.87348 17.1265C5.85955 16.1126 5.16905 14.8208 4.88931 13.4144C4.60957 12.008 4.75314 10.5503 5.30188 9.22554C5.85061 7.90078 6.77986 6.76848 7.97212 5.97184C9.16438 5.1752 10.5661 4.75 12 4.75L13.1893 4.75L12.4697 5.46967L13.5303 6.53033L15.5303 4.53033C15.8232 4.23743 15.8232 3.76256 15.5303 3.46967L13.5303 1.46967L12.4697 2.53033Z" fill="#1B1B1B"/>
<path d="M8.46967 20.5303L10.4697 22.5303L11.5303 21.4697L10.8107 20.75H12C13.7306 20.75 15.4223 20.2368 16.8612 19.2754C18.3002 18.3139 19.4217 16.9473 20.084 15.3485C20.7462 13.7496 20.9195 11.9903 20.5819 10.293C20.2443 8.59562 19.4109 7.03652 18.1872 5.81281L17.1265 6.87347C18.1405 7.8874 18.831 9.17923 19.1107 10.5856C19.3904 11.992 19.2469 13.4497 18.6981 14.7745C18.1494 16.0992 17.2201 17.2315 16.0279 18.0282C14.8356 18.8248 13.4339 19.25 12 19.25H10.8107L11.5303 18.5303L10.4697 17.4697L8.46967 19.4697C8.17678 19.7626 8.17678 20.2374 8.46967 20.5303Z" fill="#1B1B1B"/>
</svg>
