<svg width="24" height="24" viewBox="0 0 24 24" fill="none" xmlns="http://www.w3.org/2000/svg">
<path fill-rule="evenodd" clip-rule="evenodd" d="M12.5331 3.2226C12.2365 2.9258 11.7556 2.9258 11.459 3.2226L5.74609 8.93934L6.80605 10L11.996 4.80652L17.1861 10L18.246 8.93934L12.5331 3.2226ZM11.4838 19.7061L11.4812 19.7087C11.4767 19.7132 11.4783 19.7114 11.4838 19.7061ZM6.81066 14L12.0003 19.1896L17.1899 14L18.2506 15.0607L12.5419 20.7693L12.5387 20.7725L12.5309 20.7802C12.525 20.7859 12.5109 20.7994 12.4922 20.8153C12.4555 20.8465 12.3679 20.9158 12.2351 20.959C12.0825 21.0086 11.918 21.0086 11.7654 20.959C11.6326 20.9158 11.5451 20.8465 11.5083 20.8153C11.4896 20.7994 11.4755 20.7859 11.4696 20.7802L11.4618 20.7725L11.4586 20.7693L5.75 15.0607L6.81066 14Z" fill="#1B1B1B"/>
</svg>
