<svg width="24" height="24" viewBox="0 0 24 24" fill="none" xmlns="http://www.w3.org/2000/svg">
<path fill-rule="evenodd" clip-rule="evenodd" d="M9.5 3.5V6H8V3.25C8 2.55964 8.55964 2 9.25 2H18.75C19.4404 2 20 2.55964 20 3.25V16.75C20 17.4404 19.4404 18 18.75 18H16V16.5H18.5V3.5H9.5Z" fill="#1F7560"/>
<path fill-rule="evenodd" clip-rule="evenodd" d="M14.5 7.5H5.5V20.5H14.5V7.5ZM5.5 6C4.67157 6 4 6.67157 4 7.5V20.5C4 21.3284 4.67157 22 5.5 22H14.5C15.3284 22 16 21.3284 16 20.5V7.5C16 6.67157 15.3284 6 14.5 6H5.5Z" fill="#1B1B1B"/>
</svg>
