<svg width="24" height="24" viewBox="0 0 24 24" fill="none" xmlns="http://www.w3.org/2000/svg">
<path fill-rule="evenodd" clip-rule="evenodd" d="M19.3872 13.303L17.9097 13.0442C17.9689 12.7061 18 12.3573 18 12C18 11.6427 17.9689 11.2939 17.9097 10.9558L19.3872 10.697C19.4613 11.1202 19.5 11.5556 19.5 12C19.5 12.4444 19.4613 12.8798 19.3872 13.303ZM19.0496 9.43414L17.6401 9.94728C17.3989 9.28468 17.0435 8.67549 16.5969 8.1438L17.7455 7.17903C18.3029 7.84262 18.7475 8.60418 19.0496 9.43414ZM16.821 6.25449L15.8562 7.40307C15.3245 6.95647 14.7153 6.60112 14.0527 6.35989L14.5659 4.95039C15.3958 5.25255 16.1574 5.6971 16.821 6.25449ZM13.303 4.61279L13.0442 6.09029C12.7061 6.03106 12.3573 6 12 6C11.6427 6 11.2939 6.03106 10.9558 6.09029L10.697 4.61279C11.1202 4.53866 11.5556 4.5 12 4.5C12.4444 4.5 12.8798 4.53866 13.303 4.61279ZM9.43414 4.95039L9.94728 6.35989C9.28468 6.60112 8.67549 6.95647 8.1438 7.40307L7.17903 6.25449C7.84262 5.6971 8.60418 5.25255 9.43414 4.95039ZM6.25449 7.17903L7.40307 8.1438C6.95647 8.67549 6.60112 9.28468 6.35989 9.94728L4.95039 9.43414C5.25255 8.60418 5.6971 7.84262 6.25449 7.17903ZM4.61279 10.697C4.53866 11.1202 4.5 11.5556 4.5 12C4.5 12.4444 4.53866 12.8798 4.61279 13.303L6.09029 13.0442C6.03106 12.7061 6 12.3573 6 12C6 11.6427 6.03106 11.2939 6.09029 10.9558L4.61279 10.697ZM4.95039 14.5659L6.35989 14.0527C6.60112 14.7153 6.95647 15.3245 7.40307 15.8562L6.25449 16.821C5.6971 16.1574 5.25255 15.3958 4.95039 14.5659ZM7.17903 17.7455L8.1438 16.5969C8.67549 17.0435 9.28468 17.3989 9.94728 17.6401L9.43414 19.0496C8.60418 18.7475 7.84262 18.3029 7.17903 17.7455ZM10.697 19.3872L10.9558 17.9097C11.2939 17.9689 11.6427 18 12 18C12.3573 18 12.7061 17.9689 13.0442 17.9097L13.303 19.3872C12.8798 19.4613 12.4444 19.5 12 19.5C11.5556 19.5 11.1202 19.4613 10.697 19.3872ZM14.5659 19.0496L14.0527 17.6401C14.7153 17.3989 15.3245 17.0435 15.8562 16.5969L16.821 17.7455C16.1574 18.3029 15.3958 18.7475 14.5659 19.0496ZM17.7455 16.821L16.5969 15.8562C17.0435 15.3245 17.3989 14.7153 17.6401 14.0527L19.0496 14.5659C18.7475 15.3958 18.3029 16.1574 17.7455 16.821Z" fill="#1F7560"/>
<path fill-rule="evenodd" clip-rule="evenodd" d="M20.5 12C20.5 16.6944 16.6944 20.5 12 20.5C7.30558 20.5 3.5 16.6944 3.5 12C3.5 7.30558 7.30558 3.5 12 3.5C16.6944 3.5 20.5 7.30558 20.5 12ZM22 12C22 17.5228 17.5228 22 12 22C6.47715 22 2 17.5228 2 12C2 6.47715 6.47715 2 12 2C17.5228 2 22 6.47715 22 12ZM12.7571 8.60352V7.5H11.2541V8.60352C10.0975 8.92998 9.25 9.99122 9.25 11.25V12.75C9.25 14.0088 10.0975 15.07 11.2541 15.3965V16.5H12.7571V15.3965C13.5002 15.1868 14.1156 14.6738 14.4608 14C14.4991 13.9252 14.5341 13.8484 14.5655 13.7699L13.233 13.0005C13.1167 13.5708 12.6114 14 12.0056 14C11.3138 14 10.7531 13.4404 10.7531 12.75V11.25C10.7531 10.5596 11.3138 10 12.0056 10C12.609 10 13.1127 10.4258 13.2316 10.9927L14.563 10.224C14.2472 9.44068 13.5805 8.83592 12.7571 8.60352Z" fill="#1B1B1B"/>
</svg>
