<svg width="24" height="24" viewBox="0 0 24 24" fill="none" xmlns="http://www.w3.org/2000/svg">
<path fill-rule="evenodd" clip-rule="evenodd" d="M21.9999 6.49999L22 10C20.8954 10 20 10.8954 20 12C20 13.1046 20.8954 14 22 14L22 17.5C22 18.3284 21.3284 19 20.5 19H3.5C2.67157 19 2 18.3284 2 17.5L2.00001 14C3.10458 14 4 13.1046 4 12C4 10.8954 3.10458 10 2.00003 10L2.00004 6.5C2.00004 5.67157 2.67162 5 3.50004 5H20.4999C21.3284 5 21.9999 5.67157 21.9999 6.49999ZM3.50004 6.5L20.4999 6.5L20.5 8.83684C19.3175 9.39858 18.5 10.6038 18.5 12C18.5 13.3962 19.3175 14.6014 20.5 15.1632L20.5 17.5H3.5L3.50001 15.1632C4.68248 14.6014 5.5 13.3962 5.5 12C5.5 10.6038 4.68249 9.39857 3.50003 8.83683L3.50004 6.5Z" fill="#1B1B1B"/>
<path d="M13.9697 8.96967L8.96967 13.9697L10.0303 15.0303L15.0303 10.0303L13.9697 8.96967Z" fill="#1F7560"/>
<path d="M11.25 10C11.25 10.6904 10.6904 11.25 10 11.25C9.30964 11.25 8.75 10.6904 8.75 10C8.75 9.30964 9.30964 8.75 10 8.75C10.6904 8.75 11.25 9.30964 11.25 10Z" fill="#1F7560"/>
<path d="M15.25 14C15.25 14.6904 14.6904 15.25 14 15.25C13.3096 15.25 12.75 14.6904 12.75 14C12.75 13.3096 13.3096 12.75 14 12.75C14.6904 12.75 15.25 13.3096 15.25 14Z" fill="#1F7560"/>
</svg>
