<svg width="24" height="24" viewBox="0 0 24 24" fill="none" xmlns="http://www.w3.org/2000/svg">
<path fill-rule="evenodd" clip-rule="evenodd" d="M20 20.5V8.25L13.75 2H5.5C4.67157 2 4 2.67157 4 3.5V20.5C4 21.3284 4.67157 22 5.5 22H18.5C19.3284 22 20 21.3284 20 20.5ZM13 3.5V9H18.5V20.5H5.5V3.5H13ZM17.1287 7.5L14.5 4.87132V7.5H17.1287Z" fill="#1B1B1B"/>
<path fill-rule="evenodd" clip-rule="evenodd" d="M15.566 18.8618L14.0224 18.5788L13.1674 19.8948L12 17.2132L10.8327 19.8948L9.97771 18.5788L8.43408 18.8619L9.5962 16.0439C8.92125 15.4058 8.5001 14.5021 8.5001 13.5C8.5001 11.567 10.0671 10 12.0001 10C13.9331 10 15.5001 11.567 15.5001 13.5C15.5001 14.5021 15.0789 15.4059 14.4039 16.044L15.566 18.8618ZM12.0001 15.5C13.1047 15.5 14.0001 14.6046 14.0001 13.5C14.0001 12.3954 13.1047 11.5 12.0001 11.5C10.8955 11.5 10.0001 12.3954 10.0001 13.5C10.0001 14.6046 10.8955 15.5 12.0001 15.5Z" fill="#1F7560"/>
</svg>
