<svg width="24" height="24" viewBox="0 0 24 24" fill="none" xmlns="http://www.w3.org/2000/svg">
<path fill-rule="evenodd" clip-rule="evenodd" d="M20 20.5V8.25L13.75 2H5.5C4.67157 2 4 2.67157 4 3.5V20.5C4 21.3284 4.67157 22 5.5 22H18.5C19.3284 22 20 21.3284 20 20.5ZM13 3.5V9H18.5V20.5H5.5V3.5H13ZM17.1287 7.5L14.5 4.87132V7.5H17.1287Z" fill="#1B1B1B"/>
<path fill-rule="evenodd" clip-rule="evenodd" d="M8 14V15.5H16V14H14.7L14.2568 11.7838C14.1275 11.1372 13.4187 10.7906 12.829 11.0855L12.4472 11.2764C12.1657 11.4171 11.8343 11.4171 11.5528 11.2764L11.171 11.0855C10.5813 10.7906 9.87255 11.1372 9.74323 11.7838L9.3 14H8ZM12.9122 12.7096L13.1703 14H10.8297L11.0878 12.7096C11.674 12.9394 12.326 12.9394 12.9122 12.7096Z" fill="#1F7560"/>
<path d="M11.5 17C11.5 17.5523 11.0523 18 10.5 18C9.94772 18 9.5 17.5523 9.5 17C9.5 16.4477 9.94772 16 10.5 16C11.0523 16 11.5 16.4477 11.5 17Z" fill="#1F7560"/>
<path d="M13.5 18C14.0523 18 14.5 17.5523 14.5 17C14.5 16.4477 14.0523 16 13.5 16C12.9477 16 12.5 16.4477 12.5 17C12.5 17.5523 12.9477 18 13.5 18Z" fill="#1F7560"/>
</svg>
