<svg width="24" height="24" viewBox="0 0 24 24" fill="none" xmlns="http://www.w3.org/2000/svg">
<path fill-rule="evenodd" clip-rule="evenodd" d="M12 22C17.5228 22 22 17.5228 22 12C22 6.47715 17.5228 2 12 2C6.47715 2 2 6.47715 2 12C2 17.5228 6.47715 22 12 22ZM12 20.5C16.5917 20.5 20.333 16.8592 20.4946 12.307C19.4953 12.5364 18.75 13.4311 18.75 14.5V15C18.75 17.0711 17.0711 18.75 15 18.75H14C13.5858 18.75 13.25 18.4142 13.25 18V14.75H13C11.4812 14.75 10.25 13.5188 10.25 12C10.25 10.4812 11.4812 9.25 13 9.25H17C17.1381 9.25 17.25 9.13807 17.25 9C17.25 8.86193 17.1381 8.75 17 8.75H12.5C12.0858 8.75 11.75 8.41421 11.75 8V6C11.75 5.58579 12.0858 5.25 12.5 5.25H13.75V3.68034C13.1852 3.56214 12.5999 3.5 12 3.5C9.52304 3.5 7.29353 4.55949 5.73994 6.25H7C7.41421 6.25 7.75 6.58579 7.75 7V10C7.75 11.5188 6.51878 12.75 5 12.75H4.5C4.08579 12.75 3.75 13.0858 3.75 13.5C3.75 13.9142 4.08579 14.25 4.5 14.25H8C8.41421 14.25 8.75 14.5858 8.75 15V19.8565C9.75122 20.2712 10.8489 20.5 12 20.5ZM7.25 19.05V15.75H4.5C4.45567 15.75 4.41163 15.7487 4.36793 15.7462C5.02545 17.0832 6.02396 18.2223 7.25 19.05ZM3.51588 11.4761C3.81315 11.3313 4.14709 11.25 4.5 11.25H5C5.69036 11.25 6.25 10.6904 6.25 10V7.75H4.63715C3.99611 8.85816 3.59807 10.1245 3.51588 11.4761ZM17.25 14.5C17.25 12.6278 18.6219 11.0761 20.4153 10.7953C19.9874 7.77913 17.9762 5.27246 15.25 4.14345V6C15.25 6.41421 14.9142 6.75 14.5 6.75H13.25V7.25H17C17.9665 7.25 18.75 8.0335 18.75 9C18.75 9.9665 17.9665 10.75 17 10.75H13C12.3096 10.75 11.75 11.3096 11.75 12C11.75 12.6904 12.3096 13.25 13 13.25H13.25C14.0784 13.25 14.75 13.9216 14.75 14.75V17.25H15C16.2426 17.25 17.25 16.2426 17.25 15V14.5Z" fill="#1B1B1B"/>
</svg>
