<svg width="24" height="24" viewBox="0 0 24 24" fill="none" xmlns="http://www.w3.org/2000/svg">
<path fill-rule="evenodd" clip-rule="evenodd" d="M18.5 19H20V2H7C5.34315 2 4 3.34315 4 5V19.7499C4 20.9926 5.00736 21.9999 6.25 21.9999H18.5V19ZM18.5 3.5V17.4999H6.25C5.98702 17.4999 5.73458 17.5451 5.5 17.628V5C5.5 4.17157 6.17157 3.5 7 3.5H18.5ZM5.68868 19.2525C5.82607 19.0976 6.0266 19 6.24994 19H17V20.4999H6.25C5.83579 20.4999 5.5 20.1642 5.5 19.7499C5.5 19.5591 5.57129 19.3849 5.68868 19.2525Z" fill="#1B1B1B"/>
<path d="M8.5 7.99994H15.5V6.49994H8.5V7.99994Z" fill="#1F7560"/>
<path d="M8.5 10.9999H14V9.49994H8.5V10.9999Z" fill="#1F7560"/>
</svg>
