<svg width="24" height="24" viewBox="0 0 24 24" fill="none" xmlns="http://www.w3.org/2000/svg">
<path d="M13 22C8.66536 22 5.13591 18.5526 5.00383 14.25H3.5V12.75H5V11.25H3.5V9.75H5.00383C5.13591 5.4474 8.66536 2 13 2C16.132 2 18.8436 3.79978 20.157 6.42151L18.815 7.09248C17.7479 4.96232 15.5447 3.5 13 3.5C9.49386 3.5 6.63609 6.27601 6.50472 9.75H15.5V11.25H6.5V12.75H15.5V14.25H6.50472C6.63609 17.724 9.49386 20.5 13 20.5C15.5447 20.5 17.7479 19.0377 18.815 16.9075L20.157 17.5785C18.8436 20.2002 16.132 22 13 22Z" fill="#1B1B1B"/>
</svg>
