<svg width="24" height="24" viewBox="0 0 24 24" fill="none" xmlns="http://www.w3.org/2000/svg">
<path fill-rule="evenodd" clip-rule="evenodd" d="M12 5C16.843 5 21.016 7.86896 22.912 12C21.0159 16.1311 16.843 19 12.0001 19C7.15706 19 2.98414 16.131 1.08813 12C2.98416 7.86892 7.15706 5 12 5ZM12.0001 17.5C8.01348 17.5 4.54302 15.2782 2.76431 12C4.54303 8.72175 8.01347 6.5 12 6.5C15.9866 6.5 19.4571 8.72178 21.2358 12C19.4571 15.2783 15.9866 17.5 12.0001 17.5Z" fill="#1B1B1B"/>
<path fill-rule="evenodd" clip-rule="evenodd" d="M16 12C16 14.2091 14.2091 16 12 16C9.79086 16 8 14.2091 8 12C8 9.79086 9.79086 8 12 8C14.2091 8 16 9.79086 16 12ZM14.5 12C14.5 13.3807 13.3807 14.5 12 14.5C10.6193 14.5 9.5 13.3807 9.5 12C9.5 10.6193 10.6193 9.5 12 9.5C13.3807 9.5 14.5 10.6193 14.5 12Z" fill="#1F7560"/>
</svg>
