<svg width="24" height="24" viewBox="0 0 24 24" fill="none" xmlns="http://www.w3.org/2000/svg">
<path d="M11.75 11.5V8.50001H13.25V11.5C13.25 13.0188 12.0188 14.25 10.5 14.25L10.5 12.75C11.1904 12.75 11.75 12.1904 11.75 11.5Z" fill="#1B1B1B"/>
<path d="M15.25 8.5V11.5H16.75V8.5H15.25Z" fill="#1B1B1B"/>
<path d="M7.75 11.5V8.5H9.25V11.5H7.75Z" fill="#1B1B1B"/>
<path d="M8.46967 16.0303C10.4194 17.9801 13.5806 17.9801 15.5303 16.0303L14.4697 14.9697C13.1057 16.3336 10.8943 16.3336 9.53033 14.9697L8.46967 16.0303Z" fill="#1B1B1B"/>
<path d="M4.5 3H8V4.5H4.5L4.5 8H3V4.5C3 3.67157 3.67157 3 4.5 3Z" fill="#1F7560"/>
<path d="M3 16V19.5C3 20.3284 3.67157 21 4.5 21H8V19.5H4.5L4.5 16H3Z" fill="#1F7560"/>
<path d="M19.5 16V19.5H16V21H19.5C20.3284 21 21 20.3284 21 19.5V16H19.5Z" fill="#1F7560"/>
<path d="M21 8V4.5C21 3.67157 20.3284 3 19.5 3H16V4.5H19.5V8H21Z" fill="#1F7560"/>
</svg>
