<svg width="24" height="24" viewBox="0 0 24 24" fill="none" xmlns="http://www.w3.org/2000/svg">
<path d="M17.0002 12C17.0002 12.5476 16.9122 13.0746 16.7495 13.5676L15.4871 12.3052C15.4957 12.2046 15.5002 12.1028 15.5002 12C15.5002 10.067 13.9332 8.5 12.0002 8.5C11.8974 8.5 11.7956 8.50443 11.695 8.51312L10.4325 7.25068C10.9256 7.08802 11.4526 7 12.0002 7C14.7616 7 17.0002 9.23858 17.0002 12Z" fill="#1B1B1B"/>
<path d="M8.50018 12C8.50018 11.8974 8.5046 11.7958 8.51326 11.6954L7.25071 10.4328C7.08815 10.9258 7.00018 11.4526 7.00018 12C7.00018 14.7614 9.23876 17 12.0002 17C12.5476 17 13.0744 16.912 13.5674 16.7495L12.3048 15.4869C12.2044 15.4956 12.1028 15.5 12.0002 15.5C10.0672 15.5 8.50018 13.933 8.50018 12Z" fill="#1B1B1B"/>
<path fill-rule="evenodd" clip-rule="evenodd" d="M11.2499 5.00012V2.00012H12.7499V5.00012H11.2499ZM7.58057 17.4802L6.51991 16.4196L4.39859 18.5409L5.45925 19.6016L7.58057 17.4802ZM19.6013 5.45934L18.5406 4.39868L16.4193 6.52L17.48 7.58066L19.6013 5.45934ZM11.25 19.0001V22.0001H12.75V19.0001H11.25ZM1.99994 11.2502H4.99994V12.7502H1.99994V11.2502ZM18.9999 11.2501H21.9999V12.7501H18.9999V11.2501ZM18.5407 19.6015L4.39856 5.45934L5.45922 4.39868L19.6014 18.5408L18.5407 19.6015Z" fill="#1F7560"/>
</svg>
