<svg width="24" height="24" viewBox="0 0 24 24" fill="none" xmlns="http://www.w3.org/2000/svg">
<g clip-path="url(#clip0_831_97)">
<path fill-rule="evenodd" clip-rule="evenodd" d="M16.7124 3.39856C17.7863 2.32462 19.5275 2.32462 20.6015 3.39856C21.6754 4.4725 21.6754 6.21371 20.6015 7.28765L17.3937 10.4954L19.8686 17.92L17.1616 20.627L12.9189 14.9702L10.3226 17.5665L11.0297 19.6878L8.75744 21.9601L2.03993 15.2426L4.31224 12.9703L6.43356 13.6774L9.02985 11.0811L3.373 6.83847L6.08 4.13146L13.5046 6.60634L16.7124 3.39856ZM19.5408 4.45922C19.0527 3.97107 18.2612 3.97107 17.7731 4.45922L13.9098 8.32252L6.48514 5.84765L5.65661 6.67617L11.3135 10.9188L6.83869 15.3936L4.71737 14.6865L4.16125 15.2426L8.75744 19.8388L9.31357 19.2827L8.60646 17.1614L13.0812 12.6866L17.3239 18.3434L18.1524 17.5149L15.6775 10.0903L19.5408 6.22699C20.029 5.73884 20.029 4.94738 19.5408 4.45922Z" fill="#1B1B1B"/>
</g>
<defs>
<clipPath id="clip0_831_97">
<rect width="24" height="24" fill="white"/>
</clipPath>
</defs>
</svg>
