<svg width="24" height="24" viewBox="0 0 24 24" fill="none" xmlns="http://www.w3.org/2000/svg">
<path d="M7 9.00001H8.31067L9.5 10.1893L10.6893 9.00001H12V15H10.5V11.3107L9.5 12.3107L8.5 11.3107V15H7V9.00001Z" fill="#1B1B1B"/>
<path d="M13.5 9V15H15V13H17V11.5H15V10.5H17.5V9H13.5Z" fill="#1B1B1B"/>
<path d="M8 3H4.5C3.67157 3 3 3.67157 3 4.5V8H4.5L4.5 4.5H8V3Z" fill="#1F7560"/>
<path d="M3 19.5V16H4.5L4.5 19.5H8V21H4.5C3.67157 21 3 20.3284 3 19.5Z" fill="#1F7560"/>
<path d="M19.5 19.5V16H21V19.5C21 20.3284 20.3284 21 19.5 21H16V19.5H19.5Z" fill="#1F7560"/>
<path d="M21 4.5V8H19.5V4.5H16V3H19.5C20.3284 3 21 3.67157 21 4.5Z" fill="#1F7560"/>
</svg>
