<svg width="24" height="24" viewBox="0 0 24 24" fill="none" xmlns="http://www.w3.org/2000/svg">
<path fill-rule="evenodd" clip-rule="evenodd" d="M13 3C12.1716 3 11.5 3.67157 11.5 4.5V6.57295L10.0792 9.41459C10.0271 9.51873 10 9.63357 10 9.75V11.416C9.60708 11.2444 9.18784 11.1217 8.75 11.0559V10.25C8.75 9.00736 7.74264 8 6.5 8H4.25V10.25C4.25 10.9378 4.55863 11.5535 5.04495 11.9663C3.80497 12.8762 3 14.3441 3 16C3 18.7614 5.23858 21 8 21C8.83829 21 9.62839 20.7937 10.3223 20.4291C10.597 20.7768 11.0225 21 11.5 21H19.5C20.3284 21 21 20.3284 21 19.5V9.92705C21 9.69418 20.9458 9.46451 20.8416 9.25623L19.5 6.57295V4.5C19.5 3.67157 18.8284 3 18 3H13ZM8 12.5C6.067 12.5 4.5 14.067 4.5 16C4.5 17.933 6.067 19.5 8 19.5C9.933 19.5 11.5 17.933 11.5 16C11.5 14.067 9.933 12.5 8 12.5ZM13 16C13 14.6013 12.4257 13.3367 11.5 12.4293V10.5H16.5V19.5H11.5707C12.4548 18.5981 13 17.3627 13 16ZM11.9635 9L12.7135 7.5H17.5365L16.7865 9H11.9635ZM18 9.92705L18.75 8.42705L19.5 9.92705V19.5H18V9.92705ZM13 6H18V4.5H13V6ZM5.75 10.25V9.5H6.5C6.91421 9.5 7.25 9.83579 7.25 10.25V11H6.5C6.08579 11 5.75 10.6642 5.75 10.25Z" fill="#1B1B1B"/>
</svg>
