<svg width="24" height="24" viewBox="0 0 24 24" fill="none" xmlns="http://www.w3.org/2000/svg">
<path d="M18.5 3.5H5.5V20.5H13V22H5.5C4.67157 22 4 21.3284 4 20.5V3.5C4 2.67157 4.67157 2 5.5 2H18.5C19.3284 2 20 2.67157 20 3.5V14H18.5V3.5Z" fill="#1B1B1B"/>
<path d="M17.5 17.9097L19.4697 15.94L20.5303 17.0007L18.5607 18.9703L20.5303 20.94L19.4697 22.0007L17.5 20.031L15.5303 22.0007L14.4697 20.94L16.4393 18.9703L14.4697 17.0007L15.5303 15.94L17.5 17.9097Z" fill="#1F7560"/>
<path d="M8.5 7.99994H15.5V6.49994H8.5V7.99994Z" fill="#1F7560"/>
<path d="M8.5 10.9999H14V9.49994H8.5V10.9999Z" fill="#1F7560"/>
</svg>
