<svg width="24" height="24" viewBox="0 0 24 24" fill="none" xmlns="http://www.w3.org/2000/svg">
<path d="M5.5 3.5H18.5V10H20V3.5C20 2.67157 19.3284 2 18.5 2H5.5C4.67157 2 4 2.67157 4 3.5V20.5C4 21.3284 4.67157 22 5.5 22H10V20.5H5.5V3.5Z" fill="#1B1B1B"/>
<path fill-rule="evenodd" clip-rule="evenodd" d="M19.25 11.6893L12 18.9393V22H15.0607L22.3107 14.75L19.25 11.6893ZM13.8107 19.25L19.25 13.8107L20.1893 14.75L14.75 20.1893L13.8107 19.25Z" fill="#1F7560"/>
<path d="M11.25 8C11.25 8.69036 10.6904 9.25 10 9.25C9.30964 9.25 8.75 8.69036 8.75 8C8.75 7.30964 9.30964 6.75 10 6.75C10.6904 6.75 11.25 7.30964 11.25 8Z" fill="#1F7560"/>
<path d="M13.9697 6.96967L8.96967 11.9697L10.0303 13.0303L15.0303 8.03033L13.9697 6.96967Z" fill="#1F7560"/>
<path d="M15.25 12C15.25 12.6904 14.6904 13.25 14 13.25C13.3096 13.25 12.75 12.6904 12.75 12C12.75 11.3096 13.3096 10.75 14 10.75C14.6904 10.75 15.25 11.3096 15.25 12Z" fill="#1F7560"/>
</svg>
