<svg width="24" height="24" viewBox="0 0 24 24" fill="none" xmlns="http://www.w3.org/2000/svg">
<path d="M5.5 3.5H18.5V10H20V3.5C20 2.67157 19.3284 2 18.5 2H5.5C4.67157 2 4 2.67157 4 3.5V20.5C4 21.3284 4.67157 22 5.5 22H10V20.5H5.5V3.5Z" fill="#1B1B1B"/>
<path fill-rule="evenodd" clip-rule="evenodd" d="M19.25 11.6893L12 18.9393V22H15.0607L22.3107 14.75L19.25 11.6893ZM13.8107 19.25L19.25 13.8107L20.1893 14.75L14.75 20.1893L13.8107 19.25Z" fill="#1F7560"/>
<path d="M12 9C12.8284 9 13.5 8.32843 13.5 7.5C13.5 6.67157 12.8284 6 12 6C11.1716 6 10.5 6.67157 10.5 7.5C10.5 8.32843 11.1716 9 12 9Z" fill="#1F7560"/>
<path d="M9 12.4C9 10.7431 10.3431 9.39999 12 9.39999C13.6569 9.39999 15 10.7431 15 12.4H9Z" fill="#1F7560"/>
</svg>
