<svg width="24" height="24" viewBox="0 0 24 24" fill="none" xmlns="http://www.w3.org/2000/svg">
<path d="M12 20.5C16.6944 20.5 20.5 16.6944 20.5 12C20.5 10.4699 20.0957 9.03417 19.3881 7.79391L20.4817 6.70026C21.4438 8.23678 22 10.0534 22 12C22 17.5228 17.5228 22 12 22C6.47715 22 2 17.5228 2 12C2 6.47715 6.47715 2 12 2C13.9466 2 15.7632 2.55618 17.2997 3.51828L16.2061 4.61193C14.9658 3.90431 13.5301 3.5 12 3.5C7.30558 3.5 3.5 7.30558 3.5 12C3.5 16.6944 7.30558 20.5 12 20.5Z" fill="#1B1B1B"/>
<path d="M14.3432 6.4748C13.6233 6.16911 12.8314 6 12 6C8.68629 6 6 8.68629 6 12C6 15.3137 8.68629 18 12 18C15.3137 18 18 15.3137 18 12C18 11.1686 17.8309 10.3767 17.5252 9.65678L16.3476 10.8344C16.447 11.2062 16.5 11.5969 16.5 12C16.5 14.4853 14.4853 16.5 12 16.5C9.51472 16.5 7.5 14.4853 7.5 12C7.5 9.51472 9.51472 7.5 12 7.5C12.4031 7.5 12.7938 7.553 13.1656 7.65242L14.3432 6.4748Z" fill="#1B1B1B"/>
<path d="M14 12C14 13.1046 13.1046 14 12 14C10.8954 14 10 13.1046 10 12C10 10.8954 10.8954 10 12 10C12.2771 10 12.5411 10.0564 12.7811 10.1583L18.25 4.68934V3H19.75V4.25H21V5.75H19.3107L13.8417 11.2189C13.9436 11.4589 14 11.7229 14 12Z" fill="#1F7560"/>
</svg>
