<svg width="24" height="24" viewBox="0 0 24 24" fill="none" xmlns="http://www.w3.org/2000/svg">
<path fill-rule="evenodd" clip-rule="evenodd" d="M6 9H4.5C3.67157 9 3 9.67157 3 10.5V17.5C3 18.3284 3.67157 19 4.5 19H6V21H7.5V19H16.5V21H18V19H19.5C20.3284 19 21 18.3284 21 17.5V10.5C21 9.67157 20.3284 9 19.5 9H18V4.5C18 3.67157 17.3284 3 16.5 3H7.5C6.67157 3 6 3.67157 6 4.5V9ZM7.5 4.5L16.5 4.5V9C15.6716 9 15 9.67157 15 10.5V13H9V10.5C9 9.67157 8.32843 9 7.5 9V4.5ZM7.5 14.5H16.5V10.5H19.5V17.5H4.5L4.5 10.5H7.5V14.5Z" fill="#1B1B1B"/>
</svg>
