<svg width="24" height="24" viewBox="0 0 24 24" fill="none" xmlns="http://www.w3.org/2000/svg">
<path d="M5 8.5H17V7H5V8.5Z" fill="#1B1B1B"/>
<path d="M14.5 11.5H5V10H14.5V11.5Z" fill="#1B1B1B"/>
<path fill-rule="evenodd" clip-rule="evenodd" d="M3.5 4C2.67157 4 2 4.67157 2 5.5V17.5C2 18.3284 2.67157 19 3.5 19H20.5C21.3284 19 22 18.3284 22 17.5V5.5C22 4.67157 21.3284 4 20.5 4H3.5ZM20.5 5.5H3.5L3.5 17.5H20.5V5.5Z" fill="#1B1B1B"/>
<path d="M13 13H19V16H13V13Z" fill="#1F7560"/>
<path d="M8.5 15.25H11.5V13.75H8.5V15.25Z" fill="#1F7560"/>
</svg>
