<svg width="24" height="24" viewBox="0 0 24 24" fill="none" xmlns="http://www.w3.org/2000/svg">
<path d="M3.81066 12.75L6.53033 15.4697L5.46967 16.5303L1.46967 12.5303C1.32902 12.3897 1.25 12.1989 1.25 12C1.25 11.8011 1.32902 11.6103 1.46967 11.4697L5.46967 7.46967L6.53033 8.53033L3.81066 11.25L9.75 11.25V12.75H3.81066Z" fill="#1B1B1B"/>
<path d="M20.1893 11.25L17.4697 8.53033L18.5303 7.46968L22.5303 11.4697C22.671 11.6103 22.75 11.8011 22.75 12C22.75 12.1989 22.671 12.3897 22.5303 12.5303L18.5303 16.5303L17.4697 15.4697L20.1893 12.75H14.25V11.25L20.1893 11.25Z" fill="#1B1B1B"/>
<path d="M11.25 4V20H12.75V4H11.25Z" fill="#1F7560"/>
</svg>
