<svg width="24" height="24" viewBox="0 0 24 24" fill="none" xmlns="http://www.w3.org/2000/svg">
<path fill-rule="evenodd" clip-rule="evenodd" d="M8.5 12.5V11H7V12.5H5.5V8.25C5.5 7.00736 6.50736 6 7.75 6C8.99264 6 10 7.00736 10 8.25V12.5H8.5ZM8.5 8.25V9.5H7V8.25C7 7.83579 7.33579 7.5 7.75 7.5C8.16421 7.5 8.5 7.83579 8.5 8.25Z" fill="#1B1B1B"/>
<path d="M17 11.9999V11H15.5V11.9999H14V13.4999L17 13.4999C17 14.2607 16.7168 14.9554 16.25 15.4843C15.9984 15.1992 15.8 14.8658 15.6707 14.4999H14.1115C14.2661 15.1813 14.5754 15.804 15.0004 16.3291C14.6875 16.4397 14.3508 16.4999 14 16.4999V17.9999C14.8197 17.9999 15.5881 17.7808 16.25 17.3979C16.9119 17.7808 17.6804 17.9999 18.5 17.9999V16.4999C18.1492 16.4999 17.8125 16.4397 17.4996 16.3291C18.1252 15.5561 18.5 14.5718 18.5 13.4999V11.9999H17Z" fill="#1B1B1B"/>
<path fill-rule="evenodd" clip-rule="evenodd" d="M12 3H3.5C2.67157 3 2 3.67157 2 4.5V14.5C2 15.3284 2.67157 16 3.5 16H12C12.8284 16 13.5 15.3284 13.5 14.5V4.5C13.5 3.67157 12.8284 3 12 3ZM3.5 4.5H12V14.5H3.5V4.5Z" fill="#1F7560"/>
<path d="M15 8V9.5H20.5V19.5H12V17.5H10.5V19.5C10.5 20.3284 11.1716 21 12 21H20.5C21.3284 21 22 20.3284 22 19.5V9.5C22 8.67157 21.3284 8 20.5 8H15Z" fill="#1F7560"/>
</svg>
