<svg width="24" height="24" viewBox="0 0 24 24" fill="none" xmlns="http://www.w3.org/2000/svg">
<path fill-rule="evenodd" clip-rule="evenodd" d="M12 20.5C15.63 20.5 18.5 17.6498 18.5 14.2222C18.5 13.273 18.1265 12.1133 17.4298 10.8214C16.744 9.54982 15.8108 8.2701 14.8471 7.1124C13.8876 5.95968 12.9239 4.95869 12.198 4.24464C12.1298 4.17747 12.0637 4.11293 12 4.05112C11.9363 4.11293 11.8702 4.17747 11.802 4.24464C11.0761 4.95869 10.1124 5.95968 9.15288 7.1124C8.18924 8.2701 7.25603 9.54982 6.57023 10.8214C5.87349 12.1133 5.5 13.273 5.5 14.2222C5.5 17.6498 8.37004 20.5 12 20.5ZM12 22C16.4183 22 20 18.5178 20 14.2222C20 9 12 2 12 2C12 2 4 9 4 14.2222C4 18.5178 7.58172 22 12 22Z" fill="#1B1B1B"/>
</svg>
