<svg width="24" height="24" viewBox="0 0 24 24" fill="none" xmlns="http://www.w3.org/2000/svg">
<path fill-rule="evenodd" clip-rule="evenodd" d="M5.5 2C4.67157 2 4 2.67157 4 3.5V20.5C4 21.3284 4.67157 22 5.5 22H18.5C19.3284 22 20 21.3284 20 20.5V3.5C20 2.67157 19.3284 2 18.5 2H5.5ZM18.5 3.5H5.5V20.5H18.5V3.5Z" fill="#1B1B1B"/>
<path d="M16.5 8.75H10.5V7.25H16.5V8.75Z" fill="#1F7560"/>
<path d="M8.5 9C9.05228 9 9.5 8.55228 9.5 8C9.5 7.44772 9.05228 7 8.5 7C7.94772 7 7.5 7.44772 7.5 8C7.5 8.55228 7.94772 9 8.5 9Z" fill="#1F7560"/>
<path d="M16.5 12.75H10.5V11.25H16.5V12.75Z" fill="#1F7560"/>
<path d="M8.5 13C9.05228 13 9.5 12.5523 9.5 12C9.5 11.4477 9.05228 11 8.5 11C7.94772 11 7.5 11.4477 7.5 12C7.5 12.5523 7.94772 13 8.5 13Z" fill="#1F7560"/>
<path d="M16.5 16.75H10.5V15.25H16.5V16.75Z" fill="#1F7560"/>
<path d="M8.5 17C9.05228 17 9.5 16.5523 9.5 16C9.5 15.4477 9.05228 15 8.5 15C7.94772 15 7.5 15.4477 7.5 16C7.5 16.5523 7.94772 17 8.5 17Z" fill="#1F7560"/>
</svg>
