<svg width="24" height="24" viewBox="0 0 24 24" fill="none" xmlns="http://www.w3.org/2000/svg">
<path d="M16.5303 12.5303C16.8232 12.2374 16.8232 11.7626 16.5303 11.4697L12.5303 7.46967L11.4697 8.53033L14.1893 11.25H3V12.75H14.1893L11.4697 15.4697L12.5303 16.5303L16.5303 12.5303Z" fill="#1F7560"/>
<path d="M8.5 4.5H19.5V19.5H8.5V15H7V19.5C7 20.3284 7.67157 21 8.5 21H19.5C20.3284 21 21 20.3284 21 19.5V4.5C21 3.67157 20.3284 3 19.5 3H8.5C7.67157 3 7 3.67157 7 4.5V9H8.5V4.5Z" fill="#1B1B1B"/>
</svg>
