<svg width="24" height="24" viewBox="0 0 24 24" fill="none" xmlns="http://www.w3.org/2000/svg">
<path fill-rule="evenodd" clip-rule="evenodd" d="M6.5 7.5H5V18.5H6.5V7.5ZM19 7.5H17.5V18.5H19V7.5Z" fill="#1F7560"/>
<path fill-rule="evenodd" clip-rule="evenodd" d="M8.5 6V4.5C8.5 3.67157 9.17157 3 10 3H14C14.8284 3 15.5 3.67157 15.5 4.5V6H20.5C21.3284 6 22 6.67157 22 7.5V18.5C22 19.3284 21.3284 20 20.5 20H3.5C2.67157 20 2 19.3284 2 18.5V7.5C2 6.67157 2.67157 6 3.5 6H8.5ZM10 4.5H14V6H10V4.5ZM6.5 18.5H17.5H19H20.5V7.5H19H17.5H6.5H5H3.5L3.5 18.5H5H6.5Z" fill="#1B1B1B"/>
</svg>
