<svg width="24" height="24" viewBox="0 0 24 24" fill="none" xmlns="http://www.w3.org/2000/svg">
<path d="M14.25 10.067C14.5833 10.2594 14.5833 10.7406 14.25 10.933L11.25 12.6651C10.9167 12.8575 10.5 12.617 10.5 12.2321V8.76796C10.5 8.38306 10.9167 8.1425 11.25 8.33495L14.25 10.067Z" fill="#1F7560"/>
<path fill-rule="evenodd" clip-rule="evenodd" d="M21 15.5V5.5C21 4.67157 20.3284 4 19.5 4H4.5C3.67157 4 3 4.67157 3 5.5V15.5L1.5 15.5V18.5C1.5 19.3284 2.17157 20 3 20H21C21.8284 20 22.5 19.3284 22.5 18.5V15.5L21 15.5ZM4.5 5.5V15.5H19.5V5.5L4.5 5.5ZM3 17V18.5H21V17H3Z" fill="#1B1B1B"/>
</svg>
