<svg width="24" height="24" viewBox="0 0 24 24" fill="none" xmlns="http://www.w3.org/2000/svg">
<path d="M4 7C4.55228 7 5 6.55228 5 6C5 5.44772 4.55228 5 4 5C3.44772 5 3 5.44772 3 6C3 6.55228 3.44772 7 4 7Z" fill="#1F7560"/>
<path d="M5 12C5 12.5523 4.55228 13 4 13C3.44772 13 3 12.5523 3 12C3 11.4477 3.44772 11 4 11C4.55228 11 5 11.4477 5 12Z" fill="#1F7560"/>
<path d="M4 19C4.55228 19 5 18.5523 5 18C5 17.4477 4.55228 17 4 17C3.44772 17 3 17.4477 3 18C3 18.5523 3.44772 19 4 19Z" fill="#1F7560"/>
<path d="M21 5.25H8V6.75H21V5.25Z" fill="#1B1B1B"/>
<path d="M21 11.25H8V12.75H21V11.25Z" fill="#1B1B1B"/>
<path d="M8 17.25H21V18.75H8V17.25Z" fill="#1B1B1B"/>
</svg>
