<svg width="24" height="24" viewBox="0 0 24 24" fill="none" xmlns="http://www.w3.org/2000/svg">
<path fill-rule="evenodd" clip-rule="evenodd" d="M14.4999 13C12.2907 13 10.4999 14.7909 10.4999 17C10.4999 19.2091 12.2907 21 14.4999 21C16.709 21 18.4999 19.2091 18.4999 17C18.4999 14.7909 16.709 13 14.4999 13ZM11.9999 17C11.9999 18.3807 13.1192 19.5 14.4999 19.5C15.8806 19.5 16.9999 18.3807 16.9999 17C16.9999 15.6193 15.8806 14.5 14.4999 14.5C13.1192 14.5 11.9999 15.6193 11.9999 17Z" fill="#1F7560"/>
<path fill-rule="evenodd" clip-rule="evenodd" d="M14.4999 3C13.6715 3 12.9999 3.67157 12.9999 4.5V9.5C12.9999 10.3284 13.6715 11 14.4999 11H19.4999C20.3283 11 20.9999 10.3284 20.9999 9.5V4.5C20.9999 3.67157 20.3283 3 19.4999 3H14.4999ZM19.4999 4.5H14.4999V9.5H19.4999V4.5Z" fill="#1B1B1B"/>
<path fill-rule="evenodd" clip-rule="evenodd" d="M7.79892 15.75C7.22157 16.75 5.77819 16.75 5.20084 15.75L2.16975 10.5C1.5924 9.5 2.31409 8.25 3.46879 8.25L9.53097 8.25C10.6857 8.25 11.4074 9.5 10.83 10.5L7.79892 15.75ZM6.49988 15L3.46879 9.75L9.53097 9.75L6.49988 15Z" fill="#1B1B1B"/>
</svg>
