<svg width="24" height="24" viewBox="0 0 24 24" fill="none" xmlns="http://www.w3.org/2000/svg">
<path fill-rule="evenodd" clip-rule="evenodd" d="M16 21C18.2091 21 20 19.2091 20 17C20 14.7909 18.2091 13 16 13C16 10.7909 14.2091 9 12 9C9.79086 9 8 10.7909 8 13C5.79086 13 4 14.7909 4 17C4 19.2091 5.79086 21 8 21H16ZM8 14.5H9.5V13C9.5 11.6193 10.6193 10.5 12 10.5C13.3807 10.5 14.5 11.6193 14.5 13V14.5H16C17.3807 14.5 18.5 15.6193 18.5 17C18.5 18.3807 17.3807 19.5 16 19.5H8C6.61929 19.5 5.5 18.3807 5.5 17C5.5 15.6193 6.61929 14.5 8 14.5Z" fill="#1B1B1B"/>
<path fill-rule="evenodd" clip-rule="evenodd" d="M4.5 8C4.95643 8 5.38429 8.12232 5.75259 8.33596C6.13011 8.55495 6.44505 8.86989 6.66404 9.24741C6.87768 9.61571 7 10.0436 7 10.5C7 11.8807 5.88071 13 4.5 13C3.11929 13 2 11.8807 2 10.5C2 9.11929 3.11929 8 4.5 8ZM5.5 10.5C5.5 11.0523 5.05228 11.5 4.5 11.5C3.94772 11.5 3.5 11.0523 3.5 10.5C3.5 9.94772 3.94772 9.5 4.5 9.5C5.05228 9.5 5.5 9.94772 5.5 10.5Z" fill="#1F7560"/>
<path fill-rule="evenodd" clip-rule="evenodd" d="M9 3.5C9.94087 3.5 10.7603 4.01975 11.187 4.7878C11.3864 5.14685 11.5 5.56016 11.5 6C11.5 6.43984 11.3864 6.85315 11.187 7.2122C10.7603 7.98025 9.94087 8.5 9 8.5C8.54357 8.5 8.11571 8.37768 7.74741 8.16404C7.36989 7.94505 7.05495 7.63011 6.83596 7.25259C6.62232 6.88429 6.5 6.45643 6.5 6C6.5 4.61929 7.61929 3.5 9 3.5ZM10 6C10 6.55228 9.55228 7 9 7C8.44772 7 8 6.55228 8 6C8 5.44772 8.44772 5 9 5C9.55228 5 10 5.44772 10 6Z" fill="#1F7560"/>
<path fill-rule="evenodd" clip-rule="evenodd" d="M12.5 6C12.5 5.56016 12.6136 5.14685 12.813 4.7878C13.2397 4.01975 14.0591 3.5 15 3.5C16.3807 3.5 17.5 4.61929 17.5 6C17.5 6.45643 17.3777 6.88429 17.164 7.25259C16.9451 7.63011 16.6301 7.94505 16.2526 8.16404C15.8843 8.37768 15.4564 8.5 15 8.5C14.0591 8.5 13.2397 7.98025 12.813 7.2122C12.6136 6.85315 12.5 6.43984 12.5 6ZM16 6C16 6.55228 15.5523 7 15 7C14.4477 7 14 6.55228 14 6C14 5.44772 14.4477 5 15 5C15.5523 5 16 5.44772 16 6Z" fill="#1F7560"/>
<path fill-rule="evenodd" clip-rule="evenodd" d="M17.336 9.24741C17.5549 8.86989 17.8699 8.55495 18.2474 8.33596C18.6157 8.12232 19.0436 8 19.5 8C20.8807 8 22 9.11929 22 10.5C22 11.8807 20.8807 13 19.5 13C18.1193 13 17 11.8807 17 10.5C17 10.0436 17.1223 9.61571 17.336 9.24741ZM20.5 10.5C20.5 11.0523 20.0523 11.5 19.5 11.5C18.9477 11.5 18.5 11.0523 18.5 10.5C18.5 9.94771 18.9477 9.5 19.5 9.5C20.0523 9.5 20.5 9.94771 20.5 10.5Z" fill="#1F7560"/>
</svg>
