<svg width="24" height="24" viewBox="0 0 24 24" fill="none" xmlns="http://www.w3.org/2000/svg">
<path d="M3.50007 7.50006H15.0001V6.00006H3.50007C2.67164 6.00006 2.00007 6.67163 2.00007 7.50006V16.5001C2.00007 17.3285 2.67164 18.0001 3.50007 18.0001H15.0001V16.5001H3.50007V7.50006Z" fill="#1B1B1B"/>
<path d="M17.9697 6.16637C21.1916 9.3882 21.1916 14.6118 17.9697 17.8336L19.0304 18.8943C22.838 15.0867 22.838 8.91332 19.0304 5.10571L17.9697 6.16637Z" fill="#1F7560"/>
<path d="M15.8484 15.7123C17.8987 13.6621 17.8987 10.338 15.8484 8.2877L16.9091 7.22704C19.5451 9.86308 19.5451 14.1369 16.9091 16.773L15.8484 15.7123Z" fill="#1F7560"/>
<path d="M13.7271 13.591C14.6058 12.7123 14.6058 11.2877 13.7271 10.409L14.7877 9.34836C16.2522 10.8128 16.2522 13.1872 14.7877 14.6517L13.7271 13.591Z" fill="#1F7560"/>
<path d="M6.00006 10.0001H9.00006V12.0001H6.00006V10.0001Z" fill="#1F7560"/>
</svg>
