<svg width="24" height="24" viewBox="0 0 24 24" fill="none" xmlns="http://www.w3.org/2000/svg">
<path d="M20.5 6.5H3.5L3.5 17.5H13V19H3.5C2.67157 19 2 18.3284 2 17.5V6.5C2 5.67157 2.67157 5 3.5 5H20.5C21.3284 5 22 5.67157 22 6.5V10H20.5V6.5Z" fill="#1B1B1B"/>
<path fill-rule="evenodd" clip-rule="evenodd" d="M22.5 15C22.5 17.4853 20.4853 19.5 18 19.5C15.5147 19.5 13.5 17.4853 13.5 15C13.5 12.5147 15.5147 10.5 18 10.5C20.4853 10.5 22.5 12.5147 22.5 15ZM18 17.5414C18.4212 16.9628 18.6811 16.3034 18.7796 15.625H17.2204C17.319 16.3034 17.5788 16.9628 18 17.5414ZM19.1818 18.0284C19.6594 17.2918 19.9453 16.4671 20.0398 15.625H21.19C20.9754 16.7264 20.2046 17.629 19.1818 18.0284ZM20.0398 14.375H21.19C20.9754 13.2735 20.2045 12.3709 19.1817 11.9715C19.6593 12.7082 19.9453 13.5329 20.0398 14.375ZM17.2204 14.375H18.7796C18.681 13.6966 18.4211 13.0372 18 12.4586C17.5788 13.0372 17.319 13.6966 17.2204 14.375ZM16.8183 11.9715C16.3407 12.7082 16.0547 13.5329 15.9602 14.375H14.81C15.0246 13.2735 15.7955 12.3709 16.8183 11.9715ZM16.8183 18.0285C15.7955 17.6291 15.0246 16.7265 14.81 15.625H15.9602C16.0547 16.4671 16.3407 17.2918 16.8183 18.0285Z" fill="#1F7560"/>
<path d="M10 10H6V13H10V10Z" fill="#1F7560"/>
</svg>
