<svg width="24" height="24" viewBox="0 0 24 24" fill="none" xmlns="http://www.w3.org/2000/svg">
<path fill-rule="evenodd" clip-rule="evenodd" d="M12.2572 18.6821C9.2499 17.1973 6.80274 14.7501 5.31786 11.7428L7.53033 9.53033C7.67098 9.38968 7.75 9.19891 7.75 9V5C7.75 4.58579 7.41421 4.25 7 4.25H3C2.58579 4.25 2.25 4.58579 2.25 5C2.25 14.2508 9.74923 21.75 19 21.75C19.4142 21.75 19.75 21.4142 19.75 21L19.75 17C19.75 16.5858 19.4142 16.25 19 16.25L15 16.25C14.8011 16.25 14.6103 16.329 14.4697 16.4697L12.2572 18.6821ZM4.68087 10.2585C4.16065 8.84233 3.84452 7.32762 3.76812 5.75H6.25V8.68934L4.68087 10.2585ZM13.7415 19.3191C15.1577 19.8393 16.6724 20.1555 18.25 20.2319V17.75H15.3107L13.7415 19.3191Z" fill="#1B1B1B"/>
<path d="M14.5714 2.56889L13.795 5.46667L12.3461 5.07844L13.1225 2.18066L14.5714 2.56889Z" fill="#1F7560"/>
<path d="M16.1265 6.81278L17.1871 7.87344L19.3085 5.75212L18.2478 4.69146L16.1265 6.81278Z" fill="#1F7560"/>
<path d="M18.9215 11.6538L21.8193 10.8774L21.431 9.4285L18.5333 10.205L18.9215 11.6538Z" fill="#1F7560"/>
</svg>
