<svg width="24" height="24" viewBox="0 0 24 24" fill="none" xmlns="http://www.w3.org/2000/svg">
<path fill-rule="evenodd" clip-rule="evenodd" d="M5 4C4.44772 4 4 4.44772 4 5V10C4 10.5523 4.44772 11 5 11H10C10.5523 11 11 10.5523 11 10V5C11 4.44772 10.5523 4 10 4H5ZM5.5 5.5V9.5H9.5V5.5H5.5Z" fill="#1B1B1B"/>
<path fill-rule="evenodd" clip-rule="evenodd" d="M5 13C4.44772 13 4 13.4477 4 14V19C4 19.5523 4.44772 20 5 20H10C10.5523 20 11 19.5523 11 19V14C11 13.4477 10.5523 13 10 13H5ZM5.5 14.5V18.5H9.5V14.5H5.5Z" fill="#1B1B1B"/>
<path fill-rule="evenodd" clip-rule="evenodd" d="M13 5C13 4.44772 13.4477 4 14 4H19C19.5523 4 20 4.44772 20 5V10C20 10.5523 19.5523 11 19 11H14C13.4477 11 13 10.5523 13 10V5ZM14.5 9.5V5.5H18.5V9.5H14.5Z" fill="#1B1B1B"/>
<path d="M13 13.5C13 13.2239 13.2239 13 13.5 13H14.5C14.7761 13 15 13.2239 15 13.5V14.5C15 14.7761 14.7761 15 14.5 15H13.5C13.2239 15 13 14.7761 13 14.5V13.5Z" fill="#1F7560"/>
<path d="M15.5 16C15.5 15.7239 15.7239 15.5 16 15.5H17C17.2761 15.5 17.5 15.7239 17.5 16V17C17.5 17.2761 17.2761 17.5 17 17.5H16C15.7239 17.5 15.5 17.2761 15.5 17V16Z" fill="#1F7560"/>
<path d="M18 13.5C18 13.2239 18.2239 13 18.5 13H19.5C19.7761 13 20 13.2239 20 13.5V14.5C20 14.7761 19.7761 15 19.5 15H18.5C18.2239 15 18 14.7761 18 14.5V13.5Z" fill="#1F7560"/>
<path d="M13 18.5C13 18.2239 13.2239 18 13.5 18H14.5C14.7761 18 15 18.2239 15 18.5V19.5C15 19.7761 14.7761 20 14.5 20H13.5C13.2239 20 13 19.7761 13 19.5V18.5Z" fill="#1F7560"/>
<path d="M18 18.5C18 18.2239 18.2239 18 18.5 18H19.5C19.7761 18 20 18.2239 20 18.5V19.5C20 19.7761 19.7761 20 19.5 20H18.5C18.2239 20 18 19.7761 18 19.5V18.5Z" fill="#1F7560"/>
</svg>
