<svg width="24" height="24" viewBox="0 0 24 24" fill="none" xmlns="http://www.w3.org/2000/svg">
<path fill-rule="evenodd" clip-rule="evenodd" d="M6.5 13.03C6.5 9.85444 9.07424 7.28012 12.2498 7.28L12.25 7.28033H12.4891L10.7695 9L11.8248 10.0553L14.9004 6.97973C15.1208 6.68595 15.0974 6.26723 14.8301 6L11.8301 3L10.7695 4.06066L12.4891 5.78033H12.2502L12.25 5.78C8.24594 5.78 5 9.02593 5 13.03C5 17.0341 8.24594 20.28 12.25 20.28C16.2541 20.28 19.5 17.0341 19.5 13.03C19.5 11.6769 19.1292 10.4106 18.4842 9.327L17.3805 10.4307C17.7768 11.2115 18 12.0948 18 13.03C18 16.2056 15.4256 18.78 12.25 18.78C9.07436 18.78 6.5 16.2056 6.5 13.03Z" fill="#1B1B1B"/>
</svg>
