<svg width="24" height="24" viewBox="0 0 24 24" fill="none" xmlns="http://www.w3.org/2000/svg">
<path fill-rule="evenodd" clip-rule="evenodd" d="M9.5 2.25C5.49594 2.25 2.25 5.49594 2.25 9.5C2.25 13.5041 5.49594 16.75 9.5 16.75C11.2319 16.75 12.8219 16.1427 14.0689 15.1295L19.5 20.5607L20.5607 19.5L15.1295 14.0689C16.1427 12.8219 16.75 11.2319 16.75 9.5C16.75 5.49594 13.5041 2.25 9.5 2.25ZM3.75 9.5C3.75 6.32436 6.32436 3.75 9.5 3.75C12.6756 3.75 15.25 6.32436 15.25 9.5C15.25 12.6756 12.6756 15.25 9.5 15.25C6.32436 15.25 3.75 12.6756 3.75 9.5Z" fill="#1B1B1B"/>
</svg>
