<svg width="24" height="24" viewBox="0 0 24 24" fill="none" xmlns="http://www.w3.org/2000/svg">
<path fill-rule="evenodd" clip-rule="evenodd" d="M8.85559 11.1603L15.3556 7.66031L14.6444 6.3396L8.14444 9.8396L8.85559 11.1603ZM8.14444 14.1603L14.6444 17.6603L15.3556 16.3396L8.85559 12.8396L8.14444 14.1603Z" fill="#1F7560"/>
<path fill-rule="evenodd" clip-rule="evenodd" d="M17.5 8.5C18.6046 8.5 19.5 7.60457 19.5 6.5C19.5 5.39543 18.6046 4.5 17.5 4.5C16.3954 4.5 15.5 5.39543 15.5 6.5C15.5 7.60457 16.3954 8.5 17.5 8.5ZM17.5 10C19.433 10 21 8.433 21 6.5C21 4.567 19.433 3 17.5 3C15.567 3 14 4.567 14 6.5C14 8.433 15.567 10 17.5 10ZM17.5 19.5C18.6046 19.5 19.5 18.6046 19.5 17.5C19.5 16.3954 18.6046 15.5 17.5 15.5C16.3954 15.5 15.5 16.3954 15.5 17.5C15.5 18.6046 16.3954 19.5 17.5 19.5ZM17.5 21C19.433 21 21 19.433 21 17.5C21 15.567 19.433 14 17.5 14C15.567 14 14 15.567 14 17.5C14 19.433 15.567 21 17.5 21ZM8.5 11.5C8.5 12.6046 7.60457 13.5 6.5 13.5C5.39543 13.5 4.5 12.6046 4.5 11.5C4.5 10.3954 5.39543 9.5 6.5 9.5C7.60457 9.5 8.5 10.3954 8.5 11.5ZM10 11.5C10 13.433 8.433 15 6.5 15C4.567 15 3 13.433 3 11.5C3 9.567 4.567 8 6.5 8C8.433 8 10 9.567 10 11.5Z" fill="#1B1B1B"/>
</svg>
