<svg width="24" height="24" viewBox="0 0 24 24" fill="none" xmlns="http://www.w3.org/2000/svg">
<path fill-rule="evenodd" clip-rule="evenodd" d="M5 5C5 3.34315 6.34315 2 8 2H16C17.6569 2 19 3.34315 19 5V19C19 20.6569 17.6569 22 16 22H8C6.34315 22 5 20.6569 5 19V5ZM15.75 3.5H16C16.8284 3.5 17.5 4.17157 17.5 5V19C17.5 19.8284 16.8284 20.5 16 20.5H8C7.17157 20.5 6.5 19.8284 6.5 19V5C6.5 4.17157 7.17157 3.5 8 3.5H8.25C8.66421 3.5 9 3.83579 9 4.25C9 4.66421 9.33579 5 9.75 5H14.25C14.6642 5 15 4.66421 15 4.25C15 3.83579 15.3358 3.5 15.75 3.5Z" fill="#1B1B1B"/>
</svg>
