<svg width="24" height="24" viewBox="0 0 24 24" fill="none" xmlns="http://www.w3.org/2000/svg">
<path fill-rule="evenodd" clip-rule="evenodd" d="M5.5 4C4.67157 4 4 4.67157 4 5.5V9.5C4 10.3284 4.67157 11 5.5 11H9.5C10.3284 11 11 10.3284 11 9.5V5.5C11 4.67157 10.3284 4 9.5 4H5.5ZM9.5 5.5H5.5L5.5 9.5L9.5 9.5L9.5 5.5Z" fill="#1B1B1B"/>
<path fill-rule="evenodd" clip-rule="evenodd" d="M14.5 13C13.6716 13 13 13.6716 13 14.5V18.5C13 19.3284 13.6716 20 14.5 20H18.5C19.3284 20 20 19.3284 20 18.5V14.5C20 13.6716 19.3284 13 18.5 13H14.5ZM14.5 14.5V18.5H18.5V14.5H14.5Z" fill="#1B1B1B"/>
<path fill-rule="evenodd" clip-rule="evenodd" d="M4 14.5C4 13.6716 4.67157 13 5.5 13H9.5C10.3284 13 11 13.6716 11 14.5V18.5C11 19.3284 10.3284 20 9.5 20H5.5C4.67157 20 4 19.3284 4 18.5V14.5ZM5.5 14.5H9.5L9.5 18.5H5.5L5.5 14.5Z" fill="#1B1B1B"/>
<path d="M13 11C13 9.067 14.567 7.5 16.5 7.5C18.433 7.5 20 9.067 20 11H13Z" fill="#1F7560"/>
<path d="M16.5 7C17.3284 7 18 6.32843 18 5.5C18 4.67157 17.3284 4 16.5 4C15.6716 4 15 4.67157 15 5.5C15 6.32843 15.6716 7 16.5 7Z" fill="#1F7560"/>
</svg>
