<svg width="24" height="24" viewBox="0 0 24 24" fill="none" xmlns="http://www.w3.org/2000/svg">
<path fill-rule="evenodd" clip-rule="evenodd" d="M16.25 4H7.75V2.5H6.25V4H4.5C3.67157 4 3 4.67157 3 5.5V19.5C3 20.3284 3.67157 21 4.5 21H19.5C20.3284 21 21 20.3284 21 19.5V5.5C21 4.67157 20.3284 4 19.5 4H17.75V2.5H16.25V4ZM19.5 5.5H4.5V7L19.5 7V5.5ZM4.5 19.5L4.5 8.5L19.5 8.5V19.5H4.5Z" fill="#1B1B1B"/>
<path d="M15.5304 11.5304L14.4697 10.4697L11.0001 13.9394L9.53039 12.4697L8.46973 13.5304L11.0001 16.0607L15.5304 11.5304Z" fill="#1F7560"/>
</svg>
