<svg width="24" height="24" viewBox="0 0 24 24" fill="none" xmlns="http://www.w3.org/2000/svg">
<path fill-rule="evenodd" clip-rule="evenodd" d="M13.6213 3H19.5C20.3284 3 21 3.67157 21 4.5V10.3787C21 10.7765 20.842 11.158 20.5606 11.4393L11.0606 20.9393C10.4749 21.5251 9.52511 21.5251 8.93933 20.9393L3.06065 15.0607C2.47486 14.4749 2.47486 13.5251 3.06065 12.9393L12.5606 3.43934C12.842 3.15804 13.2235 3 13.6213 3ZM13.6213 4.5H19.5L19.5 10.3787L9.99999 19.8787L4.12131 14L13.6213 4.5Z" fill="#1B1B1B"/>
<path d="M16 9.5C16.8284 9.5 17.5 8.82843 17.5 8C17.5 7.17157 16.8284 6.5 16 6.5C15.1716 6.5 14.5 7.17157 14.5 8C14.5 8.82843 15.1716 9.5 16 9.5Z" fill="#1F7560"/>
</svg>
