<svg width="24" height="24" viewBox="0 0 24 24" fill="none" xmlns="http://www.w3.org/2000/svg">
<path fill-rule="evenodd" clip-rule="evenodd" d="M14.7377 5.08871C15.1374 4.98878 15.5428 5.22998 15.6458 5.6289L17.0964 11.25L6.9606 11.25L8.36381 5.63715C8.46427 5.23531 8.87147 4.99099 9.27332 5.09145L11.4543 5.6367C11.8126 5.72627 12.1874 5.72627 12.5457 5.6367L14.7377 5.08871ZM5.41444 11.25L6.9086 5.27335C7.20998 4.06781 8.43159 3.33485 9.63712 3.63624L11.8181 4.18148C11.9375 4.21134 12.0625 4.21134 12.1819 4.18148L14.3739 3.63349C15.573 3.33372 16.7894 4.05731 17.0982 5.25409L18.6455 11.25L22 11.25L22 12.75L2 12.75L2 11.25L5.41444 11.25Z" fill="#1B1B1B"/>
<path fill-rule="evenodd" clip-rule="evenodd" d="M8 18.5C8.82843 18.5 9.5 17.8284 9.5 17C9.5 16.1716 8.82843 15.5 8 15.5C7.17157 15.5 6.5 16.1716 6.5 17C6.5 17.8284 7.17157 18.5 8 18.5ZM10.9055 17.75C10.5725 19.0439 9.39788 20 8 20C6.34315 20 5 18.6569 5 17C5 15.3431 6.34315 14 8 14C9.39788 14 10.5725 14.9561 10.9055 16.25L13.0945 16.25C13.4275 14.9561 14.6021 14 16 14C17.6569 14 19 15.3431 19 17C19 18.6569 17.6569 20 16 20C14.6021 20 13.4275 19.0439 13.0945 17.75L10.9055 17.75ZM16 18.5C16.8284 18.5 17.5 17.8284 17.5 17C17.5 16.1716 16.8284 15.5 16 15.5C15.1716 15.5 14.5 16.1716 14.5 17C14.5 17.8284 15.1716 18.5 16 18.5Z" fill="#1F7560"/>
</svg>
