<svg width="24" height="24" viewBox="0 0 24 24" fill="none" xmlns="http://www.w3.org/2000/svg">
<path fill-rule="evenodd" clip-rule="evenodd" d="M18.5 16.0001C19.3284 16.0001 20 15.3285 20 14.5001V11.5H4V14.5001C4 15.3285 4.6716 16.0001 5.50004 16.0001L9 16V20.5C9 21.3284 9.67157 22 10.5 22H13.5C14.3284 22 15 21.3284 15 20.5V16L18.5 16.0001ZM5.5 13V14.5001L10.5 14.5V20.5H13.5V14.5L18.5 14.5001V13H5.5Z" fill="#1B1B1B"/>
<path fill-rule="evenodd" clip-rule="evenodd" d="M14.75 3.5H12.75V6.5H11.25V3.5H9.25V8H7.75V3.5H5.5V11.5H4V3.5C4 2.67157 4.67157 2 5.5 2H18.5C19.3284 2 20 2.67157 20 3.5V11.5H18.5V3.5H16.25V9.5H14.75V3.5Z" fill="#1F7560"/>
</svg>
