<svg width="24" height="24" viewBox="0 0 24 24" fill="none" xmlns="http://www.w3.org/2000/svg">
<path fill-rule="evenodd" clip-rule="evenodd" d="M14 20.75L16.75 20.75L16.75 15.75L20.75 15.75L20.75 4.25L6.22238 4.25C4.86114 4.25 3.70473 5.24588 3.5028 6.59206L2.6028 12.5921C2.3534 14.2547 3.64111 15.75 5.32238 15.75L11.25 15.75L11.25 18C11.25 19.5188 12.4812 20.75 14 20.75ZM15.25 5.75L6.22238 5.75C5.60363 5.75 5.07799 6.20267 4.9862 6.81457L4.0862 12.8146C3.97284 13.5703 4.55816 14.25 5.32238 14.25L12.75 14.25L12.75 18C12.75 18.6904 13.3096 19.25 14 19.25L15.25 19.25L15.25 5.75ZM16.75 5.75L16.75 14.25L19.25 14.25L19.25 5.75L16.75 5.75Z" fill="#1B1B1B"/>
</svg>
