<svg width="24" height="24" viewBox="0 0 24 24" fill="none" xmlns="http://www.w3.org/2000/svg">
<path d="M10 6.75H14V5.25H10V6.75Z" fill="#1B1B1B"/>
<path fill-rule="evenodd" clip-rule="evenodd" d="M4 4.5C4 3.67157 4.67157 3 5.5 3H18.5C19.3284 3 20 3.67157 20 4.5V8H21.5V11H20V18.5C20 19.3284 19.3284 20 18.5 20H18V22H16.5V20H7.5V22H6V20H5.5C4.67157 20 4 19.3284 4 18.5V11H2.5V8H4V4.5ZM5.5 4.5H18.5V12.25H5.5V4.5ZM5.5 13.75V18.5H18.5V13.75H5.5Z" fill="#1B1B1B"/>
<path d="M8 17C8.55228 17 9 16.5523 9 16C9 15.4477 8.55228 15 8 15C7.44772 15 7 15.4477 7 16C7 16.5523 7.44772 17 8 17Z" fill="#1F7560"/>
<path d="M17 16C17 16.5523 16.5523 17 16 17C15.4477 17 15 16.5523 15 16C15 15.4477 15.4477 15 16 15C16.5523 15 17 15.4477 17 16Z" fill="#1F7560"/>
</svg>
