<svg width="24" height="24" viewBox="0 0 24 24" fill="none" xmlns="http://www.w3.org/2000/svg">
<path d="M3.5 17C2.67157 17 2 16.3284 2 15.5V6.5C2 5.67157 2.67157 5 3.5 5H20.5C21.3284 5 22 5.67157 22 6.5V10H20.5V6.5H3.5V15.5H15V17H3.5Z" fill="#1B1B1B"/>
<path d="M14 11C14 12.1046 13.1046 13 12 13C10.8954 13 10 12.1046 10 11C10 9.89543 10.8954 9 12 9C13.1046 9 14 9.89543 14 11Z" fill="#1B1B1B"/>
<path d="M19.5 13.4394L21.4697 11.4697L22.5303 12.5304L20.5607 14.5001L22.5303 16.4697L21.4697 17.5304L19.5 15.5607L17.5303 17.5304L16.4697 16.4697L18.4393 14.5001L16.4697 12.5304L17.5303 11.4697L19.5 13.4394Z" fill="#1F7560"/>
</svg>
