<svg width="24" height="24" viewBox="0 0 24 24" fill="none" xmlns="http://www.w3.org/2000/svg">
<path d="M3.5 12H2V7.5C2 6.67157 2.67157 6 3.5 6H20.5C21.3284 6 22 6.67157 22 7.5V16.5C22 17.3284 21.3284 18 20.5 18H10V16.5H20.5V7.5H3.5V12Z" fill="#1B1B1B"/>
<path d="M12 14C10.8954 14 10 13.1046 10 12C10 10.8954 10.8954 10 12 10C13.1046 10 14 10.8954 14 12C14 13.1046 13.1046 14 12 14Z" fill="#1B1B1B"/>
<path d="M4.53033 20.7804L8.06066 17.2501L4.53033 13.7197L3.46967 14.7804L5.18934 16.5001H1V18.0001H5.18934L3.46967 19.7197L4.53033 20.7804Z" fill="#1F7560"/>
</svg>
