<svg width="24" height="24" viewBox="0 0 24 24" fill="none" xmlns="http://www.w3.org/2000/svg">
<path d="M3.5 18H14V16.5H3.5V7.5H20.5V12H22V7.5C22 6.67157 21.3284 6 20.5 6H3.5C2.67157 6 2 6.67157 2 7.5V16.5C2 17.3284 2.67157 18 3.5 18Z" fill="#1B1B1B"/>
<path d="M12 14C13.1046 14 14 13.1046 14 12C14 10.8954 13.1046 10 12 10C10.8954 10 10 10.8954 10 12C10 13.1046 10.8954 14 12 14Z" fill="#1B1B1B"/>
<path d="M19.5303 20.7804L23.0607 17.2501L19.5303 13.7197L18.4697 14.7804L20.1893 16.5001H16V18.0001H20.1893L18.4697 19.7197L19.5303 20.7804Z" fill="#1F7560"/>
</svg>
