<svg width="24" height="24" viewBox="0 0 24 24" fill="none" xmlns="http://www.w3.org/2000/svg">
<path d="M3.5 17C2.67157 17 2 16.3284 2 15.5V6.5C2 5.67157 2.67157 5 3.5 5H20.5C21.3284 5 22 5.67157 22 6.5V9H20.5V6.5H3.5V15.5H14V17H3.5Z" fill="#1B1B1B"/>
<path d="M14 11C14 12.1046 13.1046 13 12 13C10.8954 13 10 12.1046 10 11C10 9.89543 10.8954 9 12 9C13.1046 9 14 9.89543 14 11Z" fill="#1B1B1B"/>
<path d="M19.5 13.7929V12H18.5V14.2071L19.6464 15.3536L20.3536 14.6464L19.5 13.7929Z" fill="#1F7560"/>
<path fill-rule="evenodd" clip-rule="evenodd" d="M19 18C21.2091 18 23 16.2091 23 14C23 11.7909 21.2091 10 19 10C16.7909 10 15 11.7909 15 14C15 16.2091 16.7909 18 19 18ZM19 16.5C20.3807 16.5 21.5 15.3807 21.5 14C21.5 12.6193 20.3807 11.5 19 11.5C17.6193 11.5 16.5 12.6193 16.5 14C16.5 15.3807 17.6193 16.5 19 16.5Z" fill="#1F7560"/>
</svg>
