<svg width="24" height="24" viewBox="0 0 24 24" fill="none" xmlns="http://www.w3.org/2000/svg">
<path d="M17.9291 6.12982C17.5522 5.21988 16.9997 4.39309 16.3033 3.69665L17.364 2.63599C18.1997 3.47171 18.8626 4.46387 19.3149 5.5558C19.7672 6.64773 20 7.81805 20 8.99995C20 10.1818 19.7672 11.3522 19.3149 12.4441C18.8626 13.536 18.1997 14.5282 17.364 15.3639C16.5282 16.1996 15.5361 16.8626 14.4441 17.3149C13.5839 17.6712 12.6749 17.8913 11.75 17.9686V20.2499H16V21.7499H6V20.2499H10.25V17.9686C9.32507 17.8913 8.41613 17.6712 7.55584 17.3149C6.46391 16.8626 5.47176 16.1996 4.63603 15.3639L5.69669 14.3032C6.39313 14.9997 7.21993 15.5521 8.12987 15.929C9.03981 16.306 10.0151 16.4999 11 16.4999C11.9849 16.5 12.9602 16.306 13.8701 15.929C14.7801 15.5521 15.6069 14.9997 16.3033 14.3033C16.9997 13.6068 17.5522 12.78 17.9291 11.8701C18.306 10.9601 18.5 9.98487 18.5 8.99995C18.5 8.01504 18.306 7.03977 17.9291 6.12982Z" fill="#1B1B1B"/>
<path fill-rule="evenodd" clip-rule="evenodd" d="M11 15C14.3137 15 17 12.3137 17 9C17 5.68629 14.3137 3 11 3C7.68629 3 5 5.68629 5 9C5 12.3137 7.68629 15 11 15ZM11 13.5C13.4853 13.5 15.5 11.4853 15.5 9C15.5 6.51472 13.4853 4.5 11 4.5C8.51472 4.5 6.5 6.51472 6.5 9C6.5 11.4853 8.51472 13.5 11 13.5Z" fill="#1F7560"/>
</svg>
