<svg width="24" height="24" viewBox="0 0 24 24" fill="none" xmlns="http://www.w3.org/2000/svg">
<path d="M11 19.5H18.3246C18.2448 19.1636 18.1381 18.8334 18.0052 18.5126C17.6786 17.7239 17.1998 17.0074 16.5962 16.4038C15.9926 15.8002 15.2761 15.3214 14.4874 14.9948C13.6988 14.6681 12.8536 14.5 12 14.5C11.2711 14.5 10.5484 14.6226 9.86176 14.8618L8.7085 13.7085C8.7846 13.6741 8.86128 13.641 8.93853 13.609C9.90913 13.2069 10.9494 13 12 13C13.0506 13 14.0909 13.2069 15.0615 13.609C16.0321 14.011 16.914 14.6003 17.6569 15.3431C18.3997 16.086 18.989 16.9679 19.391 17.9385C19.6 18.443 19.7562 18.9662 19.8581 19.5C19.9523 19.9932 20 20.4954 20 21H11V19.5Z" fill="#1B1B1B"/>
<path fill-rule="evenodd" clip-rule="evenodd" d="M12 11C14.2091 11 16 9.20914 16 7C16 4.79086 14.2091 3 12 3C9.79086 3 8 4.79086 8 7C8 9.20914 9.79086 11 12 11ZM12 9.5C13.3807 9.5 14.5 8.38071 14.5 7C14.5 5.61929 13.3807 4.5 12 4.5C10.6193 4.5 9.5 5.61929 9.5 7C9.5 8.38071 10.6193 9.5 12 9.5Z" fill="#1F7560"/>
<path d="M6.53033 21.7803L10.0607 18.25L6.53033 14.7197L5.46967 15.7803L7.18934 17.5H3V19H7.18934L5.46967 20.7197L6.53033 21.7803Z" fill="#1F7560"/>
</svg>
