<svg width="24" height="24" viewBox="0 0 24 24" fill="none" xmlns="http://www.w3.org/2000/svg">
<path d="M15.0615 12.609C14.0909 12.2069 13.0506 12 12 12C10.9494 12 9.90914 12.2069 8.93853 12.609C7.96793 13.011 7.08602 13.6003 6.34315 14.3431C5.60028 15.086 5.011 15.9679 4.60896 16.9385C4.20693 17.9091 4 18.9494 4 20H14V18.5H5.676L5.69468 18.4211C5.77208 18.1119 5.87229 17.8083 5.99478 17.5125C6.32143 16.7239 6.80022 16.0074 7.40383 15.4037C8.00741 14.8002 8.72399 14.3214 9.51251 13.9948C10.3012 13.6681 11.1463 13.5 12 13.5C12.8537 13.5 13.6989 13.6681 14.4874 13.9948C15.276 14.3214 15.9926 14.8002 16.5963 15.4038C16.6799 15.4874 16.761 15.5731 16.8397 15.6609L17.9024 14.5997C17.8225 14.5125 17.7407 14.4269 17.6569 14.3431C16.914 13.6003 16.0321 13.011 15.0615 12.609Z" fill="#1B1B1B"/>
<path fill-rule="evenodd" clip-rule="evenodd" d="M16 6C16 3.79086 14.2091 2 12 2C9.79086 2 8 3.79086 8 6C8 8.20914 9.79086 10 12 10C14.2091 10 16 8.20914 16 6ZM9.5 6C9.5 4.61929 10.6193 3.5 12 3.5C13.3807 3.5 14.5 4.61929 14.5 6C14.5 7.38071 13.3807 8.5 12 8.5C10.6193 8.5 9.5 7.38071 9.5 6Z" fill="#1F7560"/>
<path d="M22.5303 16.5303L21.4697 15.4697L18 18.9393L16.5303 17.4697L15.4697 18.5303L18 21.0607L22.5303 16.5303Z" fill="#1F7560"/>
</svg>
