<svg width="24" height="24" viewBox="0 0 24 24" fill="none" xmlns="http://www.w3.org/2000/svg">
<path fill-rule="evenodd" clip-rule="evenodd" d="M3 4.5C3 3.67157 3.67157 3 4.5 3H19.5C20.3284 3 21 3.67157 21 4.5V18.5C21 19.3284 20.3284 20 19.5 20H18V22H16.5V20H7.5V22H6V20H4.5C3.67157 20 3 19.3284 3 18.5V4.5ZM4.5 4.5H19.5V18.5H4.5L4.5 4.5Z" fill="#1B1B1B"/>
<path d="M13.5 11C13.5 11.5552 13.1984 12.04 12.75 12.2993V13.75H11.25V12.2993C10.8016 12.04 10.5 11.5552 10.5 11C10.5 10.1716 11.1716 9.5 12 9.5C12.8284 9.5 13.5 10.1716 13.5 11Z" fill="#1F7560"/>
</svg>
