<svg width="24" height="24" viewBox="0 0 24 24" fill="none" xmlns="http://www.w3.org/2000/svg">
<path d="M1.39331 10.5C2.42145 9.47182 3.56171 8.62414 4.77474 7.9569L5.88475 9.06691C4.6481 9.69533 3.48803 10.5266 2.45397 11.5606L1.39331 10.5Z" fill="#1B1B1B"/>
<path d="M4.22174 13.3284C5.27059 12.2795 6.47855 11.4868 7.76793 10.9501L8.93138 12.1135C7.59808 12.5674 6.34558 13.3259 5.2824 14.3891L4.22174 13.3284Z" fill="#1B1B1B"/>
<path d="M7.05016 16.1568C8.16105 15.0459 9.55241 14.3865 10.9963 14.1785L12.4421 15.6243C10.8911 15.4999 9.29732 16.031 8.11083 17.2175L7.05016 16.1568Z" fill="#1B1B1B"/>
<path d="M18.7174 14.3891C17.7494 13.4211 16.6245 12.7056 15.4246 12.2428L13.374 10.1922C15.7153 10.4853 17.9804 11.5307 19.7781 13.3284L18.7174 14.3891Z" fill="#1B1B1B"/>
<path d="M21.5459 11.5606C18.6141 8.62883 14.6693 7.3274 10.8381 7.65634L9.49738 6.31559C14.1208 5.53738 19.0387 6.93218 22.6065 10.5L21.5459 11.5606Z" fill="#1B1B1B"/>
<path d="M9.87859 18.9852C11.0502 17.8137 12.9497 17.8137 14.1212 18.9852L11.9999 21.1066L9.87859 18.9852Z" fill="#1B1B1B"/>
<path d="M5.45902 4.39868L19.6012 18.5408L18.5405 19.6015L4.39838 5.45933L5.45902 4.39868Z" fill="#1F7560"/>
</svg>
