<svg width="24" height="24" viewBox="0 0 24 24" fill="none" xmlns="http://www.w3.org/2000/svg">
<path fill-rule="evenodd" clip-rule="evenodd" d="M12.75 10.7009L16.8792 8.31692V5.25L18.3792 5.25V7.4509L20.2852 6.35046L21.0352 7.6495L19.1291 8.74998L21.0352 9.8505L20.2852 11.1495L17.6291 9.616L13.5 11.9999L17.6293 14.384L20.2854 12.8505L21.0354 14.1495L19.1293 15.25L21.0354 16.3505L20.2854 17.6495L18.3792 16.5491L18.3791 18.75L16.8792 18.75L16.8791 15.683L12.75 13.2989L12.75 18.067L15.406 19.6005L14.656 20.8995L12.75 19.7991V22H11.25V19.799L9.34391 20.8995L8.59391 19.6005L11.25 18.067L11.25 13.2991L7.12085 15.6831L7.12085 18.75H5.62085L5.62085 16.5491L3.71484 17.6495L2.96484 16.3505L4.87092 15.25L2.96476 14.1495L3.71476 12.8505L6.37092 14.384L10.5 12.0001L6.37069 9.61604L3.7146 11.1495L2.9646 9.8505L4.87069 8.75002L2.9646 7.64954L3.7146 6.3505L5.62085 7.45093L5.62085 5.25L7.12085 5.25V8.31696L11.25 10.7011V5.93298L8.59399 4.39954L9.34399 3.1005L11.25 4.20093L11.25 2L12.75 2L12.75 4.20098L14.6561 3.1005L15.4061 4.39954L12.75 5.93303V10.7009Z" fill="#1B1B1B"/>
</svg>
