<svg width="24" height="24" viewBox="0 0 24 24" fill="none" xmlns="http://www.w3.org/2000/svg">
<path d="M12 11.0526L12.4286 11.0526V10L14.1429 11.6842L12.4286 13.3684V12.3158L12 12.3158C11.7749 12.3158 11.552 12.3594 11.344 12.444C11.136 12.5286 10.947 12.6527 10.7878 12.8091C10.6286 12.9655 10.5024 13.1511 10.4162 13.3555C10.3301 13.5598 10.2857 13.7788 10.2857 14H9C9 13.6129 9.0776 13.2297 9.22836 12.8721C9.37913 12.5145 9.6001 12.1896 9.87868 11.9159C10.1573 11.6422 10.488 11.4251 10.852 11.277C11.2159 11.1289 11.606 11.0526 12 11.0526Z" fill="#1F7560"/>
<path d="M12 16.9474H11.5714V18L9.85714 16.3158L11.5714 14.6316V15.6842H12C12.2251 15.6842 12.448 15.6406 12.656 15.556C12.864 15.4714 13.053 15.3473 13.2122 15.1909C13.3714 15.0345 13.4976 14.8489 13.5838 14.6445C13.6699 14.4402 13.7143 14.2212 13.7143 14H15C15 14.3871 14.9224 14.7703 14.7716 15.1279C14.6209 15.4855 14.3999 15.8104 14.1213 16.0841C13.8427 16.3578 13.512 16.5749 13.148 16.723C12.7841 16.8711 12.394 16.9474 12 16.9474Z" fill="#1F7560"/>
<path fill-rule="evenodd" clip-rule="evenodd" d="M21 6.91138L12 2.41138L3.00004 6.91138V8.4999H21L21 6.91138ZM12 4.08843L17.823 6.9999H6.17709L12 4.08843ZM19.5 9.9999V17.9999H18V9.9999H19.5ZM6 9.99993V17.9999H4.5V9.99993H6ZM3 20.9999H21V19.4999H3V20.9999Z" fill="#1B1B1B"/>
</svg>
