<svg width="24" height="24" viewBox="0 0 24 24" fill="none" xmlns="http://www.w3.org/2000/svg">
<path fill-rule="evenodd" clip-rule="evenodd" d="M15.5967 15.1843L14.529 14.8261C14.1601 15.2363 13.8749 15.7231 13.7 16.2598L14.5445 17.0058C14.5179 17.1666 14.504 17.3317 14.504 17.5C14.504 17.6683 14.5179 17.8334 14.5445 17.9942L13.7 18.7402C13.8749 19.2769 14.1601 19.7637 14.529 20.1739L15.5967 19.8157C15.8503 20.0249 16.1389 20.1932 16.4524 20.3105L16.676 21.4142C16.9432 21.4704 17.2201 21.5 17.504 21.5C17.7879 21.5 18.0648 21.4704 18.332 21.4142L18.5557 20.3105C18.8691 20.1932 19.1577 20.0249 19.4113 19.8157L20.479 20.1739C20.8479 19.7637 21.1331 19.2769 21.308 18.7402L20.4635 17.9942C20.4901 17.8334 20.504 17.6683 20.504 17.5C20.504 17.3317 20.4901 17.1666 20.4635 17.0058L21.308 16.2598C21.1331 15.7231 20.8479 15.2363 20.479 14.8261L19.4113 15.1843C19.1577 14.9751 18.8691 14.8068 18.5557 14.6895L18.332 13.5858C18.0648 13.5296 17.7879 13.5 17.504 13.5C17.2201 13.5 16.9432 13.5296 16.676 13.5858L16.4524 14.6895C16.1389 14.8068 15.8503 14.9751 15.5967 15.1843ZM19 17.5C19 18.3284 18.3284 19 17.5 19C16.6716 19 16 18.3284 16 17.5C16 16.6716 16.6716 16 17.5 16C18.3284 16 19 16.6716 19 17.5Z" fill="#1F7560"/>
<path d="M13 4.5H11C9.57512 4.5 8.59667 4.50117 7.83816 4.56314C7.09716 4.62368 6.69911 4.73469 6.41103 4.88148C5.75247 5.21703 5.21703 5.75247 4.88148 6.41103C4.73469 6.69911 4.62368 7.09716 4.56314 7.83816C4.50117 8.59667 4.5 9.57512 4.5 11V13C4.5 14.4249 4.50117 15.4033 4.56314 16.1618C4.62368 16.9028 4.73469 17.3009 4.88148 17.589C5.21703 18.2475 5.75247 18.783 6.41103 19.1185C6.69911 19.2653 7.09716 19.3763 7.83816 19.4369C8.59667 19.4988 9.57512 19.5 11 19.5H12V21H11C8.19974 21 6.79961 21 5.73005 20.455C4.78924 19.9757 4.02433 19.2108 3.54497 18.27C3 17.2004 3 15.8003 3 13V11C3 8.19974 3 6.79961 3.54497 5.73005C4.02433 4.78924 4.78924 4.02433 5.73005 3.54497C6.79961 3 8.19974 3 11 3H13C15.8003 3 17.2004 3 18.27 3.54497C19.2108 4.02433 19.9757 4.78924 20.455 5.73005C21 6.79961 21 8.19974 21 11V12H19.5V11C19.5 9.57512 19.4988 8.59667 19.4369 7.83816C19.3763 7.09716 19.2653 6.69911 19.1185 6.41103C18.783 5.75247 18.2475 5.21703 17.589 4.88148C17.3009 4.73469 16.9028 4.62368 16.1618 4.56314C15.4033 4.50117 14.4249 4.5 13 4.5Z" fill="#1B1B1B"/>
</svg>
