<svg width="24" height="24" viewBox="0 0 24 24" fill="none" xmlns="http://www.w3.org/2000/svg">
<path d="M15 7H9V8.5H15V7Z" fill="#1F7560"/>
<path d="M9 10H15V11.5H9V10Z" fill="#1F7560"/>
<path d="M9 13H15V14.5H9V13Z" fill="#1F7560"/>
<path d="M9 16H15V17.5H9V16Z" fill="#1F7560"/>
<path fill-rule="evenodd" clip-rule="evenodd" d="M8 2C6.34315 2 5 3.34315 5 5V19C5 20.6569 6.34315 22 8 22H16C17.6569 22 19 20.6569 19 19V5C19 3.34315 17.6569 2 16 2H8ZM16 3.5H15.75C15.3358 3.5 15 3.83579 15 4.25C15 4.66421 14.6642 5 14.25 5H9.75C9.33579 5 9 4.66421 9 4.25C9 3.83579 8.66421 3.5 8.25 3.5H8C7.17157 3.5 6.5 4.17157 6.5 5V19C6.5 19.8284 7.17157 20.5 8 20.5H16C16.8284 20.5 17.5 19.8284 17.5 19V5C17.5 4.17157 16.8284 3.5 16 3.5Z" fill="#1B1B1B"/>
</svg>
