<svg width="24" height="24" viewBox="0 0 24 24" fill="none" xmlns="http://www.w3.org/2000/svg">
<path d="M14.5 4.5H18.4393L13.4697 9.46967L14.5303 10.5303L19.5 5.56066V9.5H21V3.75C21 3.55109 20.921 3.36032 20.7803 3.21967C20.6397 3.07902 20.4489 3 20.25 3H14.5V4.5Z" fill="#1F7560"/>
<path d="M3.75 3C3.55109 3 3.36032 3.07902 3.21967 3.21967C3.07902 3.36032 3 3.55109 3 3.75V9.5H4.5V5.56066L11.25 12.3107V21H12.75V12C12.75 11.8011 12.671 11.6103 12.5303 11.4697L5.56066 4.5H9.5V3H3.75Z" fill="#1B1B1B"/>
</svg>
