<svg width="24" height="24" viewBox="0 0 24 24" fill="none" xmlns="http://www.w3.org/2000/svg">
<path d="M7.63713 10.4622L4.84738 7.75H21V6.25H4.84738L7.63713 3.53774L6.59151 2.46225L2.47722 6.46225C2.33198 6.60346 2.25003 6.79742 2.25003 7C2.25003 7.20257 2.33198 7.39653 2.47722 7.53774L6.59151 11.5377L7.63713 10.4622Z" fill="#1B1B1B"/>
<path d="M16.3629 13.5378L19.1527 16.25L3.00003 16.25L3.00003 17.75L19.1527 17.75L16.3629 20.4623L17.4086 21.5378L21.5228 17.5378C21.6681 17.3965 21.75 17.2026 21.75 17C21.75 16.7974 21.6681 16.6035 21.5228 16.4623L17.4086 12.4623L16.3629 13.5378Z" fill="#1B1B1B"/>
</svg>
