<svg width="24" height="24" viewBox="0 0 24 24" fill="none" xmlns="http://www.w3.org/2000/svg">
<path d="M6.35943 17.1214C6.28756 16.7581 6.25 16.3831 6.25 16V15H7.75L7.75 16C7.75 16.2848 7.77791 16.5623 7.83091 16.8303L6.35943 17.1214Z" fill="#1F7560"/>
<path d="M8.80468 20.7811C8.17796 20.3615 7.63853 19.822 7.21895 19.1953L8.4654 18.3608C8.7759 18.8246 9.17537 19.2241 9.63916 19.5346L8.80468 20.7811Z" fill="#1F7560"/>
<path d="M6.25 13V11H7.75V13H6.25Z" fill="#1F7560"/>
<path d="M13.5303 8.03033L16.25 5.31066V16C16.2499 18.3472 14.3472 20.25 12 20.25C11.7152 20.25 11.4377 20.2221 11.1697 20.1691L10.8786 21.6406C11.2419 21.7124 11.6169 21.75 12 21.75C15.1757 21.75 17.7501 19.1756 17.7501 15.9999L17.75 5.31066L20.4697 8.03033L21.5303 6.96967L17.5303 2.96967C17.2374 2.67678 16.7626 2.67678 16.4697 2.96967L12.4697 6.96967L13.5303 8.03033Z" fill="#1B1B1B"/>
</svg>
