<svg width="24" height="24" viewBox="0 0 24 24" fill="none" xmlns="http://www.w3.org/2000/svg">
<path fill-rule="evenodd" clip-rule="evenodd" d="M4 5.5H20C20.2761 5.5 20.5 5.72386 20.5 6V9.5C20.5 9.77614 20.2761 10 20 10H17.5V11.5H20C21.1046 11.5 22 10.6046 22 9.5V6C22 4.89543 21.1046 4 20 4H4C2.89543 4 2 4.89543 2 6V9.5C2 10.6046 2.89543 11.5 4 11.5H6.5V10H4C3.72386 10 3.5 9.77614 3.5 9.5V6C3.5 5.72386 3.72386 5.5 4 5.5Z" fill="#1F7560"/>
<path fill-rule="evenodd" clip-rule="evenodd" d="M17.5 8.5H19V7H17.5H6.5H5V8.5H6.5L6.5 18.5C6.5 19.3284 7.17157 20 8 20H16C16.3978 20 16.7794 19.842 17.0607 19.5607C17.342 19.2794 17.5 18.8978 17.5 18.5L17.5 8.5ZM16 8.5L8 8.5L8 18.5H16L16 8.5ZM13.5 12.5C13.5 13.3284 12.8284 14 12 14C11.1716 14 10.5 13.3284 10.5 12.5C10.5 11.6716 11.1716 11 12 11C12.8284 11 13.5 11.6716 13.5 12.5Z" fill="#1B1B1B"/>
</svg>
