<svg width="24" height="24" viewBox="0 0 24 24" fill="none" xmlns="http://www.w3.org/2000/svg">
<path fill-rule="evenodd" clip-rule="evenodd" d="M8.40139 1.5H4V3H7.59861L8.93195 5H6.37075C5.7934 5 5.43255 5.625 5.72123 6.125L11.25 15.7011V20.5H8V22H16V20.5H12.75V15.7008L16.1 9.89836C16.3893 9.96486 16.6905 10 17 10C19.2091 10 21 8.20914 21 6C21 3.79086 19.2091 2 17 2C15.1361 2 13.57 3.27477 13.126 5H10.7347L8.40139 1.5ZM19.5 6C19.5 7.38071 18.3807 8.5 17 8.5C16.9693 8.5 16.9387 8.49945 16.9083 8.49835L18.2786 6.125C18.5673 5.625 18.2064 5 17.6291 5H14.708C15.0938 4.11705 15.9748 3.5 17 3.5C18.3807 3.5 19.5 4.61929 19.5 6ZM9.40184 9.5L11.9999 14L14.598 9.5L9.40184 9.5ZM8.53581 8L15.464 8L16.33 6.5H7.66979L8.53581 8Z" fill="#1B1B1B"/>
</svg>
