<svg width="24" height="24" viewBox="0 0 24 24" fill="none" xmlns="http://www.w3.org/2000/svg">
<path d="M12.5706 8.75627C12.391 8.20348 11.609 8.20348 11.4294 8.75626L11.2366 9.34938C11.1563 9.59659 10.9259 9.76397 10.666 9.76397H10.0424C9.46114 9.76397 9.21947 10.5077 9.6897 10.8494L10.1942 11.2159C10.4045 11.3687 10.4925 11.6395 10.4122 11.8868L10.2195 12.4799C10.0399 13.0327 10.6726 13.4923 11.1428 13.1507L11.6473 12.7841C11.8576 12.6313 12.1424 12.6313 12.3527 12.7841L12.8572 13.1507C13.3274 13.4923 13.9601 13.0327 13.7805 12.4799L13.5878 11.8868C13.5075 11.6395 13.5955 11.3687 13.8057 11.2159L14.3103 10.8494C14.7805 10.5077 14.5388 9.76397 13.9576 9.76397H13.334C13.074 9.76397 12.8437 9.59659 12.7633 9.34938L12.5706 8.75627Z" fill="#1F7560"/>
<path fill-rule="evenodd" clip-rule="evenodd" d="M3 19.5729V4.5C3 3.67157 3.67157 3 4.5 3H19.5C20.3284 3 21 3.67157 21 4.5V19.5729C21 20.688 19.8265 21.4133 18.8292 20.9146L12.6708 17.8354C12.2485 17.6243 11.7515 17.6243 11.3292 17.8354L5.17082 20.9146C4.17347 21.4133 3 20.688 3 19.5729ZM4.5 19.5729L4.5 4.5H19.5L19.5 19.573L13.3416 16.4938C12.4971 16.0715 11.5029 16.0715 10.6584 16.4938L4.5 19.5729Z" fill="#1B1B1B"/>
</svg>
