<svg width="24" height="24" viewBox="0 0 24 24" fill="none" xmlns="http://www.w3.org/2000/svg">
<path fill-rule="evenodd" clip-rule="evenodd" d="M8.5 16C8.5 17.3807 7.38071 18.5 6 18.5C4.61929 18.5 3.5 17.3807 3.5 16C3.5 14.6193 4.61929 13.5 6 13.5C7.38071 13.5 8.5 14.6193 8.5 16ZM10 16C10 18.2091 8.20914 20 6 20C3.79086 20 2 18.2091 2 16C2 13.7909 3.79086 12 6 12C8.20914 12 10 13.7909 10 16ZM20.5 16C20.5 17.3807 19.3807 18.5 18 18.5C16.6193 18.5 15.5 17.3807 15.5 16C15.5 14.6193 16.6193 13.5 18 13.5C19.3807 13.5 20.5 14.6193 20.5 16ZM22 16C22 18.2091 20.2091 20 18 20C15.7909 20 14 18.2091 14 16C14 13.7909 15.7909 12 18 12C20.2091 12 22 13.7909 22 16Z" fill="#1F7560"/>
<path fill-rule="evenodd" clip-rule="evenodd" d="M8.27239 3.8181C8.35586 3.48422 8.65584 3.25 8.99999 3.25H11C11.4142 3.25 11.75 3.58579 11.75 4C11.75 4.41421 11.4142 4.75 11 4.75H9.58558L8.4276 9.38192L12.4255 11.7807L13.0057 9.75H12C11.5858 9.75 11.25 9.41421 11.25 9C11.25 8.58579 11.5858 8.25 12 8.25H13.9827C13.9939 8.24974 14.0052 8.24974 14.0166 8.25H15C15.4142 8.25 15.75 8.58579 15.75 9C15.75 9.41421 15.4142 9.75 15 9.75H14.5657L13.7572 12.5797L15.0167 13.3354C14.6838 13.7079 14.4196 14.1431 14.244 14.6211L13.3306 14.073L12.7211 16.206C12.6073 16.6043 12.1922 16.8349 11.794 16.7211C11.3957 16.6073 11.1651 16.1922 11.2789 15.794L11.9989 13.274L8.04732 10.903L7.68078 12.3692C7.23414 12.1621 6.74287 12.035 6.22535 12.0062L8.27239 3.8181ZM17.6141 16.6431L15.5686 15.4158C15.6897 14.91 15.9645 14.464 16.3409 14.1299L18.3859 15.3569C18.7411 15.57 18.8562 16.0307 18.6431 16.3859C18.43 16.7411 17.9693 16.8562 17.6141 16.6431ZM5.27239 15.8181L5.85082 13.5044C5.90017 13.5015 5.94991 13.5 5.99999 13.5C6.47871 13.5 6.926 13.6346 7.3061 13.8679L6.7276 16.1819C6.62714 16.5837 6.21994 16.8281 5.81809 16.7276C5.41625 16.6271 5.17193 16.2199 5.27239 15.8181Z" fill="#1B1B1B"/>
</svg>
