<svg width="24" height="24" viewBox="0 0 24 24" fill="none" xmlns="http://www.w3.org/2000/svg">
<path fill-rule="evenodd" clip-rule="evenodd" d="M8.5 4.5V6H3.5C2.67157 6 2 6.67157 2 7.5V18.5C2 19.3284 2.67157 20 3.5 20H20.5C21.3284 20 22 19.3284 22 18.5V7.5C22 6.67157 21.3284 6 20.5 6H15.5V4.5C15.5 3.67157 14.8284 3 14 3H10C9.17157 3 8.5 3.67157 8.5 4.5ZM14 4.5H10V6H14V4.5ZM14.25 12H20.5V7.5H3.5L3.5 12L9.75 12C9.75 11.1716 10.4216 10.5 11.25 10.5H12.75C13.5784 10.5 14.25 11.1716 14.25 12ZM14.25 13.5C14.25 14.3284 13.5784 15 12.75 15H11.25C10.4216 15 9.75 14.3284 9.75 13.5L3.5 13.5L3.5 18.5H20.5V13.5H14.25ZM11.25 12H12.75V13.5H11.25V12Z" fill="#1B1B1B"/>
</svg>
