<svg width="24" height="24" viewBox="0 0 24 24" fill="none" xmlns="http://www.w3.org/2000/svg">
<path d="M8 13.5C8 14.3284 7.32843 15 6.5 15C5.67157 15 5 14.3284 5 13.5C5 12.6716 5.67157 12 6.5 12C7.32843 12 8 12.6716 8 13.5Z" fill="#1F7560"/>
<path d="M17.5 15C18.3284 15 19 14.3284 19 13.5C19 12.6716 18.3284 12 17.5 12C16.6716 12 16 12.6716 16 13.5C16 14.3284 16.6716 15 17.5 15Z" fill="#1F7560"/>
<path d="M14.5 14.25H9.5V12.75H14.5V14.25Z" fill="#1F7560"/>
<path fill-rule="evenodd" clip-rule="evenodd" d="M20.5 18C21.3284 18 22 17.3284 22 16.5V13.4164C22 12.9256 21.9398 12.4384 21.8219 11.9654C22.1788 11.8873 22.4881 11.6823 22.7002 11.3999L22.702 11.3974C22.7378 11.3496 22.7708 11.2995 22.8008 11.2475C22.8022 11.2451 22.8035 11.2427 22.8049 11.2403C22.9291 11.0219 23 10.7692 23 10.5C23 9.73337 22.4249 9.10106 21.6825 9.011C21.6791 9.01058 21.6757 9.01017 21.6722 9.00978C21.6157 9.00332 21.5582 9 21.5 9H20.5L18.8292 5.65836C18.321 4.64201 17.2822 4 16.1459 4H7.8541C6.71779 4 5.679 4.64201 5.17082 5.65836L3.5 9H2.5C2.43821 9 2.37728 9.00374 2.31745 9.011C2.27701 9.0159 2.23708 9.02242 2.1977 9.03047C1.51417 9.17034 1 9.77513 1 10.5C1 10.7722 1.07249 11.0274 1.19921 11.2475L1.20295 11.2539C1.23243 11.3045 1.2648 11.3533 1.29982 11.3999C1.31171 11.4157 1.32391 11.4313 1.3364 11.4467C1.54671 11.7049 1.84123 11.8917 2.1781 11.9654C2.0602 12.4384 2 12.9256 2 13.4164V16.5C2 17.3284 2.67157 18 3.5 18L3.5 20C3.5 20.8284 4.17157 21.5 5 21.5H7C7.82843 21.5 8.5 20.8284 8.5 20V18H15.5V20C15.5 20.8284 16.1716 21.5 17 21.5H19C19.8284 21.5 20.5 20.8284 20.5 20V18ZM20.5 16.5V13.4164C20.5 12.7178 20.3373 12.0288 20.0249 11.4039L19.573 10.5H4.42705L3.97508 11.4039C3.66265 12.0288 3.5 12.7178 3.5 13.4164L3.5 16.5H20.5ZM5.17705 9H18.823L17.4875 6.32918C17.2335 5.821 16.7141 5.5 16.1459 5.5H7.8541C7.28594 5.5 6.76655 5.821 6.51246 6.32918L5.17705 9ZM19 18H17V20H19V18ZM5 18H7V20H5V18Z" fill="#1B1B1B"/>
</svg>
