<svg width="24" height="24" viewBox="0 0 24 24" fill="none" xmlns="http://www.w3.org/2000/svg">
<path d="M10 10H6V13H10V10Z" fill="#1F7560"/>
<path d="M18.5 15.5L19.5 13.5L20.5 15.5L22.5 16.5L20.5 17.5L19.5 19.5L18.5 17.5L16.5 16.5L18.5 15.5Z" fill="#1F7560"/>
<path d="M16.5 11.5L15.8333 12.8333L14.5 13.5L15.8333 14.1667L16.5 15.5L17.1667 14.1667L18.5 13.5L17.1667 12.8333L16.5 11.5Z" fill="#1F7560"/>
<path d="M20.5 6.5H3.5L3.5 17.5H15V19H3.5C2.67157 19 2 18.3284 2 17.5V6.5C2 5.67157 2.67157 5 3.5 5H20.5C21.3284 5 22 5.67157 22 6.5V12H20.5V6.5Z" fill="#1B1B1B"/>
</svg>
