<svg width="24" height="24" viewBox="0 0 24 24" fill="none" xmlns="http://www.w3.org/2000/svg">
<path fill-rule="evenodd" clip-rule="evenodd" d="M6 13V10H10V13H6ZM20.9856 14.6037C21.0145 14.7492 20.9997 14.9 20.9429 15.037C20.8861 15.1741 20.79 15.2912 20.6667 15.3736C20.5433 15.456 20.3983 15.5 20.25 15.5H19.5V17.5H21V16.8713C21.1755 16.8093 21.3436 16.7253 21.5 16.6208C21.87 16.3736 22.1584 16.0222 22.3287 15.611C22.499 15.1999 22.5436 14.7475 22.4568 14.311C22.3699 13.8746 22.1557 13.4737 21.841 13.159C21.5263 12.8443 21.1254 12.6301 20.689 12.5432C20.2525 12.4564 19.8001 12.501 19.389 12.6713C18.9778 12.8416 18.6264 13.13 18.3792 13.5C18.132 13.87 18 14.305 18 14.75H19.5C19.5 14.6017 19.544 14.4567 19.6264 14.3333C19.7088 14.21 19.8259 14.1139 19.963 14.0571C20.1 14.0003 20.2508 13.9855 20.3963 14.0144C20.5418 14.0434 20.6754 14.1148 20.7803 14.2197C20.8852 14.3246 20.9566 14.4582 20.9856 14.6037ZM21.25 19C21.25 19.5523 20.8023 20 20.25 20C19.6977 20 19.25 19.5523 19.25 19C19.25 18.4477 19.6977 18 20.25 18C20.8023 18 21.25 18.4477 21.25 19Z" fill="#1F7560"/>
<path d="M3.5 6.5L3.5 17.5H17V19H3.5C2.67157 19 2 18.3284 2 17.5V6.5C2 5.67157 2.67157 5 3.5 5H20.5C21.1213 5 21.6544 5.37776 21.8821 5.91613C21.8938 5.94368 21.9046 5.97164 21.9146 6C21.9699 6.15639 22 6.32468 22 6.5V11H20.5V6.5H3.5Z" fill="#1B1B1B"/>
<path d="M6 10V13H10V10H6Z" fill="#1B1B1B"/>
</svg>
