<svg width="24" height="24" viewBox="0 0 24 24" fill="none" xmlns="http://www.w3.org/2000/svg">
<path d="M8 11C8.55228 11 9 10.5523 9 10C9 9.44772 8.55228 9 8 9C7.44772 9 7 9.44772 7 10C7 10.5523 7.44772 11 8 11Z" fill="#1F7560"/>
<path d="M17 10C17 10.5523 16.5523 11 16 11C15.4477 11 15 10.5523 15 10C15 9.44772 15.4477 9 16 9C16.5523 9 17 9.44772 17 10Z" fill="#1F7560"/>
<path d="M9.46967 12.5303C10.8671 13.9278 13.1329 13.9278 14.5303 12.5303L13.4697 11.4697C12.658 12.2813 11.342 12.2813 10.5303 11.4697L9.46967 12.5303Z" fill="#1F7560"/>
<path fill-rule="evenodd" clip-rule="evenodd" d="M2 5.5V21L5 18H20.5C21.3284 18 22 17.3284 22 16.5V5.5C22 4.67157 21.3284 4 20.5 4H3.5C2.67157 4 2 4.67157 2 5.5ZM20.5 16.5H4.37868L3.5 17.3787V5.5H20.5V16.5Z" fill="#1B1B1B"/>
</svg>
