<svg width="24" height="24" viewBox="0 0 24 24" fill="none" xmlns="http://www.w3.org/2000/svg">
<path d="M8 12C8.55228 12 9 11.5523 9 11C9 10.4477 8.55228 10 8 10C7.44772 10 7 10.4477 7 11C7 11.5523 7.44772 12 8 12Z" fill="#1F7560"/>
<path d="M13 11C13 11.5523 12.5523 12 12 12C11.4477 12 11 11.5523 11 11C11 10.4477 11.4477 10 12 10C12.5523 10 13 10.4477 13 11Z" fill="#1F7560"/>
<path d="M16 12C16.5523 12 17 11.5523 17 11C17 10.4477 16.5523 10 16 10C15.4477 10 15 10.4477 15 11C15 11.5523 15.4477 12 16 12Z" fill="#1F7560"/>
<path fill-rule="evenodd" clip-rule="evenodd" d="M2 5.5V21L5 18H20.5C21.3284 18 22 17.3284 22 16.5V5.5C22 4.67157 21.3284 4 20.5 4H3.5C2.67157 4 2 4.67157 2 5.5ZM20.5 16.5H4.37868L3.5 17.3787V5.5H20.5V16.5Z" fill="#1B1B1B"/>
</svg>
