<svg width="24" height="24" viewBox="0 0 24 24" fill="none" xmlns="http://www.w3.org/2000/svg">
<path d="M7 10.5C7.55228 10.5 8 10.0523 8 9.5C8 8.94772 7.55228 8.5 7 8.5C6.44772 8.5 6 8.94772 6 9.5C6 10.0523 6.44772 10.5 7 10.5Z" fill="#1F7560"/>
<path d="M11.5 9.5C11.5 10.0523 11.0523 10.5 10.5 10.5C9.94772 10.5 9.5 10.0523 9.5 9.5C9.5 8.94772 9.94772 8.5 10.5 8.5C11.0523 8.5 11.5 8.94772 11.5 9.5Z" fill="#1F7560"/>
<path d="M14 10.5C14.5523 10.5 15 10.0523 15 9.5C15 8.94772 14.5523 8.5 14 8.5C13.4477 8.5 13 8.94772 13 9.5C13 10.0523 13.4477 10.5 14 10.5Z" fill="#1F7560"/>
<path fill-rule="evenodd" clip-rule="evenodd" d="M2 18V5.5C2 4.67157 2.67157 4 3.5 4H17.5C18.3284 4 19 4.67157 19 5.5V13.5C19 14.3284 18.3284 15 17.5 15H5L2 18ZM4.37868 13.5H17.5V5.5H3.5V14.3787L4.37868 13.5Z" fill="#1B1B1B"/>
<path d="M5 16.5C5 17.3284 5.67157 18 6.5 18H19L22 21V8.5C22 7.67157 21.3284 7 20.5 7V17.3787L19.6213 16.5H5Z" fill="#1B1B1B"/>
</svg>
