<svg width="24" height="24" viewBox="0 0 24 24" fill="none" xmlns="http://www.w3.org/2000/svg">
<path fill-rule="evenodd" clip-rule="evenodd" d="M12.7571 9V10.1035C13.5805 10.3359 14.2472 10.9407 14.563 11.724L13.2316 12.4927C13.1127 11.9258 12.609 11.5 12.0056 11.5C11.3138 11.5 10.7531 12.0596 10.7531 12.75V14.25C10.7531 14.9404 11.3138 15.5 12.0056 15.5C12.6114 15.5 13.1167 15.0708 13.233 14.5005L14.5655 15.2699C14.5341 15.3484 14.4991 15.4252 14.4608 15.5C14.1156 16.1738 13.5002 16.6868 12.7571 16.8965V18H11.2541V16.8965C10.0975 16.57 9.25 15.5088 9.25 14.25V12.75C9.25 11.4912 10.0975 10.43 11.2541 10.1035V9H12.7571Z" fill="#1F7560"/>
<path fill-rule="evenodd" clip-rule="evenodd" d="M3 5.25C3 4.00736 4.00736 3 5.25 3H19.5V5.99994H21V20.9999H6C4.34315 20.9999 3 19.6568 3 17.9999V5.25ZM4.5 7.37197C4.73458 7.45488 4.98702 7.5 5.25 7.5H19.5V19.4999H6C5.17157 19.4999 4.5 18.8284 4.5 17.9999V7.37197ZM4.52407 5.4392C4.60792 5.76179 4.90112 5.99994 5.24994 5.99994H18V4.5H5.25C4.83579 4.5 4.5 4.83579 4.5 5.25C4.5 5.31536 4.50836 5.37876 4.52407 5.4392Z" fill="#1B1B1B"/>
</svg>
