<svg width="24" height="24" viewBox="0 0 24 24" fill="none" xmlns="http://www.w3.org/2000/svg">
<path d="M14.2612 4.75C14.3875 3.34837 15.5655 2.25 17 2.25C18.5188 2.25 19.75 3.48122 19.75 5H18.25C18.25 4.30964 17.6904 3.75 17 3.75C16.3953 3.75 15.8908 4.17944 15.775 4.75H17.5V6.25H15.75V6.75H17.5V8.25H15.775C15.8908 8.82056 16.3953 9.25 17 9.25C17.6904 9.25 18.25 8.69036 18.25 8H19.75C19.75 9.51878 18.5188 10.75 17 10.75C15.5655 10.75 14.3875 9.65163 14.2612 8.25H13.5V6.75H14.25V6.25H13.5V4.75H14.2612Z" fill="#1F7560"/>
<path fill-rule="evenodd" clip-rule="evenodd" d="M7.75 2.26373V1.5H6.25V2.26879C5.12183 2.4136 4.25 3.37753 4.25 4.54508C4.25 5.4144 4.74115 6.2091 5.51869 6.59787L6.25 6.96353V9.20732C5.9587 9.10436 5.75 8.82655 5.75 8.5H4.25C4.25 9.65814 5.12501 10.6119 6.25 10.7363V11.5H7.75V10.7312C8.87817 10.5864 9.75 9.62247 9.75 8.45492C9.75 7.5856 9.25885 6.7909 8.48131 6.40213L7.75 6.03647V3.79268C8.0413 3.89564 8.25 4.17345 8.25 4.5H9.75C9.75 3.34186 8.87499 2.38809 7.75 2.26373ZM6.25 3.80656C5.95699 3.92374 5.75 4.21024 5.75 4.54508C5.75 4.84624 5.92015 5.12155 6.18951 5.25623L6.25 5.28647V3.80656ZM7.75 7.71353V9.19344C8.04301 9.07626 8.25 8.78976 8.25 8.45492C8.25 8.15376 8.07985 7.87845 7.81049 7.74377L7.75 7.71353Z" fill="#1B1B1B"/>
<path d="M3.46973 14.5303L5.6894 16.75H4.50006V18.25H6.25006V18.75H4.50006V20.25H6.25006V21.75H7.75006V20.25H9.50006V18.75H7.75006V18.25H9.50006V16.75H8.31072L10.5304 14.5303L9.46973 13.4697L7.00006 15.9393L4.53039 13.4697L3.46973 14.5303Z" fill="#1B1B1B"/>
<path d="M14.25 18.25H13.5V16.75H14.25V16C14.25 14.4812 15.4812 13.25 17 13.25C18.5188 13.25 19.75 14.4812 19.75 16H18.25C18.25 15.3096 17.6904 14.75 17 14.75C16.3096 14.75 15.75 15.3096 15.75 16V16.75H17.5V18.25H15.75V19.5C15.75 19.763 15.7049 20.0154 15.622 20.25H19.5V21.75H13.5V20.25C13.9142 20.25 14.25 19.9142 14.25 19.5V18.25Z" fill="#1B1B1B"/>
</svg>
