<svg width="24" height="24" viewBox="0 0 24 24" fill="none" xmlns="http://www.w3.org/2000/svg">
<path d="M11.25 12.25C11.25 12.9404 10.6904 13.5 10 13.5C9.30964 13.5 8.75 12.9404 8.75 12.25C8.75 11.5596 9.30964 11 10 11C10.6904 11 11.25 11.5596 11.25 12.25Z" fill="#1F7560"/>
<path d="M13.9697 11.2197L8.96967 16.2197L10.0303 17.2803L15.0303 12.2803L13.9697 11.2197Z" fill="#1F7560"/>
<path d="M15.25 16.25C15.25 16.9404 14.6904 17.5 14 17.5C13.3096 17.5 12.75 16.9404 12.75 16.25C12.75 15.5596 13.3096 15 14 15C14.6904 15 15.25 15.5596 15.25 16.25Z" fill="#1F7560"/>
<path fill-rule="evenodd" clip-rule="evenodd" d="M20 20.5V8.25L13.75 2H5.5C4.67157 2 4 2.67157 4 3.5V20.5C4 21.3284 4.67157 22 5.5 22H18.5C19.3284 22 20 21.3284 20 20.5ZM13 3.5V9H18.5V20.5H5.5V3.5H13ZM17.1287 7.5L14.5 4.87132V7.5H17.1287Z" fill="#1B1B1B"/>
</svg>
