<svg width="24" height="24" viewBox="0 0 24 24" fill="none" xmlns="http://www.w3.org/2000/svg">
<path d="M12 10C12.4142 10 12.75 10.3358 12.75 10.75V11.25H15.75V14.25C15.75 14.6642 15.4142 15 15 15C14.5858 15 14.25 14.6642 14.25 14.25V12.75H12.75V16.25H15V17.75H9V16.25H11.25V12.75H9.75V14.25C9.75 14.6642 9.41421 15 9 15C8.58579 15 8.25 14.6642 8.25 14.25V11.25H11.25V10.75C11.25 10.3358 11.5858 10 12 10Z" fill="#1F7560"/>
<path fill-rule="evenodd" clip-rule="evenodd" d="M20 20.5V8.25L13.75 2H5.5C4.67157 2 4 2.67157 4 3.5V20.5C4 21.3284 4.67157 22 5.5 22H18.5C19.3284 22 20 21.3284 20 20.5ZM13 3.5V9H18.5V20.5H5.5V3.5H13ZM17.1287 7.5L14.5 4.87132V7.5H17.1287Z" fill="#1B1B1B"/>
</svg>
