<svg width="24" height="24" viewBox="0 0 24 24" fill="none" xmlns="http://www.w3.org/2000/svg">
<path fill-rule="evenodd" clip-rule="evenodd" d="M12.75 0V2.0334C15.6953 2.29648 18.1284 4.07978 19.1708 6.16459L17.8292 6.83541C17.0402 5.2575 15.1282 3.79948 12.75 3.54064V11.3723C14.0773 11.6275 15.4332 12.0108 16.5161 12.6725C17.8142 13.4658 18.75 14.6852 18.75 16.5C18.75 16.5419 18.7495 16.5836 18.7485 16.6251C18.7495 16.6664 18.75 16.7081 18.75 16.75C18.75 18.5409 17.8389 19.8838 16.541 20.749C15.4629 21.4678 14.1144 21.8652 12.75 21.971V24H11.25V21.9666C8.30468 21.7035 5.87158 19.9202 4.82918 17.8354L6.17082 17.1646C6.95977 18.7425 8.87179 20.2005 11.25 20.4594V12.6277C9.92268 12.3725 8.56682 11.9892 7.4839 11.3275C6.18578 10.5342 5.24999 9.31479 5.24999 7.5C5.24999 7.45809 5.25049 7.41639 5.25148 7.3749C5.25049 7.33355 5.24999 7.29192 5.24999 7.25C5.24999 5.45907 6.16111 4.1162 7.45896 3.25096C8.53707 2.53223 9.88554 2.13483 11.25 2.02899V0H12.75ZM12.75 12.9092V20.4598C13.8472 20.342 14.8867 19.9692 15.6859 19.392C16.6181 18.7187 17.2083 17.7853 17.2479 16.6252C17.209 15.4944 16.6398 14.6821 15.709 14.0615C14.9146 13.532 13.877 13.1609 12.75 12.9092ZM11.25 11.0908V3.54019C10.1528 3.65797 9.11329 4.03082 8.31411 4.60801C7.38193 5.28125 6.79172 6.21472 6.75212 7.37482C6.79097 8.50562 7.3602 9.31792 8.29101 9.93846C9.08535 10.468 10.123 10.8391 11.25 11.0908Z" fill="#1B1B1B"/>
</svg>
