<svg width="24" height="24" viewBox="0 0 24 24" fill="none" xmlns="http://www.w3.org/2000/svg">
<path d="M11.4697 16.5303C11.7626 16.8232 12.2374 16.8232 12.5303 16.5303L16.5303 12.5303L15.4697 11.4697L12.75 14.1893V3H11.25V14.1893L8.53033 11.4697L7.46968 12.5303L11.4697 16.5303Z" fill="#1F7560"/>
<path d="M19.5 8.5V19.5H4.5V8.5H9V7H4.5C3.67157 7 3 7.67157 3 8.5V19.5C3 20.3284 3.67157 21 4.5 21H19.5C20.3284 21 21 20.3284 21 19.5V8.5C21 7.67157 20.3284 7 19.5 7H15V8.5H19.5Z" fill="#1B1B1B"/>
</svg>
