<svg width="24" height="24" viewBox="0 0 24 24" fill="none" xmlns="http://www.w3.org/2000/svg">
<path d="M11.2499 2V5H12.7499V2H11.2499Z" fill="#1F7560"/>
<path d="M6.33213 6.27658L5.18408 3.50495L6.5699 2.93092L7.71795 5.70256L6.33213 6.27658Z" fill="#1F7560"/>
<path d="M17.4299 2.9309L16.2819 5.70254L17.6677 6.27657L18.8158 3.50493L17.4299 2.9309Z" fill="#1F7560"/>
<path fill-rule="evenodd" clip-rule="evenodd" d="M19.5 8C20.3284 8 21 8.67157 21 9.5V18.5C21 19.3284 20.3284 20 19.5 20H4.5C3.67157 20 3 19.3284 3 18.5V9.5C3 8.67157 3.67157 8 4.5 8H19.5ZM4.5 18.5L4.5 10.1514L12 15.1514L19.5 10.1514V18.5H4.5ZM6.45416 9.5L12 13.1972L17.5458 9.5H6.45416Z" fill="#1B1B1B"/>
</svg>
