<svg width="24" height="24" viewBox="0 0 24 24" fill="none" xmlns="http://www.w3.org/2000/svg">
<path d="M9 10.5L10 8.5L11 10.5L13 11.5L11 12.5L10 14.5L9 12.5L7 11.5L9 10.5Z" fill="#1F7560"/>
<path d="M15 11.5L14.3333 12.8333L13 13.5L14.3333 14.1667L15 15.5L15.6667 14.1667L17 13.5L15.6667 12.8333L15 11.5Z" fill="#1F7560"/>
<path fill-rule="evenodd" clip-rule="evenodd" d="M22 10L21.9999 6.49999C21.9999 5.67157 21.3284 5 20.4999 5H3.50004C2.67162 5 2.00004 5.67157 2.00004 6.5L2.00003 10C3.10458 10 4 10.8954 4 12C4 13.1046 3.10458 14 2.00001 14L2 17.5C2 18.3284 2.67157 19 3.5 19H20.5C21.3284 19 22 18.3284 22 17.5L22 14C20.8954 14 20 13.1046 20 12C20 10.8954 20.8954 10 22 10ZM20.4999 6.5L3.50004 6.5L3.50003 8.83683C4.68249 9.39857 5.5 10.6038 5.5 12C5.5 13.3962 4.68248 14.6014 3.50001 15.1632L3.5 17.5H20.5L20.5 15.1632C19.3175 14.6014 18.5 13.3962 18.5 12C18.5 10.6038 19.3175 9.39858 20.5 8.83684L20.4999 6.5Z" fill="#1B1B1B"/>
</svg>
