<svg width="24" height="24" viewBox="0 0 24 24" fill="none" xmlns="http://www.w3.org/2000/svg">
<path d="M8 3H4.5C3.67157 3 3 3.67157 3 4.5V8H4.5L4.5 4.5H8V3Z" fill="#1F7560"/>
<path d="M3 19.5V16H4.5L4.5 19.5H8V21H4.5C3.67157 21 3 20.3284 3 19.5Z" fill="#1F7560"/>
<path d="M19.5 19.5V16H21V19.5C21 20.3284 20.3284 21 19.5 21H16V19.5H19.5Z" fill="#1F7560"/>
<path d="M21 4.5V8H19.5V4.5H16V3H19.5C20.3284 3 21 3.67157 21 4.5Z" fill="#1F7560"/>
<path d="M16.0303 9.53039L14.9697 8.46973L10.5 12.9394L8.53033 10.9697L7.46967 12.0304L9.96967 14.5304C10.2626 14.8233 10.7374 14.8233 11.0303 14.5304L16.0303 9.53039Z" fill="#1B1B1B"/>
</svg>
