<svg width="24" height="24" viewBox="0 0 24 24" fill="none" xmlns="http://www.w3.org/2000/svg">
<path fill-rule="evenodd" clip-rule="evenodd" d="M13.8095 16.5C13.7396 16.2293 13.6507 15.9633 13.5433 15.7039C13.3079 15.1357 12.987 14.6081 12.5926 14.1389C12.8237 13.7076 13.1172 13.3117 13.4645 12.9645C13.9288 12.5002 14.48 12.1319 15.0866 11.8806C15.6932 11.6293 16.3434 11.5 17 11.5C17.6566 11.5 18.3068 11.6293 18.9134 11.8806C19.52 12.1319 20.0712 12.5002 20.5355 12.9645C20.9998 13.4288 21.3681 13.98 21.6194 14.5866C21.6756 14.7223 21.7258 14.8603 21.7697 15C21.9221 15.4846 22 15.9903 22 16.5H20.5H17H13.8095ZM17 9C17.5523 9 18 8.55228 18 8C18 7.44772 17.5523 7 17 7C16.4477 7 16 7.44772 16 8C16 8.55228 16.4477 9 17 9ZM19.5 8C19.5 9.38071 18.3807 10.5 17 10.5C15.6193 10.5 14.5 9.38071 14.5 8C14.5 6.61929 15.6193 5.5 17 5.5C18.3807 5.5 19.5 6.61929 19.5 8ZM14.5251 14.0251C14.2416 14.3087 14.0092 14.6385 13.8377 15H17H20.1623C19.9908 14.6385 19.7584 14.3087 19.4749 14.0251C19.1499 13.7001 18.764 13.4423 18.3394 13.2664C17.9148 13.0905 17.4596 13 17 13C16.5404 13 16.0853 13.0905 15.6606 13.2664C15.236 13.4423 14.8501 13.7001 14.5251 14.0251Z" fill="#1F7560"/>
<path fill-rule="evenodd" clip-rule="evenodd" d="M9.5 8C9.5 8.82843 8.82843 9.5 8 9.5C7.17157 9.5 6.5 8.82843 6.5 8C6.5 7.17157 7.17157 6.5 8 6.5C8.82843 6.5 9.5 7.17157 9.5 8ZM8 11C9.65685 11 11 9.65685 11 8C11 6.34315 9.65685 5 8 5C6.34315 5 5 6.34315 5 8C5 9.65685 6.34315 11 8 11ZM12.1575 16.2779C12.1878 16.3513 12.2162 16.4253 12.2426 16.5H3.75736C3.78376 16.4253 3.81216 16.3513 3.84254 16.2779C4.06869 15.732 4.40016 15.2359 4.81802 14.818C5.23588 14.4002 5.73196 14.0687 6.27792 13.8425C6.82389 13.6164 7.40905 13.5 8 13.5C8.59095 13.5 9.17611 13.6164 9.72208 13.8425C10.268 14.0687 10.7641 14.4002 11.182 14.818C11.5998 15.2359 11.9313 15.732 12.1575 16.2779ZM13.5433 15.7039C13.6507 15.9633 13.7396 16.2293 13.8095 16.5C13.9357 16.9889 14 17.4928 14 18H2C2 17.4928 2.0643 16.9889 2.19052 16.5C2.26041 16.2293 2.34927 15.9633 2.45672 15.7039C2.75825 14.9759 3.20021 14.3145 3.75736 13.7574C4.31451 13.2002 4.97595 12.7583 5.7039 12.4567C6.43185 12.1552 7.21207 12 8 12C8.78793 12 9.56815 12.1552 10.2961 12.4567C11.0241 12.7583 11.6855 13.2002 12.2426 13.7574C12.7998 14.3145 13.2417 14.9759 13.5433 15.7039Z" fill="#1B1B1B"/>
</svg>
