<svg width="24" height="24" viewBox="0 0 24 24" fill="none" xmlns="http://www.w3.org/2000/svg">
<path d="M8 3H4.5C3.67157 3 3 3.67157 3 4.5V8H4.5L4.5 4.5H8V3Z" fill="#1F7560"/>
<path d="M3 19.5V16H4.5L4.5 19.5H8V21H4.5C3.67157 21 3 20.3284 3 19.5Z" fill="#1F7560"/>
<path d="M19.5 19.5V16H21V19.5C21 20.3284 20.3284 21 19.5 21H16V19.5H19.5Z" fill="#1F7560"/>
<path d="M21 4.5V8H19.5V4.5H16V3H19.5C20.3284 3 21 3.67157 21 4.5Z" fill="#1F7560"/>
<path d="M15.75 13V11.75C15.75 9.67893 14.0711 8 12 8C10.0129 8 8.38685 9.54549 8.2582 11.5H6.75585C6.88634 8.71659 9.18431 6.5 12 6.5C14.8995 6.5 17.25 8.8505 17.25 11.75V13H15.75Z" fill="#1B1B1B"/>
<path d="M17.25 17.5H15.75V14.5H17.25V17.5Z" fill="#1B1B1B"/>
<path d="M14.25 17.5V11.75C14.25 10.5074 13.2426 9.5 12 9.5C10.7574 9.5 9.75 10.5074 9.75 11.75V14.5H11.25V11.75C11.25 11.3358 11.5858 11 12 11C12.4142 11 12.75 11.3358 12.75 11.75V17.5H14.25Z" fill="#1B1B1B"/>
<path d="M11.25 16V17.5H9.75V16H11.25Z" fill="#1B1B1B"/>
<path d="M8.25 13V17.5H6.75V13H8.25Z" fill="#1B1B1B"/>
</svg>
