<svg width="24" height="24" viewBox="0 0 24 24" fill="none" xmlns="http://www.w3.org/2000/svg">
<path d="M12.75 5V2H11.25V5H12.75Z" fill="#1F7560"/>
<path d="M12.75 19V22H11.25V19H12.75Z" fill="#1F7560"/>
<path d="M5.45929 19.6014L4.39862 18.5407L6.51995 16.4194L7.58061 17.4801L5.45929 19.6014Z" fill="#1F7560"/>
<path d="M16.4194 6.5199L17.4801 7.58056L19.6014 5.45924L18.5408 4.39858L16.4194 6.5199Z" fill="#1F7560"/>
<path d="M5 12.75H2V11.25H5V12.75Z" fill="#1F7560"/>
<path d="M19 12.75H22V11.25H19V12.75Z" fill="#1F7560"/>
<path d="M6.51995 7.58061L4.39862 5.45929L5.45929 4.39862L7.58061 6.51995L6.51995 7.58061Z" fill="#1F7560"/>
<path d="M17.4801 16.4194L16.4194 17.4801L18.5408 19.6014L19.6014 18.5408L17.4801 16.4194Z" fill="#1F7560"/>
<path fill-rule="evenodd" clip-rule="evenodd" d="M12 17C14.7614 17 17 14.7614 17 12C17 9.23858 14.7614 7 12 7C9.23858 7 7 9.23858 7 12C7 14.7614 9.23858 17 12 17ZM12 15.5C13.933 15.5 15.5 13.933 15.5 12C15.5 10.067 13.933 8.5 12 8.5C10.067 8.5 8.5 10.067 8.5 12C8.5 13.933 10.067 15.5 12 15.5Z" fill="#1B1B1B"/>
</svg>
