<svg width="24" height="24" viewBox="0 0 24 24" fill="none" xmlns="http://www.w3.org/2000/svg">
<path d="M8 3H4.5C3.67157 3 3 3.67157 3 4.5V8H4.5L4.5 4.5H8V3Z" fill="#1F7560"/>
<path d="M3 19.5V16H4.5L4.5 19.5H8V21H4.5C3.67157 21 3 20.3284 3 19.5Z" fill="#1F7560"/>
<path d="M19.5 19.5V16H21V19.5C21 20.3284 20.3284 21 19.5 21H16V19.5H19.5Z" fill="#1F7560"/>
<path d="M21 4.5V8H19.5V4.5H16V3H19.5C20.3284 3 21 3.67157 21 4.5Z" fill="#1F7560"/>
<path fill-rule="evenodd" clip-rule="evenodd" d="M10 13V15H11.5V11.25C11.5 10.0074 10.4926 9 9.25 9C8.00736 9 7 10.0074 7 11.25V15H8.5V13H10ZM10 11.5V11.25C10 10.8358 9.66421 10.5 9.25 10.5C8.83579 10.5 8.5 10.8358 8.5 11.25V11.5H10Z" fill="#1B1B1B"/>
<path d="M13 15V9H17V10.5H14.5V11.5H16.5V13H14.5V15H13Z" fill="#1B1B1B"/>
</svg>
