<svg width="24" height="24" viewBox="0 0 24 24" fill="none" xmlns="http://www.w3.org/2000/svg">
<path fill-rule="evenodd" clip-rule="evenodd" d="M19.25 11.6893L12 18.9393V22H15.0607L22.3107 14.75L19.25 11.6893ZM13.8107 19.25L19.25 13.8107L20.1893 14.75L14.75 20.1893L13.8107 19.25Z" fill="#1F7560"/>
<path fill-rule="evenodd" clip-rule="evenodd" d="M9.87868 6.87868C8.70711 8.05025 8.70711 9.94975 9.87868 11.1213L12 13.2426L14.1213 11.1213C15.2929 9.94975 15.2929 8.05025 14.1213 6.87868C12.9497 5.70711 11.0503 5.70711 9.87868 6.87868ZM12 10.5C12.8284 10.5 13.5 9.82843 13.5 9C13.5 8.17157 12.8284 7.5 12 7.5C11.1715 7.5 10.5 8.17157 10.5 9C10.5 9.82843 11.1715 10.5 12 10.5Z" fill="#1F7560"/>
<path d="M5.5 3.5H18.5V10H20V3.5C20 2.67157 19.3284 2 18.5 2H5.5C4.67157 2 4 2.67157 4 3.5V20.5C4 21.3284 4.67157 22 5.5 22H10V20.5H5.5V3.5Z" fill="#1B1B1B"/>
</svg>
