<svg width="24" height="24" viewBox="0 0 24 24" fill="none" xmlns="http://www.w3.org/2000/svg">
<path fill-rule="evenodd" clip-rule="evenodd" d="M8.25 5.25012C8.25 4.00748 9.25736 3.00012 10.5 3.00012C11.0763 3.00012 11.6019 3.21676 12 3.57304C12.3981 3.21676 12.9237 3.00012 13.5 3.00012C14.7426 3.00012 15.75 4.00748 15.75 5.25012C15.75 6.49276 14.7426 7.50012 13.5 7.50012H12.75V21.0001H11.25V7.50012H10.5C9.25736 7.50012 8.25 6.49276 8.25 5.25012ZM11.25 6.00012V5.25012C11.25 4.83591 10.9142 4.50012 10.5 4.50012C10.0858 4.50012 9.75 4.83591 9.75 5.25012C9.75 5.66434 10.0858 6.00012 10.5 6.00012H11.25ZM12.75 5.25012V6.00012H13.5C13.9142 6.00012 14.25 5.66434 14.25 5.25012C14.25 4.83591 13.9142 4.50012 13.5 4.50012C13.0858 4.50012 12.75 4.83591 12.75 5.25012Z" fill="#1F7560"/>
<path fill-rule="evenodd" clip-rule="evenodd" d="M4 10.5001C3.17157 10.5001 2.5 9.82855 2.5 9.00012V7.50012C2.5 6.67169 3.17157 6.00012 4 6.00012H20C20.8284 6.00012 21.5 6.67169 21.5 7.50012V9.00012C21.5 9.82855 20.8284 10.5001 20 10.5001V19.5001C20 20.3285 19.3284 21.0001 18.5 21.0001H5.5C4.67157 21.0001 4 20.3285 4 19.5001L4 10.5001ZM4 7.50012H20V9.00012H4L4 7.50012ZM18.5 10.5001H5.5V19.5001H18.5V10.5001Z" fill="#1B1B1B"/>
</svg>
