<svg width="24" height="24" viewBox="0 0 24 24" fill="none" xmlns="http://www.w3.org/2000/svg">
<path fill-rule="evenodd" clip-rule="evenodd" d="M13.5786 20.3537C13.0671 20.4498 12.5394 20.5 12 20.5C11.4606 20.5 10.9329 20.4498 10.4213 20.3537C8.65195 18.1188 7.69241 15.4526 7.54272 12.75H3.53263C3.51103 12.5029 3.5 12.2527 3.5 12C3.5 11.7473 3.51103 11.4971 3.53263 11.25H7.54273C7.69244 8.54736 8.65201 5.88122 10.4214 3.64631C10.9329 3.55024 11.4606 3.5 12 3.5C12.5394 3.5 13.0671 3.55025 13.5787 3.64633C15.3481 5.88124 16.3076 8.54738 16.4573 11.25H20.4674C20.489 11.4971 20.5 11.7473 20.5 12C20.5 12.2527 20.489 12.5029 20.4674 12.75H16.4573C16.3076 15.4526 15.348 18.1188 13.5786 20.3537ZM12.0001 4.09539C13.8096 6.15162 14.7944 8.67991 14.9547 11.25H9.04533C9.20561 8.6799 10.1905 6.15161 12.0001 4.09539ZM9.04533 12.75H14.9547C14.7944 15.3201 13.8095 17.8484 12 19.9046C10.1905 17.8484 9.20557 15.3201 9.04533 12.75Z" fill="#1F7560"/>
<path fill-rule="evenodd" clip-rule="evenodd" d="M12 20.5C16.6944 20.5 20.5 16.6944 20.5 12C20.5 7.30558 16.6944 3.5 12 3.5C7.30558 3.5 3.5 7.30558 3.5 12C3.5 16.6944 7.30558 20.5 12 20.5ZM12 22C17.5228 22 22 17.5228 22 12C22 6.47715 17.5228 2 12 2C6.47715 2 2 6.47715 2 12C2 17.5228 6.47715 22 12 22Z" fill="#1B1B1B"/>
</svg>
