<svg width="24" height="24" viewBox="0 0 24 24" fill="none" xmlns="http://www.w3.org/2000/svg">
<path fill-rule="evenodd" clip-rule="evenodd" d="M12 5.99981C14.2092 3.79074 17.7909 3.79081 20.0001 5.99994C22.2092 8.2091 22.2092 11.7909 20.0001 14L12 22.0001L3.9999 14C1.79074 11.7909 1.79071 8.2091 3.99987 5.99994C6.20902 3.79079 9.79088 3.79067 12 5.99981ZM10.9393 7.06059L11.9999 8.12125L13.0607 7.06054C14.6841 5.43723 17.3161 5.43725 18.9394 7.0606C20.5628 8.68398 20.5628 11.316 18.9394 12.9394L12 19.8788L5.06056 12.9394C4.99885 12.8777 4.93946 12.8145 4.88244 12.75H8.45217L9.03748 11.641L10.9385 15.4431L12.8835 12.7501H15V11.2501H12.1165L11.1726 12.5571L9.07358 8.35914L7.54777 11.25H4.03449C3.58493 9.8196 3.92694 8.19419 5.06053 7.0606C6.6839 5.43724 9.3159 5.43723 10.9393 7.06059Z" fill="#1B1B1B"/>
</svg>
