<svg width="24" height="24" viewBox="0 0 24 24" fill="none" xmlns="http://www.w3.org/2000/svg">
<path fill-rule="evenodd" clip-rule="evenodd" d="M12.75 8H11.25V13H12.75V8ZM12 15.75C12.5523 15.75 13 15.3023 13 14.75C13 14.1977 12.5523 13.75 12 13.75C11.4477 13.75 11 14.1977 11 14.75C11 15.3023 11.4477 15.75 12 15.75Z" fill="#1F7560"/>
<path fill-rule="evenodd" clip-rule="evenodd" d="M12 20.5C16.6944 20.5 20.5 16.6944 20.5 12C20.5 7.30558 16.6944 3.5 12 3.5C7.30558 3.5 3.5 7.30558 3.5 12C3.5 16.6944 7.30558 20.5 12 20.5ZM12 22C17.5228 22 22 17.5228 22 12C22 6.47715 17.5228 2 12 2C6.47715 2 2 6.47715 2 12C2 17.5228 6.47715 22 12 22Z" fill="#1B1B1B"/>
</svg>
