<svg width="24" height="24" viewBox="0 0 24 24" fill="none" xmlns="http://www.w3.org/2000/svg">
<path fill-rule="evenodd" clip-rule="evenodd" d="M3.5 11.9999C3.5 9.92277 4.24508 8.01962 5.48256 6.54317L4.4184 5.479C2.91114 7.22982 2 9.50848 2 11.9999C2 14.7614 3.11929 17.2614 4.92893 19.071L5.98959 18.0104C4.45139 16.4722 3.5 14.3472 3.5 11.9999ZM9.99999 12C9.99999 11.7229 10.0564 11.4589 10.1583 11.2189L7.93933 8.99999L8.99999 7.93933L11.2189 10.1583C11.4589 10.0564 11.7229 9.99999 12 9.99999C13.1046 9.99999 14 10.8954 14 12C14 13.1046 13.1046 14 12 14C10.8954 14 9.99999 13.1046 9.99999 12Z" fill="#1F7560"/>
<path d="M20.5 12C20.5 14.3472 19.5486 16.4722 18.0104 18.0104L19.0711 19.0711C20.8807 17.2614 22 14.7614 22 12C22 6.47715 17.5228 2 12 2C9.50853 2 7.22987 2.91114 5.47905 4.4184L6.54322 5.48256C8.01967 4.24508 9.92282 3.5 12 3.5C16.6944 3.5 20.5 7.30558 20.5 12Z" fill="#1B1B1B"/>
</svg>
