<svg width="24" height="24" viewBox="0 0 24 24" fill="none" xmlns="http://www.w3.org/2000/svg">
<path d="M12.75 16.5493C13.1984 16.29 13.5 15.8052 13.5 15.25C13.5 14.4216 12.8284 13.75 12 13.75C11.1716 13.75 10.5 14.4216 10.5 15.25C10.5 15.8052 10.8016 16.29 11.25 16.5493V18H12.75V16.5493Z" fill="#1F7560"/>
<path fill-rule="evenodd" clip-rule="evenodd" d="M7 10V6.5C7 3.73858 9.23858 1.5 12 1.5C14.7614 1.5 17 3.73858 17 6.5V10H17.5C18.3284 10 19 10.6716 19 11.5V20.5C19 21.3284 18.3284 22 17.5 22H6.5C5.67157 22 5 21.3284 5 20.5V11.5C5 10.6716 5.67157 10 6.5 10H7ZM15.5 6.5V10H8.5V6.5C8.5 4.567 10.067 3 12 3C13.933 3 15.5 4.567 15.5 6.5ZM6.5 11.5V20.5H17.5V11.5H6.5Z" fill="#1B1B1B"/>
</svg>
