<svg width="24" height="24" viewBox="0 0 24 24" fill="none" xmlns="http://www.w3.org/2000/svg">
<path d="M11.25 4V1H12.75V4H11.25Z" fill="#1F7560"/>
<path d="M5.18454 2.5049L6.33259 5.2766L7.71841 4.70259L6.57036 1.93089L5.18454 2.5049Z" fill="#1F7560"/>
<path d="M16.2817 4.70258L17.4298 1.93088L18.8156 2.50491L17.6675 5.27661L16.2817 4.70258Z" fill="#1F7560"/>
<path d="M12.75 23V20H11.25V23H12.75Z" fill="#1F7560"/>
<path d="M17.6675 18.7234L18.8156 21.4951L17.4298 22.0691L16.2817 19.2974L17.6675 18.7234Z" fill="#1F7560"/>
<path d="M6.57036 22.0691L7.71841 19.2974L6.33259 18.7234L5.18454 21.4951L6.57036 22.0691Z" fill="#1F7560"/>
<path d="M14 12C14 13.1046 13.1046 14 12 14C10.8954 14 10 13.1046 10 12C10 10.8954 10.8954 10 12 10C13.1046 10 14 10.8954 14 12Z" fill="#1B1B1B"/>
<path fill-rule="evenodd" clip-rule="evenodd" d="M3.5 18C2.67157 18 2 17.3284 2 16.5V7.5C2 6.6716 2.67157 6 3.5 6H20.5C21.3284 6 22 6.6716 22 7.5V16.5C22 17.3284 21.3284 18 20.5 18H3.5ZM3.5 16.5V7.5H20.5V16.5H3.5Z" fill="#1B1B1B"/>
</svg>
