<svg width="24" height="24" viewBox="0 0 24 24" fill="none" xmlns="http://www.w3.org/2000/svg">
<path d="M10.6556 10.473L11.3036 11.778L13.1936 15H14.4986V8.718H13.3736V13.245H13.3466L12.6986 11.94L10.8086 8.718H9.50362V15H10.6286V10.473H10.6556Z" fill="#1F7560"/>
<path d="M9.5 6.5H14.5V7.5H9.5V6.5Z" fill="#1F7560"/>
<path d="M9.5 16.5V17.5H14.5V16.5H9.5Z" fill="#1F7560"/>
<path fill-rule="evenodd" clip-rule="evenodd" d="M21 23L16.8245 21.4817C16.3294 21.3016 16.0818 21.2116 15.8277 21.1483C15.602 21.092 15.3727 21.0516 15.1413 21.0273C14.8809 21 14.6175 21 14.0906 21H11C8.19974 21 6.79961 21 5.73005 20.455C4.78924 19.9757 4.02433 19.2108 3.54497 18.27C3 17.2004 3 15.8003 3 13V11C3 8.19974 3 6.79961 3.54497 5.73005C4.02433 4.78924 4.78924 4.02433 5.73005 3.54497C6.79961 3 8.19974 3 11 3H13C15.8003 3 17.2004 3 18.27 3.54497C19.2108 4.02433 19.9757 4.78924 20.455 5.73005C21 6.79961 21 8.19974 21 11V23ZM11 4.5H13C14.4249 4.5 15.4033 4.50117 16.1618 4.56314C16.9028 4.62368 17.3009 4.73469 17.589 4.88148C18.2475 5.21703 18.783 5.75247 19.1185 6.41103C19.2653 6.69911 19.3763 7.09716 19.4369 7.83816C19.4988 8.59667 19.5 9.57512 19.5 11V20.8584L17.2736 20.0488C16.8395 19.8909 16.5219 19.7754 16.1903 19.6928C15.8969 19.6197 15.5987 19.5671 15.298 19.5355C14.9581 19.4999 14.6203 19.4999 14.1583 19.5L11 19.5C9.57512 19.5 8.59667 19.4988 7.83816 19.4369C7.09716 19.3763 6.69911 19.2653 6.41103 19.1185C5.75247 18.783 5.21703 18.2475 4.88148 17.589C4.73469 17.3009 4.62368 16.9028 4.56314 16.1618C4.50117 15.4033 4.5 14.4249 4.5 13V11C4.5 9.57512 4.50117 8.59667 4.56314 7.83816C4.62368 7.09716 4.73469 6.69911 4.88148 6.41103C5.21703 5.75247 5.75247 5.21703 6.41103 4.88148C6.69911 4.73469 7.09716 4.62368 7.83816 4.56314C8.59667 4.50117 9.57512 4.5 11 4.5Z" fill="#1B1B1B"/>
</svg>
