<svg width="24" height="24" viewBox="0 0 24 24" fill="none" xmlns="http://www.w3.org/2000/svg">
<path d="M11.5 10.5C11.5 11.0523 11.0523 11.5 10.5 11.5C9.94772 11.5 9.5 11.0523 9.5 10.5C9.5 9.94772 9.94772 9.5 10.5 9.5C11.0523 9.5 11.5 9.94772 11.5 10.5Z" fill="#1F7560"/>
<path d="M10.5 14.5C11.0523 14.5 11.5 14.0523 11.5 13.5C11.5 12.9477 11.0523 12.5 10.5 12.5C9.94772 12.5 9.5 12.9477 9.5 13.5C9.5 14.0523 9.94772 14.5 10.5 14.5Z" fill="#1F7560"/>
<path d="M14.5 10.5C14.5 11.0523 14.0523 11.5 13.5 11.5C12.9477 11.5 12.5 11.0523 12.5 10.5C12.5 9.94772 12.9477 9.5 13.5 9.5C14.0523 9.5 14.5 9.94772 14.5 10.5Z" fill="#1F7560"/>
<path d="M13.5 14.5C14.0523 14.5 14.5 14.0523 14.5 13.5C14.5 12.9477 14.0523 12.5 13.5 12.5C12.9477 12.5 12.5 12.9477 12.5 13.5C12.5 14.0523 12.9477 14.5 13.5 14.5Z" fill="#1F7560"/>
<path fill-rule="evenodd" clip-rule="evenodd" d="M7 17V20.5C7 21.3284 7.67157 22 8.5 22H15.5C16.3284 22 17 21.3284 17 20.5L17 17H20.5C21.3284 17 22 16.3284 22 15.5V8.5C22 7.67157 21.3284 7 20.5 7H17L17 3.5C17 2.67157 16.3284 2 15.5 2H8.5C7.67157 2 7 2.67157 7 3.5V7H3.5C2.67157 7 2 7.67157 2 8.5V15.5C2 16.3284 2.67157 17 3.5 17H7ZM15.5 17H8.5L8.5 20.5H15.5V17ZM8.5 7H15.5V3.5L8.5 3.5L8.5 7ZM3.5 8.5H20.5V15.5H3.5L3.5 8.5Z" fill="#1B1B1B"/>
</svg>
