<svg width="24" height="24" viewBox="0 0 24 24" fill="none" xmlns="http://www.w3.org/2000/svg">
<path d="M5 9.5H0.5V11H5V9.5Z" fill="#1F7560"/>
<path d="M2 6H5V7.5H2V6Z" fill="#1F7560"/>
<path d="M2 14.5H5V13L2 13L2 14.5Z" fill="#1F7560"/>
<path d="M5 18H3.5L3.5 16.5H5V18Z" fill="#1F7560"/>
<path d="M20.5 18H6.5V16.5H20.5V7.5H6.5V6H20.5C21.3284 6 22 6.67157 22 7.5V16.5C22 17.3284 21.3284 18 20.5 18Z" fill="#1B1B1B"/>
<path d="M12 14C13.1046 14 14 13.1046 14 12C14 10.8954 13.1046 10 12 10C10.8954 10 10 10.8954 10 12C10 13.1046 10.8954 14 12 14Z" fill="#1B1B1B"/>
</svg>
