<svg width="24" height="24" viewBox="0 0 24 24" fill="none" xmlns="http://www.w3.org/2000/svg">
<path fill-rule="evenodd" clip-rule="evenodd" d="M8.79988 5.40305C7.97478 5.8156 7.75 6.24677 7.75 6.5C7.75 6.75323 7.97478 7.1844 8.79988 7.59695C9.58011 7.98706 10.7105 8.25 12 8.25C13.2895 8.25 14.4199 7.98706 15.2001 7.59695C16.0252 7.1844 16.25 6.75323 16.25 6.5C16.25 6.24677 16.0252 5.8156 15.2001 5.40305C14.4199 5.01294 13.2895 4.75 12 4.75C10.7105 4.75 9.58011 5.01294 8.79988 5.40305ZM15.8709 4.06141C16.7812 4.51653 17.6145 5.25078 17.7351 6.25H17.75V6.5V18.5V18.75H17.7351C17.6145 19.7492 16.7812 20.4835 15.8709 20.9386C14.8415 21.4533 13.4719 21.75 12 21.75C10.5281 21.75 9.15847 21.4533 8.12906 20.9386C7.21881 20.4835 6.38553 19.7492 6.26494 18.75H6.25V18.5V6.5V6.25H6.26494C6.38553 5.25078 7.21881 4.51653 8.12906 4.06141C9.15847 3.54671 10.5281 3.25 12 3.25C13.4719 3.25 14.8415 3.54671 15.8709 4.06141ZM15.8709 8.93859C15.9994 8.87435 16.1264 8.80454 16.25 8.72922V18.5C16.25 18.7532 16.0252 19.1844 15.2001 19.5969C14.4199 19.9871 13.2895 20.25 12 20.25C10.7105 20.25 9.58011 19.9871 8.79988 19.5969C7.97478 19.1844 7.75 18.7532 7.75 18.5V8.72922C7.87363 8.80454 8.00058 8.87435 8.12906 8.93859C9.15847 9.45329 10.5281 9.75 12 9.75C13.4719 9.75 14.8415 9.45329 15.8709 8.93859ZM14 7C14.5523 7 15 6.77614 15 6.5C15 6.22386 14.5523 6 14 6C13.4477 6 13 6.22386 13 6.5C13 6.77614 13.4477 7 14 7Z" fill="#1B1B1B"/>
<path d="M12 11L14 14C14.7778 15.3333 13.5436 17 12 17C10.4564 17 9.22223 15.3333 10 14L12 11Z" fill="#1F7560"/>
</svg>
