<svg width="24" height="24" viewBox="0 0 24 24" fill="none" xmlns="http://www.w3.org/2000/svg">
<path d="M20.3382 13.6605L21.8097 13.9516C21.9345 13.3204 22 12.6679 22 12C22 11.3321 21.9345 10.6796 21.8097 10.0484L20.3382 10.3395C20.4442 10.8753 20.5 11.4304 20.5 12C20.5 12.5696 20.4442 13.1247 20.3382 13.6605Z" fill="#1F7560"/>
<path d="M19.0692 7.27832L20.3157 6.44384C19.5856 5.35333 18.6467 4.41443 17.5562 3.68435L16.7217 4.9308C17.6493 5.5518 18.4482 6.35074 19.0692 7.27832Z" fill="#1F7560"/>
<path d="M13.6605 3.66182L13.9516 2.19034C13.3204 2.06547 12.6679 2 12 2C11.3321 2 10.6796 2.06547 10.0484 2.19034L10.3395 3.66182C10.8753 3.55582 11.4304 3.5 12 3.5C12.5696 3.5 13.1247 3.55582 13.6605 3.66182Z" fill="#1F7560"/>
<path d="M7.27832 4.9308L6.44384 3.68435C5.35333 4.41443 4.41443 5.35333 3.68435 6.44384L4.9308 7.27832C5.5518 6.35074 6.35074 5.5518 7.27832 4.9308Z" fill="#1F7560"/>
<path d="M2 12C2 11.3321 2.06547 10.6796 2.19034 10.0484L3.66182 10.3395C3.55582 10.8753 3.5 11.4304 3.5 12C3.5 12.5696 3.55582 13.1247 3.66182 13.6605L2.19034 13.9516C2.06547 13.3204 2 12.6679 2 12Z" fill="#1F7560"/>
<path d="M4.9308 16.7217L3.68435 17.5562C4.41443 18.6467 5.35333 19.5856 6.44384 20.3157L7.27832 19.0692C6.35074 18.4482 5.5518 17.6493 4.9308 16.7217Z" fill="#1F7560"/>
<path d="M10.3395 20.3382L10.0484 21.8097C10.6796 21.9345 11.3321 22 12 22C12.6679 22 13.3204 21.9345 13.9516 21.8097L13.6605 20.3382C13.1247 20.4442 12.5696 20.5 12 20.5C11.4304 20.5 10.8753 20.4442 10.3395 20.3382Z" fill="#1F7560"/>
<path d="M16.7217 19.0692L17.5562 20.3157C18.6467 19.5856 19.5856 18.6467 20.3157 17.5562L19.0692 16.7217C18.4482 17.6493 17.6493 18.4482 16.7217 19.0692Z" fill="#1F7560"/>
<path fill-rule="evenodd" clip-rule="evenodd" d="M12 7L7 9V10H8.25V14.5H7V16H17V14.5H15.75V10H17V9L12 7ZM9.75 14.5V10H11.25V14.5H9.75ZM12.75 14.5V10H14.25V14.5H12.75Z" fill="#1B1B1B"/>
</svg>
