<svg width="24" height="24" viewBox="0 0 24 24" fill="none" xmlns="http://www.w3.org/2000/svg">
<path fill-rule="evenodd" clip-rule="evenodd" d="M7.58068 15.3587L15.3589 7.58057L16.4195 8.64123L8.64134 16.4194L7.58068 15.3587Z" fill="#1F7560"/>
<path fill-rule="evenodd" clip-rule="evenodd" d="M14.475 2.80761C15.0608 2.22182 16.0105 2.22182 16.5963 2.80761L21.1925 7.4038C21.7783 7.98959 21.7783 8.93934 21.1925 9.52512L17.3034 13.4142C16.7176 14 15.7679 14 15.1821 13.4142L14.2982 12.5303L15.3589 11.4697L16.2428 12.3535L20.1318 8.46446L15.5356 3.86827L11.6466 7.75736L12.5304 8.64124L11.4698 9.7019L10.5859 8.81802C10.0001 8.23223 10.0001 7.28248 10.5859 6.69669L14.475 2.80761ZM6.69681 10.5858C7.2826 10 8.23234 10 8.81813 10.5858L9.70201 11.4697L8.64135 12.5303L7.75747 11.6464L3.86838 15.5355L8.46458 20.1317L12.3537 16.2426L11.4698 15.3588L12.5304 14.2981L13.4143 15.182C14.0001 15.7678 14.0001 16.7175 13.4143 17.3033L9.52524 21.1924C8.93945 21.7782 7.9897 21.7782 7.40392 21.1924L2.80772 16.5962C2.22194 16.0104 2.22194 15.0607 2.80772 14.4749L6.69681 10.5858Z" fill="#1B1B1B"/>
</svg>
