<svg width="24" height="24" viewBox="0 0 24 24" fill="none" xmlns="http://www.w3.org/2000/svg">
<path d="M9.87743 1.18066L10.6539 4.07844L9.20499 4.46667L8.42854 1.56889L9.87743 1.18066Z" fill="#1F7560"/>
<path d="M6.87326 5.81279L5.8126 6.87345L3.69128 4.75213L4.75194 3.69147L6.87326 5.81279Z" fill="#1F7560"/>
<path d="M19.2476 20.3085L20.3083 19.2478L18.187 17.1265L17.1263 18.1872L19.2476 20.3085Z" fill="#1F7560"/>
<path d="M15.5714 22.431L14.795 19.5333L13.3461 19.9215L14.1226 22.8193L15.5714 22.431Z" fill="#1F7560"/>
<path d="M1.56883 8.42853L4.46661 9.20499L4.07838 10.6539L1.1806 9.87742L1.56883 8.42853Z" fill="#1F7560"/>
<path d="M22.8192 14.1225L19.9214 13.3461L19.5332 14.795L22.431 15.5714L22.8192 14.1225Z" fill="#1F7560"/>
<path d="M14.4747 2.80763C15.0605 2.22184 16.0103 2.22184 16.5961 2.80763L21.1922 7.40382C21.778 7.98961 21.778 8.93935 21.1922 9.52514L17.3032 13.4142C16.7174 14 15.7676 14 15.1818 13.4142L13.5909 11.8232L14.6515 10.7626L16.2425 12.3536L20.1316 8.46448L15.5354 3.86829L11.6463 7.75737L13.2373 9.34836L12.1766 10.409L10.5856 8.81803C9.99986 8.23225 9.99986 7.2825 10.5856 6.69671L14.4747 2.80763Z" fill="#1B1B1B"/>
<path d="M6.69656 10.5858C7.28235 10 8.23209 10 8.81788 10.5858L10.4089 12.1768L9.34821 13.2375L7.75722 11.6465L3.86813 15.5355L8.46433 20.1317L12.3534 16.2427L10.7624 14.6517L11.8231 13.591L13.4141 15.182C13.9999 15.7678 13.9999 16.7175 13.4141 17.3033L9.52499 21.1924C8.9392 21.7782 7.98945 21.7782 7.40367 21.1924L2.80747 16.5962C2.22169 16.0104 2.22169 15.0607 2.80747 14.4749L6.69656 10.5858Z" fill="#1B1B1B"/>
</svg>
