<svg width="24" height="24" viewBox="0 0 24 24" fill="none" xmlns="http://www.w3.org/2000/svg">
<path d="M16.5859 20.032L20.0991 16.2604L16.5859 12.4888L15.4883 13.5112L17.3505 15.5104H13V17.0104H17.3505L15.4883 19.0096L16.5859 20.032Z" fill="#1F7560"/>
<path fill-rule="evenodd" clip-rule="evenodd" d="M5.5 5.5H9.5L9.5 9.5L5.5 9.5L5.5 5.5ZM4 5.5C4 4.67157 4.67157 4 5.5 4H9.5C10.3284 4 11 4.67157 11 5.5V9.5C11 10.3284 10.3284 11 9.5 11H5.5C4.67157 11 4 10.3284 4 9.5V5.5ZM14.5 5.5H18.5V9.5L14.5 9.5V5.5ZM13 5.5C13 4.67157 13.6716 4 14.5 4H18.5C19.3284 4 20 4.67157 20 5.5V9.5C20 10.3284 19.3284 11 18.5 11H14.5C13.6716 11 13 10.3284 13 9.5V5.5ZM9.5 14.5H5.5L5.5 18.5H9.5L9.5 14.5ZM5.5 13C4.67157 13 4 13.6716 4 14.5V18.5C4 19.3284 4.67157 20 5.5 20H9.5C10.3284 20 11 19.3284 11 18.5V14.5C11 13.6716 10.3284 13 9.5 13H5.5Z" fill="#1B1B1B"/>
</svg>
