<svg width="24" height="24" viewBox="0 0 24 24" fill="none" xmlns="http://www.w3.org/2000/svg">
<path d="M13.7271 10.909C14.6057 11.7877 14.6057 13.2123 13.7271 14.091L14.7877 15.1517C16.2522 13.6872 16.2522 11.3128 14.7877 9.84836L13.7271 10.909Z" fill="#1F7560"/>
<path d="M15.8484 16.2123C17.8986 14.1621 17.8986 10.838 15.8484 8.7877L16.909 7.72704C19.5451 10.3631 19.5451 14.6369 16.909 17.273L15.8484 16.2123Z" fill="#1F7560"/>
<path d="M17.9697 6.66637C21.1915 9.8882 21.1915 15.1118 17.9697 18.3336L19.0304 19.3943C22.838 15.5867 22.838 9.41332 19.0304 5.60571L17.9697 6.66637Z" fill="#1F7560"/>
<path d="M6 4.5H6.25C6.66421 4.5 7 4.83579 7 5.25C7 5.66421 7.33579 6 7.75 6H10.25C10.6642 6 11 5.66421 11 5.25C11 4.83579 11.3358 4.5 11.75 4.5H12C12.8284 4.5 13.5 5.17157 13.5 6V8H15V6C15 4.34315 13.6569 3 12 3H6C4.34315 3 3 4.34315 3 6V18C3 19.6569 4.34315 21 6 21H12C13.6569 21 15 19.6569 15 18V17H13.5V18C13.5 18.8284 12.8284 19.5 12 19.5H6C5.17157 19.5 4.5 18.8284 4.5 18V6C4.5 5.17157 5.17157 4.5 6 4.5Z" fill="#1B1B1B"/>
</svg>
