<svg width="24" height="24" viewBox="0 0 24 24" fill="none" xmlns="http://www.w3.org/2000/svg">
<path d="M6 10H10V13H6V10Z" fill="#1F7560"/>
<path d="M14.6717 11.6716C14.2812 12.0621 14.2812 12.6953 14.6717 13.0858L16.0859 14.5L15.0252 17.682L16.0859 18.7426L17.6769 16.091L18.5608 16.9749L18.2072 18.0355L18.9143 18.7426L21.7428 15.9142L21.0357 15.2071L19.975 15.5607L19.0911 14.6768L21.7428 13.0858L20.6821 12.0251L17.5001 13.0858L16.0859 11.6716C15.6954 11.281 15.0622 11.281 14.6717 11.6716Z" fill="#1F7560"/>
<path d="M3.5 6.5H20.5V10H22V6.5C22 5.67157 21.3284 5 20.5 5H3.5C2.67157 5 2 5.67157 2 6.5V17.5C2 18.3284 2.67157 19 3.5 19H13V17.5H3.5L3.5 6.5Z" fill="#1B1B1B"/>
</svg>
