<svg width="24" height="24" viewBox="0 0 24 24" fill="none" xmlns="http://www.w3.org/2000/svg">
<path d="M11.9999 13C12.5522 13 12.9999 12.5523 12.9999 12C12.9999 11.4477 12.5522 11 11.9999 11C11.4477 11 10.9999 11.4477 10.9999 12C10.9999 12.5523 11.4477 13 11.9999 13Z" fill="#1F7560"/>
<path d="M16.9999 12C16.9999 12.5523 16.5522 13 15.9999 13C15.4477 13 14.9999 12.5523 14.9999 12C14.9999 11.4477 15.4477 11 15.9999 11C16.5522 11 16.9999 11.4477 16.9999 12Z" fill="#1F7560"/>
<path d="M19.9999 13C20.5522 13 20.9999 12.5523 20.9999 12C20.9999 11.4477 20.5522 11 19.9999 11C19.4477 11 18.9999 11.4477 18.9999 12C18.9999 12.5523 19.4477 13 19.9999 13Z" fill="#1F7560"/>
<path d="M5.24992 9V10.701L3.77686 9.85048L3.02686 11.1495L4.49993 12L3.02686 12.8505L3.77686 14.1495L5.24992 13.299V15H6.74992V13.299L8.22301 14.1495L8.97301 12.8505L7.49993 12L8.97301 11.1495L8.22301 9.85048L6.74992 10.701V9H5.24992Z" fill="#1B1B1B"/>
</svg>
