<svg width="24" height="24" viewBox="0 0 24 24" fill="none" xmlns="http://www.w3.org/2000/svg">
<path d="M18 9C19.6569 9 21 7.65685 21 6C21 4.34315 19.6569 3 18 3C16.3431 3 15 4.34315 15 6C15 7.65685 16.3431 9 18 9Z" fill="#1F7560"/>
<path d="M13 4.5H11C9.57512 4.5 8.59667 4.50117 7.83816 4.56314C7.09716 4.62368 6.69911 4.73469 6.41103 4.88148C5.75247 5.21703 5.21703 5.75247 4.88148 6.41103C4.73469 6.69911 4.62368 7.09716 4.56314 7.83816C4.50117 8.59667 4.5 9.57512 4.5 11V13C4.5 14.4249 4.50117 15.4033 4.56314 16.1618C4.62368 16.9028 4.73469 17.3009 4.88148 17.589C5.21703 18.2475 5.75247 18.783 6.41103 19.1185C6.69911 19.2653 7.09716 19.3763 7.83816 19.4369C8.59667 19.4988 9.57512 19.5 11 19.5H13C14.4249 19.5 15.4033 19.4988 16.1618 19.4369C16.9028 19.3763 17.3009 19.2653 17.589 19.1185C18.2475 18.783 18.783 18.2475 19.1185 17.589C19.2653 17.3009 19.3763 16.9028 19.4369 16.1618C19.4988 15.4033 19.5 14.4249 19.5 13V11H21V13C21 15.8003 21 17.2004 20.455 18.27C19.9757 19.2108 19.2108 19.9757 18.27 20.455C17.2004 21 15.8003 21 13 21H11C8.19974 21 6.79961 21 5.73005 20.455C4.78924 19.9757 4.02433 19.2108 3.54497 18.27C3 17.2004 3 15.8003 3 13V11C3 8.19974 3 6.79961 3.54497 5.73005C4.02433 4.78924 4.78924 4.02433 5.73005 3.54497C6.79961 3 8.19974 3 11 3H13V4.5Z" fill="#1B1B1B"/>
</svg>
