<svg width="24" height="24" viewBox="0 0 24 24" fill="none" xmlns="http://www.w3.org/2000/svg">
<path d="M13 21C13 21.5523 12.5523 22 12 22C11.4477 22 11 21.5523 11 21C11 20.4477 11.4477 20 12 20C12.5523 20 13 20.4477 13 21Z" fill="#1F7560"/>
<path d="M12 12.5C12.89 12.5 13.76 12.2361 14.5001 11.7416C15.2401 11.2471 15.8169 10.5443 16.1575 9.72208C16.4981 8.89981 16.5872 7.99501 16.4135 7.1221C16.2399 6.24918 15.8113 5.44736 15.182 4.81802C14.5526 4.18869 13.7508 3.7601 12.8779 3.58647C12.005 3.41284 11.1002 3.50195 10.2779 3.84254C9.45566 4.18314 8.75285 4.75992 8.25839 5.49994C7.76392 6.23996 7.5 7.10999 7.5 8H6C6 6.81331 6.35189 5.65328 7.01118 4.66658C7.67047 3.67989 8.60754 2.91085 9.7039 2.45673C10.8003 2.0026 12.0067 1.88378 13.1705 2.11529C14.3344 2.3468 15.4035 2.91825 16.2426 3.75736C17.0818 4.59648 17.6532 5.66558 17.8847 6.82946C18.1162 7.99335 17.9974 9.19975 17.5433 10.2961C17.0892 11.3925 16.3201 12.3295 15.3334 12.9888C14.556 13.5083 13.6709 13.8369 12.75 13.9529V18H11.25V12.5L12 12.5Z" fill="#1B1B1B"/>
</svg>
