<svg width="24" height="24" viewBox="0 0 24 24" fill="none" xmlns="http://www.w3.org/2000/svg">
<path d="M10.75 8.60352V7.5H9.25V8.60352C8.09575 8.92998 7.25 9.99122 7.25 11.25V12.75C7.25 14.0088 8.09575 15.07 9.25 15.3965V16.5H10.75V15.3965C11.827 15.0919 12.6354 14.1476 12.7388 13H11.225C11.1092 13.5706 10.6047 14 10 14C9.30964 14 8.75 13.4404 8.75 12.75V11.25C8.75 10.5596 9.30964 10 10 10C10.6047 10 11.1092 10.4294 11.225 11H12.7388C12.6354 9.85242 11.827 8.90812 10.75 8.60352Z" fill="#1F7560"/>
<path fill-rule="evenodd" clip-rule="evenodd" d="M16.5 12C16.5 15.5899 13.5899 18.5 10 18.5C6.41015 18.5 3.5 15.5899 3.5 12C3.5 8.41015 6.41015 5.5 10 5.5C13.5899 5.5 16.5 8.41015 16.5 12ZM12 19.748C11.3608 19.9125 10.6906 20 10 20C5.58172 20 2 16.4183 2 12C2 7.58172 5.58172 4 10 4C10.6906 4 11.3608 4.08751 12 4.25203C12.6392 4.08751 13.3094 4 14 4C18.4183 4 22 7.58172 22 12C22 16.4183 18.4183 20 14 20C13.3094 20 12.6392 19.9125 12 19.748ZM14.7189 18.4607C17.9705 18.1029 20.5 15.3469 20.5 12C20.5 8.65313 17.9705 5.89707 14.7189 5.53931C16.7081 6.99467 18 9.34646 18 12C18 14.6535 16.7081 17.0053 14.7189 18.4607Z" fill="#1B1B1B"/>
</svg>
