<svg width="24" height="24" viewBox="0 0 24 24" fill="none" xmlns="http://www.w3.org/2000/svg">
<path d="M18 13.5C18.8284 13.5 19.5 12.8284 19.5 12C19.5 11.1716 18.8284 10.5 18 10.5C17.4448 10.5 16.96 10.8016 16.7007 11.25H6C5.58579 11.25 5.25 11.5858 5.25 12C5.25 12.4142 5.58579 12.75 6 12.75H16.7007C16.96 13.1984 17.4448 13.5 18 13.5Z" fill="#1F7560"/>
<path d="M9.5 8.5H2.5L2.5 15.5H9.5V14H11V15.5C11 16.3284 10.3284 17 9.5 17H2.5C1.67157 17 1 16.3284 1 15.5V8.5C1 7.67157 1.67157 7 2.5 7H9.5C10.3284 7 11 7.67157 11 8.5V10H9.5V8.5Z" fill="#1B1B1B"/>
<path d="M13 14V15.5C13 16.3284 13.6716 17 14.5 17H21.5C22.3284 17 23 16.3284 23 15.5V8.5C23 7.67157 22.3284 7 21.5 7H14.5C13.6716 7 13 7.67157 13 8.5V10H14.5V8.5H21.5V15.5H14.5V14H13Z" fill="#1B1B1B"/>
</svg>
