<svg width="24" height="24" viewBox="0 0 24 24" fill="none" xmlns="http://www.w3.org/2000/svg">
<path d="M10.1555 1.45898L10.9319 4.35676L9.48306 4.74499L8.7066 1.84721L10.1555 1.45898Z" fill="#1F7560"/>
<path d="M5.03021 3.96974L7.15153 6.09106L6.09087 7.15172L3.96955 5.0304L5.03021 3.96974Z" fill="#1F7560"/>
<path d="M1.84697 8.70662L4.74475 9.48307L4.35652 10.932L1.45874 10.1555L1.84697 8.70662Z" fill="#1F7560"/>
<path fill-rule="evenodd" clip-rule="evenodd" d="M11.9906 5.50507C12.7267 4.76901 13.9704 4.98812 14.4106 5.93141L20.0855 18.0921C20.6779 19.3615 19.3614 20.6781 18.0919 20.0857L5.93125 14.4107C4.98797 13.9705 4.76886 12.7268 5.50492 11.9908L11.9906 5.50507ZM14.2854 9.21029L13.0513 6.56573L6.56558 13.0514L9.21014 14.2856L14.2854 9.21029ZM14.9604 10.6566L10.6565 14.9605L13.301 16.1946L16.1945 13.3012L14.9604 10.6566ZM16.8695 14.7476L14.7474 16.8696L18.7263 18.7264L16.8695 14.7476Z" fill="#1B1B1B"/>
</svg>
