<svg width="24" height="24" viewBox="0 0 24 24" fill="none" xmlns="http://www.w3.org/2000/svg">
<path fill-rule="evenodd" clip-rule="evenodd" d="M13.5 19V15C13.5 14.1716 12.8284 13.5 12 13.5C11.1716 13.5 10.5 14.1716 10.5 15V19C10.5 19.8284 11.1716 20.5 12 20.5C12.8284 20.5 13.5 19.8284 13.5 19ZM12 12C10.3431 12 9 13.3431 9 15V19C9 20.6569 10.3431 22 12 22C13.6569 22 15 20.6569 15 19V15C15 13.3431 13.6569 12 12 12Z" fill="#1F7560"/>
<path fill-rule="evenodd" clip-rule="evenodd" d="M13.5 4.5C13.5 5.32843 12.8284 6 12 6C11.1716 6 10.5 5.32843 10.5 4.5C10.5 3.67157 11.1716 3 12 3C12.8284 3 13.5 3.67157 13.5 4.5ZM14.2809 6.44876C14.5732 6.10703 14.79 5.69884 14.9055 5.25H18V3.75H14.9055C14.5725 2.45608 13.3979 1.5 12 1.5C10.6021 1.5 9.42755 2.45608 9.09451 3.75H6V5.25H9.09451C9.21004 5.69884 9.42682 6.10703 9.71907 6.44876C7.53659 7.34648 6 9.49379 6 12V16.5C6 17.3284 6.67157 18 7.5 18H9V16.5H7.5V12C7.5 9.51472 9.51472 7.5 12 7.5C14.4853 7.5 16.5 9.51472 16.5 12V16.5H15V18H16.5C17.3284 18 18 17.3284 18 16.5V12C18 9.49379 16.4634 7.34648 14.2809 6.44876Z" fill="#1B1B1B"/>
</svg>
