<svg width="24" height="24" viewBox="0 0 24 24" fill="none" xmlns="http://www.w3.org/2000/svg">
<path fill-rule="evenodd" clip-rule="evenodd" d="M16.5 12C16.5 14.4853 14.4853 16.5 12 16.5C9.51472 16.5 7.5 14.4853 7.5 12C7.5 9.51472 9.51472 7.5 12 7.5C14.4853 7.5 16.5 9.51472 16.5 12ZM15 12C15 13.6569 13.6569 15 12 15C10.3431 15 9 13.6569 9 12C9 10.3431 10.3431 9 12 9C13.6569 9 15 10.3431 15 12Z" fill="#1F7560"/>
<path fill-rule="evenodd" clip-rule="evenodd" d="M7.87922 4.1861C8.46323 4.55489 9.23638 4.23464 9.38857 3.5609L9.54263 2.87887C9.62674 2.5065 9.91485 2.21018 10.2911 2.14541C10.8463 2.04981 11.4172 2 11.9998 2C12.5825 2 13.1536 2.04984 13.709 2.1455C14.0852 2.21029 14.3733 2.5066 14.4574 2.87896L14.6114 3.5609C14.7636 4.23464 15.5368 4.55489 16.1208 4.1861L16.711 3.81341C17.0338 3.60957 17.447 3.60381 17.759 3.82393C18.6962 4.48534 19.5147 5.30384 20.1761 6.24112C20.3962 6.55304 20.3904 6.9663 20.1866 7.28909L19.8139 7.87922C19.4451 8.46323 19.7654 9.23638 20.4391 9.38857L21.1208 9.54256C21.4932 9.62667 21.7895 9.91476 21.8543 10.291C21.9499 10.8463 21.9998 11.4173 21.9998 12C21.9998 12.5827 21.9499 13.1537 21.8543 13.709C21.7895 14.0852 21.4932 14.3733 21.1208 14.4574L20.4391 14.6114C19.7654 14.7636 19.4451 15.5368 19.8139 16.1208L20.1866 16.7109C20.3904 17.0337 20.3962 17.447 20.1761 17.7589C19.5147 18.6962 18.6962 19.5147 17.759 20.1761C17.447 20.3962 17.0338 20.3904 16.711 20.1866L16.1208 19.8139C15.5368 19.4451 14.7636 19.7654 14.6114 20.4391L14.4574 21.121C14.3733 21.4934 14.0852 21.7897 13.709 21.8545C13.1536 21.9502 12.5825 22 11.9998 22C11.4172 22 10.8463 21.9502 10.2911 21.8546C9.91485 21.7898 9.62674 21.4935 9.54263 21.1211L9.38857 20.4391C9.23638 19.7654 8.46323 19.4451 7.87922 19.8139L7.28878 20.1867C6.96599 20.3906 6.55273 20.3964 6.2408 20.1762C5.30358 19.5149 4.48512 18.6965 3.82374 17.7593C3.60361 17.4474 3.60937 17.0341 3.81322 16.7113L4.1861 16.1208C4.55489 15.5368 4.23464 14.7636 3.5609 14.6114L2.87866 14.4573C2.50629 14.3732 2.20998 14.0851 2.1452 13.7089C2.04958 13.1536 1.99976 12.5826 1.99976 12C1.99976 11.4174 2.04958 10.8464 2.1452 10.2911C2.20998 9.91489 2.50629 9.62679 2.87866 9.54268L3.5609 9.38857C4.23464 9.23638 4.55489 8.46323 4.1861 7.87922L3.81322 7.28873C3.60937 6.96592 3.60361 6.55265 3.82374 6.24072C4.48512 5.30352 5.30358 4.4851 6.2408 3.82375C6.55273 3.60364 6.96599 3.60941 7.28878 3.81325L7.87922 4.1861ZM6.79768 5.27717C6.22913 5.71786 5.71786 6.22911 5.27715 6.79764L5.45439 7.07832C6.37637 8.53836 5.57574 10.4712 3.8914 10.8517L3.56692 10.925C3.52264 11.2765 3.49976 11.6353 3.49976 12C3.49976 12.3647 3.52264 12.7235 3.56692 13.075L3.8914 13.1483C5.57574 13.5288 6.37637 15.4616 5.45439 16.9217L5.27715 17.2024C5.71786 17.7709 6.22913 18.2821 6.79768 18.7228L7.07832 18.5456C8.53836 17.6236 10.4712 18.4243 10.8517 20.1086L10.925 20.4329C11.2764 20.4771 11.6351 20.5 11.9998 20.5C12.3646 20.5 12.7234 20.4771 13.0751 20.4328L13.1483 20.1086C13.5288 18.4243 15.4616 17.6236 16.9217 18.5456L17.2021 18.7227C17.7706 18.2819 18.2819 17.7706 18.7226 17.202L18.5456 16.9217C17.6236 15.4616 18.4243 13.5288 20.1086 13.1483L20.4326 13.0751C20.4769 12.7236 20.4998 12.3648 20.4998 12C20.4998 11.6352 20.4769 11.2764 20.4326 10.9249L20.1086 10.8517C18.4243 10.4712 17.6236 8.53836 18.5456 7.07832L18.7226 6.79799C18.2819 6.22939 17.7706 5.71808 17.2021 5.27734L16.9217 5.45439C15.4616 6.37637 13.5288 5.57574 13.1483 3.8914L13.0751 3.56721C12.7234 3.5229 12.3646 3.5 11.9998 3.5C11.6351 3.5 11.2764 3.52288 10.925 3.56714L10.8517 3.8914C10.4712 5.57575 8.53836 6.37637 7.07832 5.45439L6.79768 5.27717Z" fill="#1B1B1B"/>
</svg>
