<svg width="24" height="24" viewBox="0 0 24 24" fill="none" xmlns="http://www.w3.org/2000/svg">
<path d="M12.5304 2.21967C12.2375 1.92677 11.7626 1.92677 11.4697 2.21967L7.46973 6.21967L8.53039 7.28033L11.2501 4.56066L11.2501 12.75L12.7501 12.75L12.7501 4.56066L15.4697 7.28033L16.5304 6.21967L12.5304 2.21967Z" fill="#1F7560"/>
<path d="M17.5 10.5V18.5H6.5V10.5H8V9H6.5C5.67157 9 5 9.67157 5 10.5V18.5C5 19.3284 5.67157 20 6.5 20H17.5C18.3284 20 19 19.3284 19 18.5V10.5C19 9.67157 18.3284 9 17.5 9H16V10.5H17.5Z" fill="#1B1B1B"/>
</svg>
