<svg width="24" height="24" viewBox="0 0 24 24" fill="none" xmlns="http://www.w3.org/2000/svg">
<path fill-rule="evenodd" clip-rule="evenodd" d="M5 2.25H2.75V3.75H5V14.5C3.75736 14.5 2.75 15.5074 2.75 16.75C2.75 17.9926 3.75736 19 5 19H5.12803C5.04512 19.2346 5 19.487 5 19.75C5 20.9926 6.00736 22 7.25 22C8.49264 22 9.5 20.9926 9.5 19.75C9.5 19.487 9.45488 19.2346 9.37197 19H15.128C15.0451 19.2346 15 19.487 15 19.75C15 20.9926 16.0074 22 17.25 22C18.4926 22 19.5 20.9926 19.5 19.75C19.5 18.5074 18.4926 17.5 17.25 17.5H5C4.58579 17.5 4.25 17.1642 4.25 16.75C4.25 16.3358 4.58579 16 5 16H19.5C20.3284 16 21 15.3284 21 14.5V6.5C21 5.67157 20.3284 5 19.5 5H6.5V3.75C6.5 2.92157 5.82843 2.25 5 2.25ZM19.5 6.5H6.5V14.5H19.5V6.5ZM6.5 19.75C6.5 19.3358 6.83579 19 7.25 19C7.66421 19 8 19.3358 8 19.75C8 20.1642 7.66421 20.5 7.25 20.5C6.83579 20.5 6.5 20.1642 6.5 19.75ZM16.5 19.75C16.5 19.3358 16.8358 19 17.25 19C17.6642 19 18 19.3358 18 19.75C18 20.1642 17.6642 20.5 17.25 20.5C16.8358 20.5 16.5 20.1642 16.5 19.75Z" fill="#1B1B1B"/>
</svg>
