<svg width="24" height="24" viewBox="0 0 24 24" fill="none" xmlns="http://www.w3.org/2000/svg">
<path fill-rule="evenodd" clip-rule="evenodd" d="M16.0834 12.9375L17.3334 12L18.8 13.1C20.4 14.3 20.4 16.7 18.8 17.9L14.4 21.2C12.9778 22.2666 11.0222 22.2666 9.6 21.2L5.2 17.9C3.6 16.7 3.6 14.3 5.2 13.1L6.66664 12L7.91664 12.9375L6.1 14.3C5.3 14.9 5.3 16.1 6.1 16.7L10.5 20C11.3889 20.6666 12.6111 20.6666 13.5 20L17.9 16.7C18.7 16.1 18.7 14.9 17.9 14.3L16.0834 12.9375Z" fill="#1F7560"/>
<path fill-rule="evenodd" clip-rule="evenodd" d="M10.5 4L6.1 7.3C5.3 7.9 5.3 9.1 6.1 9.7L10.5 13C11.3889 13.6667 12.6111 13.6667 13.5 13L17.9 9.7C18.7 9.1 18.7 7.9 17.9 7.3L13.5 4C12.6111 3.33333 11.3889 3.33333 10.5 4ZM9.6 2.8L5.2 6.1C3.6 7.3 3.6 9.7 5.2 10.9L9.6 14.2C11.0222 15.2667 12.9778 15.2667 14.4 14.2L18.8 10.9C20.4 9.7 20.4 7.3 18.8 6.1L14.4 2.8C12.9778 1.73333 11.0222 1.73333 9.6 2.8Z" fill="#1B1B1B"/>
</svg>
