<svg width="24" height="24" viewBox="0 0 24 24" fill="none" xmlns="http://www.w3.org/2000/svg">
<path fill-rule="evenodd" clip-rule="evenodd" d="M14.5 6V3.5L9.5 3.5V6H9C8.64936 6 8.31278 6.06015 8 6.17071V6V3.5C8 2.67157 8.67157 2 9.5 2H14.5C15.3284 2 16 2.67157 16 3.5V6V6.17071C15.6872 6.06015 15.3506 6 15 6H14.5ZM16 17.8293C15.6872 17.9398 15.3506 18 15 18H14.5V20.5H9.5V18H9C8.64936 18 8.31278 17.9398 8 17.8293V18V20.5C8 21.3284 8.67157 22 9.5 22H14.5C15.3284 22 16 21.3284 16 20.5V18V17.8293Z" fill="#1F7560"/>
<path fill-rule="evenodd" clip-rule="evenodd" d="M15 7.5H9C8.17157 7.5 7.5 8.17157 7.5 9V15C7.5 15.8284 8.17157 16.5 9 16.5H15C15.8284 16.5 16.5 15.8284 16.5 15V9C16.5 8.17157 15.8284 7.5 15 7.5ZM9 6C7.34315 6 6 7.34315 6 9V15C6 16.6569 7.34315 18 9 18H15C16.6569 18 18 16.6569 18 15V9C18 7.34315 16.6569 6 15 6H9Z" fill="#1B1B1B"/>
</svg>
