<svg width="24" height="24" viewBox="0 0 24 24" fill="none" xmlns="http://www.w3.org/2000/svg">
<path fill-rule="evenodd" clip-rule="evenodd" d="M21.3148 7.55585C21.5873 8.21365 21.7801 8.89991 21.8903 9.6C21.9631 10.062 21.9999 10.5301 21.9999 11L12.9999 11V2C13.4698 2 13.9378 2.0368 14.3999 2.10956C15.1 2.2198 15.7862 2.41261 16.444 2.68508C17.536 3.13738 18.5281 3.80031 19.3638 4.63604C20.1996 5.47177 20.8625 6.46392 21.3148 7.55585ZM14.3999 3.53006C14.9156 3.62672 15.4212 3.77675 15.9083 3.97852C16.8303 4.36045 17.6682 4.92026 18.3739 5.62599C19.0796 6.33171 19.6394 7.16953 20.0214 8.09161C20.2231 8.5787 20.3732 9.08428 20.4698 9.6L14.3999 9.6V3.53006Z" fill="#1F7560"/>
<path fill-rule="evenodd" clip-rule="evenodd" d="M11.3999 3.5V12.5H20.3999C20.3999 12.9708 20.363 13.4388 20.2904 13.9C20.0884 15.1823 19.6105 16.4116 18.8831 17.5001C17.8942 18.9802 16.4886 20.1337 14.8441 20.8149C13.1995 21.4961 11.3899 21.6743 9.64409 21.3271C7.89826 20.9798 6.29462 20.1226 5.03595 18.864C3.77727 17.6053 2.92011 16.0016 2.57284 14.2558C2.22557 12.51 2.4038 10.7004 3.08499 9.05585C3.76618 7.41131 4.91973 6.00571 6.39977 5.01677C7.48834 4.28941 8.71757 3.81149 9.99991 3.60955C10.4611 3.53693 10.9291 3.5 11.3999 3.5ZM9.99991 13.9H18.8699C18.6817 14.9041 18.292 15.8649 17.7191 16.7223C16.884 17.9721 15.697 18.9463 14.3083 19.5215C12.9196 20.0967 11.3915 20.2472 9.91722 19.954C8.44296 19.6607 7.08877 18.9369 6.02589 17.874C4.96302 16.8111 4.23919 15.4569 3.94594 13.9827C3.65269 12.5084 3.8032 10.9803 4.37842 9.59161C4.95365 8.20289 5.92776 7.01593 7.17757 6.18083C8.03501 5.60791 8.99578 5.21825 9.99991 5.03006V13.9Z" fill="#1B1B1B"/>
</svg>
