<svg width="24" height="24" viewBox="0 0 24 24" fill="none" xmlns="http://www.w3.org/2000/svg">
<path fill-rule="evenodd" clip-rule="evenodd" d="M3.68011 3.25011L3.6436 3.25006C3.51679 3.24978 3.36185 3.24944 3.21904 3.27668C2.61466 3.39197 2.14197 3.86466 2.02668 4.46904C1.99944 4.61185 1.99978 4.76679 2.00006 4.8936L2.00011 4.93011V9.27865C2.00004 9.28301 2 9.28737 2 9.29175C2 9.30163 2.00004 9.3115 2.00011 9.32136V9.50011H2.00557C2.11381 11.5201 3.78639 13.1251 5.83333 13.1251C7.0972 13.1251 8.21835 12.5132 8.91667 11.5696C9.61499 12.5132 10.7361 13.1251 12 13.1251C13.2639 13.1251 14.385 12.5132 15.0833 11.5696C15.7817 12.5132 16.9028 13.1251 18.1667 13.1251C20.2136 13.1251 21.8862 11.5201 21.9944 9.50011H22.0001V4.93011L22.0002 4.8936C22.0004 4.76678 22.0008 4.61185 21.9735 4.46904C21.8583 3.86466 21.3856 3.39197 20.7812 3.27668C20.6384 3.24944 20.4834 3.24978 20.3566 3.25006L20.3201 3.25011H3.68011ZM20.5001 9.27862V4.93011C20.5001 4.8416 20.5 4.79322 20.4989 4.75787L20.4986 4.7516L20.4924 4.75137C20.457 4.75021 20.4086 4.75011 20.3201 4.75011H3.68011C3.5916 4.75011 3.54322 4.75021 3.50787 4.75137L3.5016 4.7516L3.50137 4.75787C3.50021 4.79322 3.50011 4.8416 3.50011 4.93011V9.31485C3.51251 10.5926 4.55262 11.6251 5.83333 11.6251C7.12176 11.6251 8.16667 10.5802 8.16667 9.29175C8.16667 8.87753 8.50245 8.54175 8.91667 8.54175C9.33088 8.54175 9.66667 8.87753 9.66667 9.29175C9.66667 10.5802 10.7116 11.6251 12 11.6251C13.2884 11.6251 14.3333 10.5802 14.3333 9.29175C14.3333 8.87753 14.6691 8.54175 15.0833 8.54175C15.4975 8.54175 15.8333 8.87753 15.8333 9.29175C15.8333 10.5802 16.8782 11.6251 18.1667 11.6251C19.4551 11.6251 20.5 10.5802 20.5 9.29175C20.5 9.28736 20.5 9.28299 20.5001 9.27862Z" fill="#1F7560"/>
<path fill-rule="evenodd" clip-rule="evenodd" d="M4.75 20.5V11.25H3.25V20.5C3.25 21.3284 3.92157 22 4.75 22H7.75H11.25H19.25C20.0784 22 20.75 21.3284 20.75 20.5V11.25H19.25V20.5H12V15.75C12 15.3358 11.6642 15 11.25 15H7.75C7.33579 15 7 15.3358 7 15.75V20.5H4.75ZM8.5 20.5H10.5V16.5H8.5V20.5Z" fill="#1B1B1B"/>
</svg>
