<svg width="24" height="24" viewBox="0 0 24 24" fill="none" xmlns="http://www.w3.org/2000/svg">
<path d="M22.4255 5.25851L22.2237 5.25134L21.3946 5.25331H18.1373V6.75331L22.1872 6.75097L22.2514 6.75204L22.2542 6.92545L22.2522 7.48181L22.2524 19.653L21.0399 18.8993C20.4368 18.524 19.751 18.3055 19.0448 18.2616L18.7791 18.2533H9.00178V19.7533H18.7791C19.224 19.7533 19.6612 19.8601 20.0546 20.0633L20.2475 20.1728L23.7518 22.3533L23.7526 6.78466L23.7447 6.57903C23.7195 6.16411 23.6345 5.87095 23.3837 5.61954C23.132 5.36723 22.8389 5.28247 22.4255 5.25851Z" fill="#1F7560"/>
<path fill-rule="evenodd" clip-rule="evenodd" d="M16.5 3.84167C16.5 2.82454 15.6845 2 14.6786 2H2.32143C1.31548 2 0.5 2.82454 0.5 3.84167V19L3.17251 17.3371C3.80672 16.9425 4.53875 16.7333 5.28571 16.7333H14.6786C15.6845 16.7333 16.5 15.9088 16.5 14.8917V3.84167ZM2 16.3V3.50679H15V15.2333H5.28571L5.0062 15.2404C4.07675 15.2877 3.17282 15.5702 2.38005 16.0635L2 16.3ZM9.168 10.739V11.058H7.87V10.563C7.87 10.167 7.958 9.716 8.53 9.221L9.08 8.748C9.476 8.418 9.795 8.022 9.795 7.395C9.795 6.746 9.355 6.317 8.607 6.317C7.837 6.317 7.32 6.779 7.32 7.593C7.32 7.769 7.331 7.912 7.386 8.165L6.066 8.033C6.011 7.769 6 7.571 6 7.417C6 6.141 6.946 5.25 8.629 5.25C10.235 5.25 11.192 5.998 11.192 7.318C11.192 8.099 10.719 8.77 10.158 9.265L9.63 9.727C9.289 10.024 9.168 10.277 9.168 10.739ZM9.278 11.839V13.247H7.782V11.839H9.278Z" fill="#1B1B1B"/>
</svg>
