<svg width="24" height="24" viewBox="0 0 24 24" fill="none" xmlns="http://www.w3.org/2000/svg">
<path d="M13 18C13 18.5523 12.5523 19 12 19C11.4477 19 11 18.5523 11 18C11 17.4477 11.4477 17 12 17C12.5523 17 13 17.4477 13 18Z" fill="#1F7560"/>
<path fill-rule="evenodd" clip-rule="evenodd" d="M3 5C3 3.34315 4.34315 2 6 2H18C19.6569 2 21 3.34315 21 5V19C21 20.6569 19.6569 22 18 22H6C4.34315 22 3 20.6569 3 19V5ZM15.75 3.5H18C18.8284 3.5 19.5 4.17157 19.5 5V19C19.5 19.8284 18.8284 20.5 18 20.5H6C5.17157 20.5 4.5 19.8284 4.5 19V5C4.5 4.17157 5.17157 3.5 6 3.5H8.25C8.66421 3.5 8.5 3.5 9 3.5C9.5 3.5 9.33579 3.5 9.75 3.5H14.25C14.6642 3.5 14.5 3.5 15 3.5C15.5 3.5 15.3358 3.5 15.75 3.5Z" fill="#1B1B1B"/>
</svg>
