<svg width="24" height="24" viewBox="0 0 24 24" fill="none" xmlns="http://www.w3.org/2000/svg">
<path fill-rule="evenodd" clip-rule="evenodd" d="M10 3.25H7.25V8.25H3.25V19.75H17.7776C19.1389 19.75 20.2953 18.7541 20.4972 17.4079L21.3972 11.4079C21.6466 9.74527 20.3589 8.25 18.6776 8.25H12.75V6C12.75 4.48122 11.5188 3.25 10 3.25ZM8.75 18.25H17.7776C18.3964 18.25 18.922 17.7973 19.0138 17.1854L19.9138 11.1854C20.0272 10.4297 19.4418 9.75 18.6776 9.75H11.25V6C11.25 5.30964 10.6904 4.75 10 4.75H8.75V18.25ZM7.25 18.25V9.75H4.75V18.25H7.25Z" fill="#1B1B1B"/>
</svg>
