<svg width="24" height="24" viewBox="0 0 24 24" fill="none" xmlns="http://www.w3.org/2000/svg">
<path fill-rule="evenodd" clip-rule="evenodd" d="M9 15.7999C9.55228 15.7999 10 15.3522 10 14.7999C10 14.2476 9.55228 13.7999 9 13.7999C8.44772 13.7999 8 14.2476 8 14.7999C8 15.3522 8.44772 15.7999 9 15.7999ZM15 15.7999C15.5523 15.7999 16 15.3522 16 14.7999C16 14.2476 15.5523 13.7999 15 13.7999C14.4477 13.7999 14 14.2476 14 14.7999C14 15.3522 14.4477 15.7999 15 15.7999Z" fill="#1F7560"/>
<path fill-rule="evenodd" clip-rule="evenodd" d="M15.6629 3.1508C15.8836 2.80031 15.7658 2.35911 15.3997 2.16536C15.0336 1.9716 14.5579 2.09866 14.3371 2.44915L12.7305 4.99996H11.2696L9.66298 2.44915C9.44223 2.09867 8.96649 1.97161 8.60039 2.16537C8.23429 2.35912 8.11645 2.80032 8.3372 3.15081L9.50187 4.99996H6.5C5.67157 4.99996 5 5.67153 5 6.49996V17.5C5 18.3284 5.67157 19 6.5 19H7.034L5.95047 20.8767C5.74337 21.2354 5.86627 21.6941 6.22499 21.9012C6.58371 22.1083 7.0424 21.9854 7.24951 21.6267L8.76605 19H15.2342L16.7507 21.6266C16.9578 21.9853 17.4165 22.1082 17.7752 21.9011C18.1339 21.694 18.2568 21.2353 18.0497 20.8766L16.9662 19H17.5C18.3284 19 19 18.3284 19 17.5V6.49996C19 5.67153 18.3284 4.99996 17.5 4.99996H14.4982L15.6629 3.1508ZM6.5 6.49996H17.5V10.75H6.5V6.49996ZM6.5 12.25H17.5V17.5H6.5V12.25Z" fill="#1B1B1B"/>
</svg>
