<svg width="24" height="24" viewBox="0 0 24 24" fill="none" xmlns="http://www.w3.org/2000/svg">
<path fill-rule="evenodd" clip-rule="evenodd" d="M14 6.5C14 7.05228 14.4477 7.5 15 7.5C15.5523 7.5 16 7.05228 16 6.5H14ZM15 16.5101C14.4511 16.5101 14.0055 16.9524 14.0001 17.5H15.9999C15.9945 16.9524 15.5489 16.5101 15 16.5101ZM16 10.17C16 10.7223 15.5523 11.17 15 11.17C14.4477 11.17 14 10.7223 14 10.17C14 9.61776 14.4477 9.17004 15 9.17004C15.5523 9.17004 16 9.61776 16 10.17ZM15 14.8401C15.5523 14.8401 16 14.3924 16 13.8401C16 13.2878 15.5523 12.8401 15 12.8401C14.4477 12.8401 14 13.2878 14 13.8401C14 14.3924 14.4477 14.8401 15 14.8401Z" fill="#1F7560"/>
<path fill-rule="evenodd" clip-rule="evenodd" d="M21.9999 6.49999L22 10C20.8954 10 20 10.8954 20 12C20 13.1046 20.8954 14 22 14L22 17.5C22 18.3284 21.3284 19 20.5 19H3.5C2.67157 19 2 18.3284 2 17.5L2.00001 14C3.10458 14 4 13.1046 4 12C4 10.8954 3.10458 10 2.00003 10L2.00004 6.5C2.00004 5.67157 2.67162 5 3.50004 5H20.4999C21.3284 5 21.9999 5.67157 21.9999 6.49999ZM14 6.5L3.50004 6.5L3.50003 8.83683C4.68249 9.39857 5.5 10.6038 5.5 12C5.5 13.3962 4.68248 14.6014 3.50001 15.1632L3.5 17.5H14.0001H15.9999H20.5L20.5 15.1632C19.3175 14.6014 18.5 13.3962 18.5 12C18.5 10.6038 19.3175 9.39858 20.5 8.83684L20.4999 6.5H16H14Z" fill="#1B1B1B"/>
</svg>
