<svg width="24" height="24" viewBox="0 0 24 24" fill="none" xmlns="http://www.w3.org/2000/svg">
<path fill-rule="evenodd" clip-rule="evenodd" d="M12 9.5C13.3807 9.5 14.5 8.38071 14.5 7C14.5 5.61929 13.3807 4.5 12 4.5C10.6193 4.5 9.5 5.61929 9.5 7C9.5 8.38071 10.6193 9.5 12 9.5ZM12 11C14.2091 11 16 9.20914 16 7C16 4.79086 14.2091 3 12 3C9.79086 3 8 4.79086 8 7C8 9.20914 9.79086 11 12 11Z" fill="#1F7560"/>
<path fill-rule="evenodd" clip-rule="evenodd" d="M4 21C4 20.4954 4.04773 19.9932 4.14188 19.5C4.24377 18.9662 4.40002 18.443 4.60896 17.9385C5.011 16.9679 5.60028 16.086 6.34315 15.3431C7.08602 14.6003 7.96793 14.011 8.93853 13.609C9.90914 13.2069 10.9494 13 12 13C13.0506 13 14.0909 13.2069 15.0615 13.609C16.0321 14.011 16.914 14.6003 17.6569 15.3431C18.3997 16.086 18.989 16.9679 19.391 17.9385C19.6 18.443 19.7562 18.9662 19.8581 19.5C19.9523 19.9932 20 20.4954 20 21L4 21ZM18.3246 19.5C18.2448 19.1636 18.1381 18.8334 18.0052 18.5126C17.6786 17.7239 17.1998 17.0074 16.5962 16.4038C15.9926 15.8002 15.2761 15.3214 14.4874 14.9948C13.6988 14.6681 12.8536 14.5 12 14.5C11.1464 14.5 10.3012 14.6681 9.51256 14.9948C8.72394 15.3214 8.00739 15.8002 7.40381 16.4038C6.80023 17.0074 6.32144 17.7239 5.99478 18.5126C5.86188 18.8334 5.75522 19.1636 5.67544 19.5L18.3246 19.5Z" fill="#1B1B1B"/>
</svg>
