<svg width="24" height="24" viewBox="0 0 24 24" fill="none" xmlns="http://www.w3.org/2000/svg">
<path fill-rule="evenodd" clip-rule="evenodd" d="M16 7C16 9.20914 14.2091 11 12 11C9.79086 11 8 9.20914 8 7C8 4.79086 9.79086 3 12 3C14.2091 3 16 4.79086 16 7ZM14.5 7C14.5 8.38071 13.3807 9.5 12 9.5C10.6193 9.5 9.5 8.38071 9.5 7C9.5 5.61929 10.6193 4.5 12 4.5C13.3807 4.5 14.5 5.61929 14.5 7Z" fill="#1F7560"/>
<path d="M17.75 18.75H15V17.25H17.75V14.5H19.25V17.25H22V18.75H19.25V21.5H17.75V18.75Z" fill="#1F7560"/>
<path d="M13.5 19.5V21H4C4 20.4954 4.04773 19.9932 4.14188 19.5C4.24377 18.9662 4.40002 18.443 4.60896 17.9385C5.011 16.9679 5.60028 16.086 6.34315 15.3431C7.08602 14.6003 7.96793 14.011 8.93853 13.609C9.90914 13.2069 10.9494 13 12 13C13.0506 13 14.0909 13.2069 15.0615 13.609C15.1387 13.641 15.2154 13.6741 15.2915 13.7085L14.1382 14.8618C13.4516 14.6226 12.7289 14.5 12 14.5C11.1464 14.5 10.3012 14.6681 9.51256 14.9948C8.72394 15.3214 8.00739 15.8002 7.40381 16.4038C6.80023 17.0074 6.32144 17.7239 5.99478 18.5126C5.86188 18.8334 5.75522 19.1636 5.67544 19.5H13.5Z" fill="#1B1B1B"/>
</svg>
