<svg width="24" height="24" viewBox="0 0 24 24" fill="none" xmlns="http://www.w3.org/2000/svg">
<path fill-rule="evenodd" clip-rule="evenodd" d="M21.5 4L20 7H21.5V9L23 6H21.5V4ZM18.1077 4.26915C18.0688 4.17197 17.9312 4.17197 17.8923 4.26915L16.7428 7.14305C16.387 8.03248 17.042 9 18 9C18.958 9 19.613 8.03248 19.2572 7.14305L18.1077 4.26915Z" fill="#1F7560"/>
<path fill-rule="evenodd" clip-rule="evenodd" d="M4.25 4C4.25 3.58579 4.58579 3.25 5 3.25H14C14.4142 3.25 14.75 3.58579 14.75 4V12.25H16C18.6234 12.25 20.75 14.3766 20.75 17V21C20.75 21.4142 20.4142 21.75 20 21.75H14H5C4.58579 21.75 4.25 21.4142 4.25 21V4ZM19.25 20.25H14.75V13.75H16C17.7949 13.75 19.25 15.2051 19.25 17V20.25ZM13.25 4.75V13V20.25H9V18H7V20.25H5.75V4.75H13.25ZM7 6H9V8H7V6ZM9 9H7V11H9V9ZM7 12H9V14H7V12ZM9 15H7V17H9V15ZM10 6H12V8H10V6ZM12 9H10V11H12V9ZM10 12H12V14H10V12ZM12 15H10V17H12V15ZM18 17C18 15.8954 17.1046 15 16 15V17H18Z" fill="#1B1B1B"/>
</svg>
