<svg width="24" height="24" viewBox="0 0 24 24" fill="none" xmlns="http://www.w3.org/2000/svg">
<path d="M17.5 14.5C18.0523 14.5 18.5 14.0523 18.5 13.5C18.5 12.9477 18.0523 12.5 17.5 12.5C16.9477 12.5 16.5 12.9477 16.5 13.5C16.5 14.0523 16.9477 14.5 17.5 14.5Z" fill="#1F7560"/>
<path fill-rule="evenodd" clip-rule="evenodd" d="M13.5 13.5C13.5 11.2909 15.2909 9.5 17.5 9.5H22.5V17.5H17.5C15.2909 17.5 13.5 15.7091 13.5 13.5ZM17.5 11H21V16H17.5C16.1193 16 15 14.8807 15 13.5C15 12.1193 16.1193 11 17.5 11Z" fill="#1F7560"/>
<path fill-rule="evenodd" clip-rule="evenodd" d="M5.25 3C4.00736 3 3 4.00736 3 5.25V17.9999C3 19.6568 4.34315 20.9999 6 20.9999H21V17.5H19.5V19.4999H6C5.17157 19.4999 4.5 18.8284 4.5 17.9999V7.37197C4.73458 7.45488 4.98702 7.5 5.25 7.5H19.5V9.5H21V5.99994H19.5V3H5.25ZM5.24994 5.99994C4.90112 5.99994 4.60792 5.76179 4.52407 5.4392C4.50836 5.37876 4.5 5.31536 4.5 5.25C4.5 4.83579 4.83579 4.5 5.25 4.5H18V5.99994H5.24994Z" fill="#1B1B1B"/>
</svg>
