<svg width="24" height="24" viewBox="0 0 24 24" fill="none" xmlns="http://www.w3.org/2000/svg">
<path d="M22.6066 10.5001C16.7487 4.64222 7.25127 4.64222 1.3934 10.5001L2.45406 11.5607C7.72614 6.28867 16.2739 6.28867 21.5459 11.5607L22.6066 10.5001Z" fill="#1B1B1B"/>
<path d="M19.7782 13.3285C15.4824 9.03275 8.5176 9.03275 4.22183 13.3285L5.28249 14.3892C8.99247 10.6792 15.0075 10.6792 18.7175 14.3892L19.7782 13.3285Z" fill="#1B1B1B"/>
<path d="M16.9498 16.1569C14.2161 13.4233 9.78393 13.4233 7.05026 16.1569L8.11092 17.2176C10.2588 15.0697 13.7412 15.0697 15.8891 17.2176L16.9498 16.1569Z" fill="#1B1B1B"/>
<path d="M14.1213 18.9854C12.9498 17.8138 11.0503 17.8138 9.87868 18.9854L12 21.1067L14.1213 18.9854Z" fill="#1B1B1B"/>
</svg>
